<svg id="visual" viewBox="0 0 1440 1024" width="1440" height="1024" xmlns="http://www.w3.org/2000/svg" xmlns:xlink="http://www.w3.org/1999/xlink" version="1.1"><rect x="0" y="0" width="1440" height="1024" fill="#05382d"></rect><path d="M1349 1024L1311.3 1012.7C1273.7 1001.3 1198.3 978.7 1205.5 955.8C1212.7 933 1302.3 910 1278.2 887.2C1254 864.3 1116 841.7 1047.7 819C979.3 796.3 980.7 773.7 942.2 751C903.7 728.3 825.3 705.7 863.2 682.8C901 660 1055 637 1126.5 614.2C1198 591.3 1187 568.7 1116 546C1045 523.3 914 500.7 842.5 478C771 455.3 759 432.7 782 409.8C805 387 863 364 933.3 341.2C1003.7 318.3 1086.3 295.7 1115 273C1143.7 250.3 1118.3 227.7 1050.7 205C983 182.3 873 159.7 856.5 136.8C840 114 917 91 928.3 68.2C939.7 45.3 885.3 22.7 858.2 11.3L831 0L1440 0L1440 11.3C1440 22.7 1440 45.3 1440 68.2C1440 91 1440 114 1440 136.8C1440 159.7 1440 182.3 1440 205C1440 227.7 1440 250.3 1440 273C1440 295.7 1440 318.3 1440 341.2C1440 364 1440 387 1440 409.8C1440 432.7 1440 455.3 1440 478C1440 500.7 1440 523.3 1440 546C1440 568.7 1440 591.3 1440 614.2C1440 637 1440 660 1440 682.8C1440 705.7 1440 728.3 1440 751C1440 773.7 1440 796.3 1440 819C1440 841.7 1440 864.3 1440 887.2C1440 910 1440 933 1440 955.8C1440 978.7 1440 1001.3 1440 1012.7L1440 1024Z" fill="#06ff86" stroke-linecap="round" stroke-linejoin="miter"></path></svg>