<svg id="visual" viewBox="0 0 1440 1024" width="1440" height="1024" xmlns="http://www.w3.org/2000/svg" xmlns:xlink="http://www.w3.org/1999/xlink" version="1.1"><rect x="0" y="0" width="1440" height="1024" fill="#014E3D"></rect><path d="M1167 1024L1149.7 989.8C1132.3 955.7 1097.7 887.3 985.7 819C873.7 750.7 684.3 682.3 682 614.2C679.7 546 864.3 478 899 409.8C933.7 341.7 818.3 273.3 743.2 205C668 136.7 633 68.3 615.5 34.2L598 0L1440 0L1440 34.2C1440 68.3 1440 136.7 1440 205C1440 273.3 1440 341.7 1440 409.8C1440 478 1440 546 1440 614.2C1440 682.3 1440 750.7 1440 819C1440 887.3 1440 955.7 1440 989.8L1440 1024Z" fill="#022421" stroke-linecap="round" stroke-linejoin="miter"></path></svg>