<svg id="visual" viewBox="0 0 1440 1024" width="1440" height="1024" xmlns="http://www.w3.org/2000/svg" xmlns:xlink="http://www.w3.org/1999/xlink" version="1.1"><rect x="0" y="0" width="1440" height="1024" fill="#01192c"></rect><defs><linearGradient id="grad1_0" x1="28.9%" y1="0%" x2="100%" y2="100%"><stop offset="21.875%" stop-color="#01192c" stop-opacity="1"></stop><stop offset="78.125%" stop-color="#01192c" stop-opacity="1"></stop></linearGradient></defs><defs><linearGradient id="grad2_0" x1="0%" y1="0%" x2="71.1%" y2="100%"><stop offset="21.875%" stop-color="#01192c" stop-opacity="1"></stop><stop offset="78.125%" stop-color="#01192c" stop-opacity="1"></stop></linearGradient></defs><g transform="translate(1440, 0)"><path d="M0 574.3C-14.5 496.4 -29 418.5 -49.2 405C-69.4 391.6 -95.2 442.5 -110.1 446.6C-124.9 450.8 -128.8 408.1 -162.4 428.2C-196.1 448.4 -259.6 531.3 -266.9 508.5C-274.2 485.6 -225.3 356.9 -199.4 288.9C-173.4 220.8 -170.4 213.4 -208.9 235.8C-247.3 258.2 -327.3 310.4 -353.3 313C-379.3 315.6 -351.4 268.4 -362.9 250.5C-374.5 232.6 -425.6 243.9 -441 231.4C-456.3 219 -436 182.7 -400.2 151.8C-364.4 120.9 -313.1 95.3 -340.8 84C-368.5 72.7 -475.1 75.6 -527.1 64C-579.2 52.4 -576.7 26.2 -574.3 0L0 0Z" fill="#00f677"></path></g><g transform="translate(0, 1024)"><path d="M0 -574.3C18 -517.5 35.9 -460.8 54.1 -445.7C72.3 -430.6 90.8 -457.1 120.6 -489.4C150.4 -521.6 191.6 -559.4 202.1 -533C212.7 -506.5 192.7 -415.6 208.2 -396.7C223.7 -377.8 274.7 -430.8 301.6 -437C328.6 -443.2 331.6 -402.6 317.6 -358.5C303.7 -314.5 272.7 -267.1 294.2 -260.6C315.6 -254.1 389.5 -288.4 412.3 -284.6C435.1 -280.8 406.9 -238.9 423.2 -222.1C439.6 -205.4 500.5 -213.7 536.9 -203.6C573.4 -193.5 585.5 -165 547.6 -135C509.7 -105 421.8 -73.5 417.9 -50.7C414 -28 494.2 -14 574.3 0L0 0Z" fill="#00f677"></path></g></svg>