<svg id="visual" viewBox="0 0 1440 1024" width="1440" height="1024" xmlns="http://www.w3.org/2000/svg" xmlns:xlink="http://www.w3.org/1999/xlink" version="1.1"><rect x="0" y="0" width="1440" height="1024" fill="#042c28"></rect><defs><linearGradient id="grad1_0" x1="28.9%" y1="100%" x2="100%" y2="0%"><stop offset="21.875%" stop-color="#042c28" stop-opacity="1"></stop><stop offset="78.125%" stop-color="#042c28" stop-opacity="1"></stop></linearGradient></defs><defs><linearGradient id="grad2_0" x1="0%" y1="100%" x2="71.1%" y2="0%"><stop offset="21.875%" stop-color="#042c28" stop-opacity="1"></stop><stop offset="78.125%" stop-color="#042c28" stop-opacity="1"></stop></linearGradient></defs><g transform="translate(1440, 1024)"><path d="M-353.4 0C-327.3 -15.7 -301.3 -31.5 -285.4 -45.2C-269.6 -58.9 -263.9 -70.6 -262.5 -85.3C-261.1 -100 -263.8 -117.7 -266.4 -135.7C-269 -153.8 -271.4 -172.3 -275.1 -199.8C-278.7 -227.4 -283.7 -264.2 -249.9 -249.9C-216.1 -235.6 -143.5 -170.2 -118.7 -163.4C-94 -156.6 -117 -208.4 -114.4 -224.5C-111.8 -240.7 -83.6 -221.2 -65.2 -200.7C-46.8 -180.1 -38.3 -158.4 -29.1 -183.7C-19.9 -209 -9.9 -281.2 0 -353.4L0 0Z" fill="#014E3D"></path></g><g transform="translate(0, 0)"><path d="M353.4 0C322.3 12.2 291.3 24.5 299.3 47.4C307.2 70.3 354.2 103.9 327.2 106.3C300.1 108.7 199 79.8 188 95.8C177.1 111.8 256.3 172.6 275.1 199.8C293.8 227.1 252.2 220.9 229.8 229.8C207.4 238.7 204.4 262.7 183.4 252.4C162.4 242.1 123.5 197.4 113 221.9C102.5 246.3 120.4 339.8 109.2 336.1C98 332.4 57.6 231.6 34.6 218.3C11.5 205 5.8 279.2 0 353.4L0 0Z" fill="#014E3D"></path></g></svg>