<?xml version="1.0" encoding="utf-8"?>
<!-- Generator: Adobe Illustrator 27.5.0, SVG Export Plug-In . SVG Version: 6.00 Build 0)  -->
<svg version="1.1" xmlns="http://www.w3.org/2000/svg" xmlns:xlink="http://www.w3.org/1999/xlink" x="0px" y="0px"
	 viewBox="0 0 3710 3710" style="enable-background:new 0 0 3710 3710;" xml:space="preserve">
<g id="Background">
	<g>
		<g>
			<rect style="fill:#FFFFFF;" width="3710" height="3710"/>
		</g>
	</g>
</g>
<g id="Illustration">
	<g>
		<path style="fill:#F4F7FA;" d="M1925.532,455.619C1179.715,434.6,533.679,951.104,436.074,1628.823
			c-106.716,740.993,480.639,1407.709,1203.355,1514.493c898.938,132.823,1770.856-635.569,1692.567-1469.158
			C3273.012,1046.121,2683.671,476.986,1925.532,455.619z"/>
		<g>
			<g>
				
					<linearGradient id="SVGID_1_" gradientUnits="userSpaceOnUse" x1="2512.5203" y1="973.8357" x2="3070.3782" y2="1892.2135" gradientTransform="matrix(0.9968 -0.0795 0.0795 0.9968 -1948.7419 617.5269)">
					<stop  offset="0" style="stop-color:#FF9085"/>
					<stop  offset="1" style="stop-color:#FB6FBB"/>
				</linearGradient>
				<path style="fill:url(#SVGID_1_);" d="M1052.001,2191.944c0.985,0.344,1.973,0.684,2.963,1.022
					c58.549,20.003,126.069,31.522,203.752,28.521c15.101-1.653,30.202-3.306,45.304-4.959
					c9.969-36.902,12.844-73.784-34.297-84.272c-73.21-16.287-84.005-142.212-67.563-188.216
					c20.35-56.94,65.014-190.495-47.769-217.454c-93.89-22.444-159.065-17.736-173.987-135.475
					c-14.923-117.739-84.74-186.846-191.431-172.113c-112.275,15.505-215.571-128.009-304.38-71.141
					c-154.745,99.09,9.867,349.087,211.135,410.474c201.268,61.388,93.998,140.031,95.666,237.142
					c2.278,132.576,178.781,91.531,229.667,140.023C1038.296,2151.921,1047.533,2171.82,1052.001,2191.944z"/>
				<g>
					<defs>
						<path id="SVGID_00000036213843582506023420000009617853171804636066_" d="M1052.028,2265.093l245.66-19.595
							c11.536-35.917,24.692-101.527-27.965-113.241c-73.209-16.287-84.005-142.212-67.563-188.216
							c20.35-56.939,65.013-190.494-47.769-217.453c-93.89-22.443-159.065-17.736-173.987-135.475
							c-14.923-117.739-84.74-186.846-191.431-172.113c-112.275,15.504-215.571-128.009-304.38-71.141
							c-154.745,99.089,9.867,349.085,211.135,410.474c201.268,61.388,93.998,140.032,95.666,237.142
							c2.278,132.576,178.78,91.531,229.666,140.022C1060.952,2173.51,1058.126,2230.124,1052.028,2265.093z"/>
					</defs>
					<clipPath id="SVGID_00000053537957655418703190000000160767031697015194_">
						<use xlink:href="#SVGID_00000036213843582506023420000009617853171804636066_"  style="overflow:visible;"/>
					</clipPath>
					<g style="opacity:0.5;clip-path:url(#SVGID_00000053537957655418703190000000160767031697015194_);">
						<path style="fill:#FCFDFE;" d="M1164.616,2217.224l5.142-1.444c-105.632-375.858-393.162-698.61-750.383-842.301l-1.992,4.955
							C773.098,1521.52,1059.422,1842.927,1164.616,2217.224z"/>
						<path style="fill:#FCFDFE;" d="M1089.471,2017.238l5.326-0.4c-11.527-153,110.47-282.13,111.704-283.417l-3.854-3.696
							C1201.396,1731.026,1077.763,1861.826,1089.471,2017.238z"/>
						<path style="fill:#FCFDFE;" d="M1143.299,2148.612l4.496-2.881c-83.937-130.966-367.233-129.054-370.085-129.019l0.065,5.34
							C780.596,2022.017,1060.958,2020.136,1143.299,2148.612z"/>
						<path style="fill:#FCFDFE;" d="M875.376,1700.062l4.728-2.486c-57.475-109.2,3.119-288.461,3.737-290.259l-5.048-1.74
							C878.166,1407.397,816.838,1588.845,875.376,1700.062z"/>
						<path style="fill:#FCFDFE;" d="M691.98,1533.189l2.449-4.748c-124.985-64.42-306.945-9.921-308.771-9.36l1.563,5.107
							C389.022,1523.633,568.943,1469.772,691.98,1533.189z"/>
					</g>
				</g>
			</g>
			<g>
				<defs>
					<path id="SVGID_00000180350095943467640190000015316132830603371698_" d="M1205.888,2371.242l-264.811-0.899
						c0,0-49.388-136.011,15.833-231.659c133.07-195.149-47.135-298.076-116.164-352.477
						c-104.1-82.042-160.057-199.739-6.413-250.375s0.228-289.005-186.989-397.271c-183.204-105.946-100.588-492.747,316.99-299.849
						c249.377,115.199,209.357,379.877,220.924,518.342c11.567,138.465,217.401,150.617,146.368,319.478
						c-60.675,144.238-175.383,249.172-88.453,348.773C1330.104,2124.905,1338.754,2236.277,1205.888,2371.242z"/>
				</defs>
				<clipPath id="SVGID_00000051351503426300069550000001570545052099089599_">
					<use xlink:href="#SVGID_00000180350095943467640190000015316132830603371698_"  style="overflow:visible;"/>
				</clipPath>
				
					<linearGradient id="SVGID_00000170263876686361870120000012875358421156475532_" gradientUnits="userSpaceOnUse" x1="3325.0088" y1="857.3365" x2="2797.8276" y2="2355.6421" gradientTransform="matrix(-1 -0.0034 -0.0034 1 4070.4146 -17.6354)">
					<stop  offset="0" style="stop-color:#FFC444"/>
					<stop  offset="0.9964" style="stop-color:#F36F56"/>
				</linearGradient>
				
					<path style="clip-path:url(#SVGID_00000051351503426300069550000001570545052099089599_);fill:url(#SVGID_00000170263876686361870120000012875358421156475532_);" d="
					M1205.888,2371.242l-264.811-0.899c0,0-49.388-136.011,15.833-231.659c133.07-195.149-47.135-298.076-116.164-352.477
					c-104.1-82.042-149.737-187.742-23.985-255.78c142.282-76.982,17.8-283.599-169.417-391.866
					c-183.204-105.946-100.588-492.747,316.99-299.849c249.377,115.199,209.357,379.877,220.924,518.342
					c11.567,138.465,217.401,150.617,146.368,319.478c-60.675,144.238-175.383,249.172-88.453,348.773
					C1330.104,2124.905,1338.754,2236.277,1205.888,2371.242z"/>
				<g style="opacity:0.5;clip-path:url(#SVGID_00000051351503426300069550000001570545052099089599_);">
					<path style="fill:#BEB8F2;" d="M1091.194,2395.43l-5.496-1.027c0.636-3.404,63.069-344.405,23.03-701.115
						c-36.884-328.626-170.823-738.217-599.431-823.286l1.088-5.484c190.797,37.868,340.065,142.072,443.663,309.718
						c82.756,133.92,136.672,308.382,160.25,518.54C1154.405,2050.302,1091.829,2392.019,1091.194,2395.43z"/>
					<path style="fill:#BEB8F2;" d="M994.313,1246.161l-5.546-0.712c23.615-184.563-45.839-447.084-46.542-449.714l5.399-1.448
						C948.33,796.93,1018.065,1060.515,994.313,1246.161z"/>
					<path style="fill:#BEB8F2;" d="M922.224,1136.351c-187.792-117.889-363.81-62.227-365.564-61.651l-1.744-5.31
						c1.781-0.588,180.185-57.108,370.28,62.225L922.224,1136.351z"/>
					<path style="fill:#BEB8F2;" d="M1122.198,1927.919c-61.611-263.784-419.87-329.643-423.414-329.993l0.184-5.582
						c3.51,0.014,366.516,68.177,428.673,334.304L1122.198,1927.919z"/>
					<path style="fill:#BEB8F2;" d="M1124.304,1816.24l-5.472-1.159c35.773-169.113,219.74-284.934,221.596-286.085l2.947,4.75
						C1341.539,1534.885,1159.573,1649.487,1124.304,1816.24z"/>
					<path style="fill:#BEB8F2;" d="M1094.341,2340.528c-7.713-102.615-153.904-184.343-155.379-185.158l2.698-4.894
						c6.133,3.377,150.316,83.991,158.255,189.634L1094.341,2340.528z"/>
					<path style="fill:#BEB8F2;" d="M1110.211,2259.974l-5.508-0.96c13.966-80.156,135.501-169.091,175.439-198.314
						c5.644-4.131,10.515-7.696,11.258-8.502l4.164,3.73c-1.032,1.152-4.263,3.531-12.121,9.283
						C1243.957,2094.105,1123.791,2182.038,1110.211,2259.974z"/>
				</g>
			</g>
			<g>
				
					<linearGradient id="SVGID_00000004530481848351584430000008078489085560586170_" gradientUnits="userSpaceOnUse" x1="-1217.689" y1="533.1318" x2="-560.834" y2="2259.0742" gradientTransform="matrix(-0.9979 -0.0653 -0.0653 0.9979 1659.3927 96.1151)">
					<stop  offset="0" style="stop-color:#AA80F9"/>
					<stop  offset="0.9964" style="stop-color:#6165D7"/>
				</linearGradient>
				<path style="fill:url(#SVGID_00000004530481848351584430000008078489085560586170_);" d="M2455.974,1982.829
					c29.146,62.945,1.37,125.907-25.289,168.283c-6.357,0.038-10.051,1.803-16.474,3.365
					c-57.976,14.104-85.167,6.927-144.106,11.193c-12.686,0.918-50.372-8.535-65.513-13.467l-28.076-9.683
					c0,0-49.827-153.105,28.469-195.396c78.296-42.291,48.317-194.664,41.753-277.766
					c-17.81-225.477,225.851-204.982,226.125-496.557c0.073-77.55-25.72-225.467,39.663-287.234
					c74.489-70.371,128.869-1.34,176.764-60.186c74.858-91.975,196.335-124.969,268.745-30.314
					c71.466,93.42-15.371,279.385-231.242,428.85c-142.721,124.77-144.951,162.123-133.719,253.087
					c7.868,63.715,68.645,229.693-17.837,295.971C2488.753,1839.253,2422.655,1910.871,2455.974,1982.829z"/>
				<g>
					<defs>
						<path id="SVGID_00000088123930709860719240000016520390405471537038_" d="M2393.056,2202.642l-211.812-54.557
							c0,0-54.555-158.67,23.741-200.961c78.296-42.291,48.317-194.664,41.753-277.766
							c-17.81-225.476,225.851-204.981,226.124-496.557c0.073-77.55-25.719-225.467,39.663-287.234
							c74.489-70.371,128.869-1.34,176.764-60.186c74.858-91.975,196.335-124.969,268.745-30.314
							c71.466,93.42-15.371,279.385-231.242,428.85c-142.721,124.77-144.951,162.123-133.719,253.087
							c7.868,63.715,68.645,229.693-17.838,295.971c-86.482,66.278-152.581,137.896-119.261,209.854
							C2506.674,2092.321,2393.056,2202.642,2393.056,2202.642z"/>
					</defs>
					<clipPath id="SVGID_00000172416342271075349840000005137031624638382481_">
						<use xlink:href="#SVGID_00000088123930709860719240000016520390405471537038_"  style="overflow:visible;"/>
					</clipPath>
					<g style="opacity:0.5;clip-path:url(#SVGID_00000172416342271075349840000005137031624638382481_);">
						<path style="fill:#FCFDFE;" d="M2300.794,2168.042l-4.302-0.537c3.196-25.638,6.736-51.455,10.521-76.733
							c28.039-187.162,72.533-364.932,132.252-528.378c50.603-138.491,112.816-268.658,184.914-386.885
							c57.98-95.077,122.639-182.984,192.181-261.278c48.888-55.039,99.663-104.796,150.921-147.884
							c8.931-7.511,18.485-14.692,27.725-21.637c12.311-9.253,25.041-18.82,36.393-29.243l2.931,3.195
							c-11.509,10.566-24.324,20.199-36.718,29.515c-9.194,6.91-18.701,14.056-27.542,21.49
							c-51.096,42.953-101.721,92.561-150.47,147.445c-69.37,78.099-133.873,165.798-191.721,260.656
							c-71.949,117.983-134.038,247.891-184.543,386.115c-59.619,163.169-104.041,340.656-132.035,527.529
							C2307.521,2116.657,2303.986,2142.437,2300.794,2168.042z"/>
						<path style="fill:#FCFDFE;" d="M2546.121,1325.214l-3.927-1.841c79.057-168.495,9.637-479.791,8.926-482.915l4.229-0.963
							C2556.063,842.635,2625.811,1155.37,2546.121,1325.214z"/>
						<path style="fill:#FCFDFE;" d="M2366.29,1815.948l-4.113-1.372c40.329-120.795,266.47-214.038,268.749-214.966l1.635,4.018
							C2630.3,1604.548,2405.987,1697.04,2366.29,1815.948z"/>
						<path style="fill:#FCFDFE;" d="M2349.333,1886.464l-4.291-0.626c11.965-82.265-15.67-200.845-77.816-333.894
							c-3.125-6.69-3.125-6.69-3.018-7.507l4.299,0.572l-2.149-0.286l2.092-0.538c0.157,0.469,1.336,2.995,2.705,5.923
							C2333.655,1683.918,2361.42,1803.369,2349.333,1886.464z"/>
						<path style="fill:#FCFDFE;" d="M2307.289,2121.336l-3.932-1.825c38.557-83.048,170.349-115.823,171.674-116.145l1.023,4.214
							C2474.746,2007.897,2344.963,2040.191,2307.289,2121.336z"/>
						<path style="fill:#FCFDFE;" d="M2294.239,2168.379c-16.341-72.003-53.89-141.669-114.792-212.978l3.299-2.817
							c61.369,71.858,99.221,142.132,115.722,214.836L2294.239,2168.379z"/>
						<path style="fill:#FCFDFE;" d="M2779.401,963.895l-3.816-2.058c49.176-91.231,79.69-198.475,89.717-233.715
							c2.427-8.531,3.292-11.531,3.774-12.523l3.899,1.897c-0.358,0.763-1.746,5.639-3.502,11.814
							C2859.414,764.663,2828.802,872.247,2779.401,963.895z"/>
						<path style="fill:#FCFDFE;" d="M2677.505,1100.403l-3.041-3.091c69.263-68.178,263.62-65.997,271.86-65.871l-0.068,4.336
							C2944.257,1035.748,2745.475,1033.499,2677.505,1100.403z"/>
					</g>
				</g>
			</g>
			<g>
				<defs>
					<path id="SVGID_00000140733325509422818610000009910033003956699292_" d="M2112.051,2528.132l252.691,79.203
						c0,0,88.197-114.715,54.946-225.605c-67.843-226.248,135.047-269.876,217.292-300.862
						c124.032-46.729,212.954-142.002,81.809-236.719c-131.145-94.717,87.158-275.55,298.346-322.148
						c206.662-45.6,244.854-439.277-211.502-381.652c-272.534,34.413-314.409,298.805-367.296,427.293
						c-52.888,128.488-252.763,77.842-236.107,260.276c14.228,155.832,91.843,290.535-21.131,359.193
						C2068.124,2255.769,2026.208,2359.314,2112.051,2528.132z"/>
				</defs>
				<clipPath id="SVGID_00000019670477807678394750000009762475499619437981_">
					<use xlink:href="#SVGID_00000140733325509422818610000009910033003956699292_"  style="overflow:visible;"/>
				</clipPath>
				
					<linearGradient id="SVGID_00000078745394912887353800000010765249085740554374_" gradientUnits="userSpaceOnUse" x1="5942.5879" y1="505.8957" x2="5415.3926" y2="2004.2408" gradientTransform="matrix(0.9542 0.2991 -0.2991 0.9542 -2498.8721 -1062.5543)">
					<stop  offset="0.0036" style="stop-color:#E38DDD"/>
					<stop  offset="1" style="stop-color:#9571F6"/>
				</linearGradient>
				
					<path style="clip-path:url(#SVGID_00000019670477807678394750000009762475499619437981_);fill:url(#SVGID_00000078745394912887353800000010765249085740554374_);" d="
					M2112.051,2528.132l252.691,79.203c0,0,88.197-114.715,54.946-225.605c-67.843-226.248,135.047-269.876,217.292-300.862
					c124.032-46.729,199.49-133.686,100.193-236.559c-112.349-116.396,68.774-275.709,279.962-322.308
					c206.662-45.6,244.854-439.277-211.502-381.652c-272.534,34.413-314.409,298.805-367.296,427.293
					c-52.888,128.488-252.763,77.842-236.107,260.276c14.228,155.832,91.843,290.535-21.131,359.193
					C2068.124,2255.769,2026.208,2359.314,2112.051,2528.132z"/>
				<g style="opacity:0.5;clip-path:url(#SVGID_00000019670477807678394750000009762475499619437981_);">
					<path style="fill:#BEB8F2;" d="M2214.065,2585.865l5.549,0.683c0.423-3.437,44.007-347.356,190.017-675.268
						c134.512-302.096,386.015-652.026,820.284-603.532l0.621-5.556c-193.317-21.589-367.104,32.611-516.538,161.091
						c-119.372,102.633-223.51,252.63-309.521,445.825C2258.155,2237.777,2214.491,2582.421,2214.065,2585.865z"/>
					<path style="fill:#BEB8F2;" d="M2653.873,1519.668l5.502,0.999c33.29-183.066,178.861-412.303,180.326-414.598l-4.709-3.013
						C2833.52,1105.361,2687.358,1335.529,2653.873,1519.668z"/>
					<path style="fill:#BEB8F2;" d="M2755.786,1436.791c214.646-55.597,365.598,50.676,367.096,51.756l3.268-4.534
						c-1.52-1.099-154.487-108.911-371.765-52.634L2755.786,1436.791z"/>
					<path style="fill:#BEB8F2;" d="M2325.855,2130.857c138.478-232.813,499.882-187.277,503.366-186.539l1.513-5.376
						c-3.35-1.048-369.976-45.823-509.683,189.058L2325.855,2130.857z"/>
					<path style="fill:#BEB8F2;" d="M2357.612,2023.768l5.566,0.55c17.029-172.014-123.313-338.035-124.733-339.693l-4.245,3.636
						C2235.605,1689.903,2374.408,1854.156,2357.612,2023.768z"/>
					<path style="fill:#BEB8F2;" d="M2227.664,2532.58c38.376-95.481,202.434-129.187,204.086-129.518l-1.092-5.48
						c-6.867,1.365-168.675,34.615-208.181,132.914L2227.664,2532.58z"/>
					<path style="fill:#BEB8F2;" d="M2236.89,2450.998l5.541,0.75c10.921-80.628-78.039-202.144-107.272-242.075
						c-4.131-5.644-7.697-10.515-8.162-11.508l-5.097,2.296c0.635,1.41,2.996,4.655,8.748,12.513
						C2159.551,2252.456,2247.509,2372.603,2236.89,2450.998z"/>
				</g>
			</g>
			<g>
				
					<linearGradient id="SVGID_00000163044695608757639150000011417441719624151192_" gradientUnits="userSpaceOnUse" x1="1821.0775" y1="1589.9187" x2="2378.9392" y2="2508.303" gradientTransform="matrix(-0.9997 0.0227 0.0227 0.9997 4470.2871 119.3449)">
					<stop  offset="0" style="stop-color:#FFC444"/>
					<stop  offset="0.9964" style="stop-color:#F36F56"/>
				</linearGradient>
				<path style="fill:url(#SVGID_00000163044695608757639150000011417441719624151192_);" d="M2351.232,2592.136
					c-0.945,0.443-1.893,0.882-2.843,1.319c-56.201,25.877-122.192,44.23-199.775,49.177c-15.191-0.103-30.382-0.205-45.573-0.308
					c-13.685-35.691-20.311-72.087,25.513-87.333c71.164-23.677,69.046-150.046,47.992-194.131
					c-26.058-54.565-84.125-182.861,25.316-221.195c91.108-31.913,156.423-33.885,159.245-152.532
					c2.823-118.647,65.219-194.522,172.856-190.76c113.272,3.96,201.373-149.351,295.525-101.849
					c164.054,82.771,25.829,348.269-168.119,429.887c-193.948,81.618-79.208,148.898-70.952,245.671
					c11.271,132.115-168.5,109.308-214.169,162.741C2360.779,2550.923,2353.622,2571.661,2351.232,2592.136z"/>
				<g>
					<defs>
						<path id="SVGID_00000023246749578220514240000016466366509932971687_" d="M2358.674,2664.905l-246.376,5.591
							c-15.144-34.551-34.93-98.475,16.256-115.505c71.164-23.677,69.045-150.046,47.992-194.131
							c-26.058-54.564-84.125-182.86,25.316-221.194c91.108-31.913,156.423-33.885,159.245-152.532
							c2.823-118.647,65.219-194.522,172.856-190.76c113.272,3.959,201.373-149.351,295.525-101.849
							c164.054,82.771,25.829,348.268-168.119,429.887c-193.948,81.618-79.208,148.897-70.952,245.671
							c11.271,132.116-168.5,109.307-214.169,162.741C2340.446,2574.712,2349.038,2630.742,2358.674,2664.905z"/>
					</defs>
					<clipPath id="SVGID_00000054973180601834127600000005212591310125068714_">
						<use xlink:href="#SVGID_00000023246749578220514240000016466366509932971687_"  style="overflow:visible;"/>
					</clipPath>
					<g style="opacity:0.5;clip-path:url(#SVGID_00000054973180601834127600000005212591310125068714_);">
						<path style="fill:#FCFDFE;" d="M2241.787,2628.783l-5.262-0.911c66.703-384.68,319.774-735.103,660.456-914.518l2.488,4.725
							C2560.222,1896.738,2308.213,2245.701,2241.787,2628.783z"/>
						<path style="fill:#FCFDFE;" d="M2296.119,2422.169l-5.338,0.146c-4.156-153.378-138.7-269.376-140.059-270.53l3.457-4.071
							C2155.555,2148.882,2291.897,2266.374,2296.119,2422.169z"/>
						<path style="fill:#FCFDFE;" d="M2255.987,2558.353l-4.767-2.407c70.126-138.852,352.136-165.877,354.977-166.133l0.48,5.319
							C2603.868,2395.385,2324.779,2422.141,2255.987,2558.353z"/>
						<path style="fill:#FCFDFE;" d="M2476.709,2084.79l-4.957-1.99c46.025-114.498-32.556-286.635-33.355-288.36l4.844-2.247
							C2444.051,1793.94,2523.585,1968.178,2476.709,2084.79z"/>
						<path style="fill:#FCFDFE;" d="M2642.108,1900.064l-2.92-4.473c117.754-76.845,304.327-41.21,306.201-40.839l-1.033,5.24
							C2942.507,1859.624,2758.027,1824.415,2642.108,1900.064z"/>
					</g>
				</g>
			</g>
		</g>
		<g>
			
				<linearGradient id="SVGID_00000003795448698334760010000009072604854845766838_" gradientUnits="userSpaceOnUse" x1="943.7522" y1="2048.9824" x2="2597.3108" y2="2048.9824">
				<stop  offset="0" style="stop-color:#444B8C"/>
				<stop  offset="0.9964" style="stop-color:#26264F"/>
			</linearGradient>
			<path style="fill:url(#SVGID_00000003795448698334760010000009072604854845766838_);" d="M2547.063,1088.673l-1536.085-88.862
				c-35.379-1.727-67.226,36.88-67.226,69.297v1977.993c0,44.958,45.923,54.006,81.302,50.393l1522.01-155.439
				c27.802-2.839,50.247-28.281,50.247-56.837V1142.83C2597.311,1114.275,2574.865,1090.03,2547.063,1088.673z"/>
			<path style="fill:#D8DEE8;" d="M2572.327,1072.961l-1539.119-75.715c-35.379-1.74-64.192,23.327-64.192,55.997V3046.69
				c0,32.67,28.813,56.189,64.192,52.548l1539.119-158.415c27.802-2.862,50.247-28.502,50.247-57.281V1127.542
				C2622.575,1098.764,2600.129,1074.329,2572.327,1072.961z"/>
			
				<linearGradient id="SVGID_00000080174035460556615600000006847531710987871638_" gradientUnits="userSpaceOnUse" x1="998.5616" y1="2048.3174" x2="2599.5566" y2="2048.3174">
				<stop  offset="0.0036" style="stop-color:#E38DDD"/>
				<stop  offset="1" style="stop-color:#9571F6"/>
			</linearGradient>
			<path style="opacity:0.3;fill:url(#SVGID_00000080174035460556615600000006847531710987871638_);" d="M1033.208,3072.205
				c-19.083,1.927-34.647-10.825-34.647-28.43V1054.571c0-17.605,15.563-31.193,34.647-30.292l1539.119,72.704
				c15.029,0.71,27.229,13.954,27.229,29.524v1759.307c0,15.57-12.2,29.47-27.229,30.987L1033.208,3072.205z"/>
			<polygon style="fill:#FFFFFF;" points="2473.129,2869.623 1156.713,2996.458 1156.713,1161.246 2473.129,1210.825 			"/>
			<path style="opacity:0.3;fill:#97A6B7;" d="M1946.603,1219.807l-526.112,6.582l11.801-118.648
				c0.89-15.416,12.036-28.072,26.709-30.327l89.1-13.692c10.49-1.612,19.524-8.545,24.109-18.501l9.661-20.982l233.051,14.391
				L1946.603,1219.807z"/>
			
				<linearGradient id="SVGID_00000045594448776924503380000015378635381763850134_" gradientUnits="userSpaceOnUse" x1="1420.4911" y1="1036.1611" x2="2247.5793" y2="1036.1611">
				<stop  offset="0" style="stop-color:#444B8C"/>
				<stop  offset="0.9964" style="stop-color:#26264F"/>
			</linearGradient>
			<path style="fill:url(#SVGID_00000045594448776924503380000015378635381763850134_);" d="M2227.55,1142.832
				c-2.495-13.424-13.25-22.846-26.802-23.453l-84.067-3.768c-38.157-1.71-66.129-32.709-64.729-71.972l3.244-90.986
				c0.6-16.827-11.417-30.31-27.932-31.296l-27.62-1.65c-21.062-1.258-35.085-19.825-32.131-41.294
				c5.163-37.52-20.544-69.898-57.801-72.437c-37.549-2.559-72.595,26.128-78.185,64.128c-0.831,5.647-2.738,11.226-5.842,16.205
				c-8.676,13.918-23.88,21.581-38.769,20.692l-28.491-1.702c-17.263-1.031-33.668,11.086-38.042,28.134l-23.69,92.356
				c-10.246,39.942-48.893,68.805-89.931,66.966l-92.218-4.133c-15.103-0.677-29.925,8.126-36.881,21.928l-55.57,110.267
				c-4.551,9.031,1.053,18.786,10.971,19.116l799.725,26.563c8.753,0.291,16.18-8.437,14.568-17.11L2227.55,1142.832z
				 M1898.377,884.725c-11.016-0.683-18.66-10.259-17.058-21.388c1.602-11.129,11.84-19.569,22.851-18.852
				c10.992,0.716,18.593,10.289,16.996,21.385C1919.568,876.963,1909.373,885.406,1898.377,884.725z"/>
			<path style="fill:#97A6B7;" d="M2232.287,1145.298c-2.496-13.423-13.251-22.846-26.802-23.453l-84.067-3.768
				c-38.157-1.71-66.129-32.709-64.729-71.972l3.244-90.986c0.6-16.827-11.417-30.31-27.932-31.296l-27.62-1.65
				c-21.062-1.258-35.085-19.825-32.131-41.294c5.163-37.52-20.544-69.898-57.801-72.438c-37.549-2.559-72.594,26.128-78.185,64.128
				c-0.831,5.647-2.738,11.226-5.842,16.205c-8.676,13.918-23.88,21.581-38.769,20.691l-28.491-1.702
				c-17.264-1.031-33.669,11.086-38.042,28.135l-23.69,92.356c-10.246,39.943-48.893,68.806-89.931,66.967l-92.218-4.133
				c-15.103-0.677-29.925,8.126-36.881,21.928l-55.57,110.267c-4.551,9.031,1.053,18.786,10.971,19.116l799.725,26.563
				c8.753,0.291,16.18-8.437,14.568-17.11L2232.287,1145.298z M1903.114,887.191c-11.016-0.683-18.66-10.259-17.058-21.388
				c1.602-11.129,11.84-19.569,22.851-18.852c10.992,0.716,18.594,10.289,16.996,21.385
				C1924.305,879.43,1914.11,887.872,1903.114,887.191z"/>
			<g>
				<path style="opacity:0.5;fill:#FFFFFF;" d="M2095.424,1195.971c-71.337-44.038-126.074-12.813-170.533-62.482
					c-47.595-53.171-15.494-123.17-64.74-156.201c-31.527-21.147-59.651-2.495-96.32-8.22c-13.426-2.095-27.755-7.433-42.644-17.835
					l-19.757,77.025c-10.246,39.943-48.893,68.805-89.93,66.967l-92.219-4.133c-15.103-0.677-29.925,8.126-36.881,21.927
					l-55.57,110.268c-4.551,9.03,1.053,18.787,10.972,19.114l726.785,24.141C2146.281,1237.467,2123.541,1213.327,2095.424,1195.971
					z"/>
			</g>
			<g>
				<g>
					<g>
						<polygon style="fill:#D8DEE8;" points="2344.75,1447.826 1325.218,1441.618 1325.218,1381.079 2344.75,1389.51 						"/>
						<polygon style="fill:#D8DEE8;" points="2344.75,1549.924 1325.218,1547.607 1325.218,1487.068 2344.75,1491.608 						"/>
						<polygon style="fill:#D8DEE8;" points="2344.75,1652.023 1325.218,1653.596 1325.218,1593.057 2344.75,1593.706 						"/>
						<polygon style="fill:#D8DEE8;" points="2344.75,1754.121 1325.218,1759.585 1325.218,1699.046 2344.75,1695.804 						"/>
					</g>
					<g>
						<polygon style="fill:#D8DEE8;" points="2172.346,1922.279 1309.963,1943.051 1309.963,1880.006 2172.346,1863.175 						"/>
						<polygon style="fill:#D8DEE8;" points="2172.346,2025.757 1309.963,2053.427 1309.963,1990.382 2172.346,1966.653 						"/>
						<polygon style="fill:#D8DEE8;" points="2172.346,2129.234 1309.963,2163.804 1309.963,2100.759 2172.346,2070.13 						"/>
						<polygon style="fill:#D8DEE8;" points="2172.346,2232.712 1309.963,2274.18 1309.963,2211.135 2172.346,2173.608 						"/>
					</g>
					<g>
						<polygon style="fill:#D8DEE8;" points="2344.75,1918.127 2231.307,1920.859 2231.307,1862.024 2344.75,1859.81 						"/>
						<polygon style="fill:#D8DEE8;" points="2344.75,2020.225 2231.307,2023.865 2231.307,1965.03 2344.75,1961.909 						"/>
						<polygon style="fill:#D8DEE8;" points="2344.75,2122.323 2231.307,2126.871 2231.307,2068.036 2344.75,2064.007 						"/>
						<polygon style="fill:#D8DEE8;" points="2344.75,2224.422 2231.307,2229.877 2231.307,2171.042 2344.75,2166.105 						"/>
					</g>
					<g>
						<polygon style="fill:#D8DEE8;" points="2172.346,2400.633 1309.963,2453.298 1309.963,2390.253 2172.346,2341.529 						"/>
						<polygon style="fill:#D8DEE8;" points="2172.346,2504.111 1309.963,2563.674 1309.963,2500.629 2172.346,2445.007 						"/>
						<polygon style="fill:#D8DEE8;" points="2172.346,2607.588 1309.963,2674.051 1309.963,2611.006 2172.346,2548.484 						"/>
						<polygon style="fill:#D8DEE8;" points="2172.346,2711.066 1309.963,2784.427 1309.963,2721.383 2172.346,2651.962 						"/>
					</g>
					<g>
						<polygon style="fill:#D8DEE8;" points="2344.75,2390.105 2231.307,2397.033 2231.307,2338.198 2344.75,2331.789 						"/>
						<polygon style="fill:#D8DEE8;" points="2344.75,2492.203 2231.307,2500.038 2231.307,2441.204 2344.75,2433.887 						"/>
						<polygon style="fill:#D8DEE8;" points="2344.75,2594.302 2231.307,2603.044 2231.307,2544.209 2344.75,2535.985 						"/>
						<polygon style="fill:#D8DEE8;" points="2344.75,2696.4 2231.307,2706.05 2231.307,2647.215 2344.75,2638.083 						"/>
					</g>
				</g>
			</g>
		</g>
		<g>
			
				<linearGradient id="SVGID_00000115487672667029057940000001470428689475342999_" gradientUnits="userSpaceOnUse" x1="529.2458" y1="2282.8154" x2="3037.0811" y2="2282.8154">
				<stop  offset="0" style="stop-color:#444B8C"/>
				<stop  offset="0.9964" style="stop-color:#26264F"/>
			</linearGradient>
			<path style="fill:url(#SVGID_00000115487672667029057940000001470428689475342999_);" d="M2908.404,1922.026l-2160.13-54.286
				c-119.778-3.01-219.028,87.27-219.028,201.714v433.777c0,114.444,99.25,201.38,219.028,194.335l2160.13-127.062
				c71.601-4.212,128.677-77.316,128.677-163.353v-326.107C3037.081,1995.006,2980.004,1923.825,2908.404,1922.026z"/>
			<path style="fill:#97A6B7;" d="M2932.016,1922.026l-2160.129-54.286c-119.778-3.01-219.028,87.27-219.028,201.714v433.777
				c0,114.444,99.25,201.38,219.028,194.335l2160.129-127.062c71.601-4.212,128.677-77.316,128.677-163.353v-326.107
				C3060.693,1995.006,3003.616,1923.825,2932.016,1922.026z"/>
			
				<linearGradient id="SVGID_00000178927804028818019960000017174263463354437255_" gradientUnits="userSpaceOnUse" x1="1139.7201" y1="3259.9966" x2="2225.8064" y2="1611.9215">
				<stop  offset="0.0036" style="stop-color:#EBEFF2"/>
				<stop  offset="1" style="stop-color:#FFFFFF"/>
			</linearGradient>
			<path style="fill:url(#SVGID_00000178927804028818019960000017174263463354437255_);" d="M771.886,2670.535
				c-103.473,5.803-189.265-69.71-189.265-168.445v-432.499c0-98.735,85.793-177.139,189.265-174.822l2160.129,48.379
				c62.032,1.389,111.769,63.204,111.769,137.816v326.833c0,74.612-49.737,138.103-111.769,141.582L771.886,2670.535z"/>
			<g>
				<path style="fill:#D8DEE8;" d="M1059.385,2063.212l61.555,121.874c2.266,4.485,6.642,7.571,11.699,8.251l134.497,18.1
					c12.355,1.663,17.279,16.726,8.352,25.516l-96.766,95.275c-3.623,3.568-5.278,8.628-4.422,13.529l23.044,131.951
					c2.144,12.278-10.994,22.237-22.263,16.843l-122.499-58.631c-4.599-2.201-10.1-2.02-14.709,0.49l-126.094,68.65
					c-11.933,6.497-25.917-2.675-23.63-15.532l24.455-137.433c0.904-5.079-0.843-10.198-4.674-13.692l-104.54-95.369
					c-9.868-9.002-4.42-24.965,9.197-26.982l143.621-21.283c5.24-0.777,9.766-3.985,12.106-8.578l62.725-123.134
					C1036.851,2051.648,1053.601,2051.76,1059.385,2063.212z"/>
				
					<linearGradient id="SVGID_00000160911944148885696190000007091303648393570212_" gradientUnits="userSpaceOnUse" x1="1875.3267" y1="1957.4198" x2="1255.1797" y2="2590.1206">
					<stop  offset="0" style="stop-color:#FFC444"/>
					<stop  offset="0.9964" style="stop-color:#F36F56"/>
				</linearGradient>
				<path style="fill:url(#SVGID_00000160911944148885696190000007091303648393570212_);" d="M1551.699,2065.927l55.42,115.644
					c2.04,4.258,5.982,7.187,10.537,7.835l121.234,17.244c11.145,1.585,15.588,15.896,7.534,24.239l-87.249,90.385
					c-3.265,3.383-4.756,8.185-3.985,12.838l20.769,125.302c1.933,11.661-9.909,21.09-20.065,15.948l-110.317-55.856
					c-4.139-2.096-9.089-1.932-13.236,0.441l-113.386,64.872c-10.723,6.135-23.287-2.586-21.231-14.769l21.973-130.234
					c0.812-4.813-0.758-9.668-4.2-12.985l-93.885-90.47c-8.857-8.535-3.967-23.654,8.255-25.559l129.022-20.108
					c4.712-0.734,8.781-3.774,10.885-8.129l56.419-116.778C1531.42,2054.964,1546.494,2055.065,1551.699,2065.927z"/>
				
					<linearGradient id="SVGID_00000075133969504118661520000013698405960176041101_" gradientUnits="userSpaceOnUse" x1="2099.5022" y1="2176.427" x2="1492.7238" y2="2795.4888">
					<stop  offset="0" style="stop-color:#FFC444"/>
					<stop  offset="0.9964" style="stop-color:#F36F56"/>
				</linearGradient>
				<path style="fill:url(#SVGID_00000075133969504118661520000013698405960176041101_);" d="M1995.968,2068.378l50.159,110.019
					c1.847,4.052,5.416,6.841,9.54,7.459l109.841,16.464c10.105,1.515,14.133,15.144,6.83,23.084l-79.07,85.973
					c-2.958,3.216-4.308,7.785-3.609,12.214l18.814,119.29c1.751,11.103-8.977,20.056-18.177,15.143l-99.866-53.331
					c-3.745-2-8.223-1.852-11.974,0.399l-102.507,61.487c-9.688,5.811-21.037-2.502-19.181-14.076l19.85-123.752
					c0.734-4.574-0.685-9.191-3.795-12.347l-84.78-86.05c-7.994-8.113-3.581-22.474,7.451-24.278l116.541-19.055
					c4.259-0.697,7.937-3.585,9.839-7.725l51.018-111.045C1977.622,2057.956,1991.259,2058.048,1995.968,2068.378z"/>
				
					<linearGradient id="SVGID_00000114755659814174607840000014852615733826253754_" gradientUnits="userSpaceOnUse" x1="2413.4277" y1="2223.2456" x2="1784.9857" y2="3273.071">
					<stop  offset="0" style="stop-color:#FFC444"/>
					<stop  offset="0.9964" style="stop-color:#F36F56"/>
				</linearGradient>
				<path style="fill:url(#SVGID_00000114755659814174607840000014852615733826253754_);" d="M2398.898,2070.6l45.612,104.917
					c1.68,3.865,4.926,6.526,8.678,7.117l99.981,15.751c9.204,1.45,12.873,14.46,6.221,22.034l-71.99,81.972
					c-2.692,3.065-3.921,7.422-3.285,11.648l17.123,113.829c1.594,10.596-8.17,19.118-16.543,14.415l-90.833-51.023
					c-3.404-1.912-7.475-1.778-10.885,0.362l-93.121,58.437c-8.795,5.519-19.098-2.421-17.413-13.446l18.021-117.885
					c0.666-4.358-0.622-8.758-3.445-11.769l-76.937-82.042c-7.25-7.732-3.248-21.406,6.759-23.119l105.788-18.107
					c3.868-0.662,7.21-3.414,8.937-7.358l46.357-105.849C2382.221,2060.669,2394.616,2060.752,2398.898,2070.6z"/>
				<path style="fill:#D8DEE8;" d="M2766.001,2072.625l41.657,100.266c1.535,3.695,4.5,6.239,7.928,6.805l91.391,15.098
					c8.418,1.391,11.775,13.834,5.69,21.075l-65.819,78.326c-2.46,2.928-3.583,7.091-3.002,11.133l15.651,108.846
					c1.457,10.133-7.468,18.264-15.12,13.754l-82.972-48.906c-3.108-1.832-6.824-1.709-9.938,0.331l-84.969,55.675
					c-8.021,5.255-17.416-2.345-15.879-12.869l16.433-112.549c0.607-4.161-0.567-8.364-3.142-11.243l-70.135-78.39
					c-6.606-7.384-2.959-20.435,6.159-22.066l96.457-17.248c3.529-0.631,6.578-3.259,8.154-7.026l42.307-101.117
					C2750.775,2063.14,2762.092,2063.216,2766.001,2072.625z"/>
			</g>
			<g style="opacity:0.1;">
				<path style="fill:#97A6B7;" d="M2631.573,2282.013c-268.121-68.481-450.843,296.173-772.05,222.838
					c-283.765-64.786-291.76-369.426-635.728-585.815c-23.836-14.995-48.151-28.894-72.897-41.772l-379.011-9.525
					c-119.778-3.01-219.028,87.27-219.028,201.714v433.777c0,114.443,99.25,201.38,219.028,194.335l2146.394-126.254
					C2821.43,2373.931,2718.295,2304.163,2631.573,2282.013z"/>
			</g>
			
				<linearGradient id="SVGID_00000139998555457099794520000016743720843896405417_" gradientUnits="userSpaceOnUse" x1="1109.5848" y1="2025.4728" x2="715.048" y2="3194.1033">
				<stop  offset="0" style="stop-color:#FFC444"/>
				<stop  offset="0.9964" style="stop-color:#F36F56"/>
			</linearGradient>
			<path style="fill:url(#SVGID_00000139998555457099794520000016743720843896405417_);" d="M1059.385,2063.212l61.555,121.874
				c2.266,4.485,6.642,7.571,11.699,8.251l134.497,18.1c12.355,1.663,17.279,16.726,8.352,25.516l-96.766,95.275
				c-3.623,3.568-5.278,8.628-4.422,13.529l23.044,131.951c2.144,12.278-10.994,22.237-22.263,16.843l-122.499-58.631
				c-4.599-2.201-10.1-2.02-14.709,0.49l-126.094,68.65c-11.933,6.497-25.917-2.675-23.63-15.532l24.455-137.433
				c0.904-5.079-0.843-10.198-4.674-13.692l-104.54-95.369c-9.868-9.002-4.42-24.965,9.197-26.982l143.621-21.283
				c5.24-0.777,9.766-3.985,12.106-8.578l62.725-123.134C1036.851,2051.648,1053.601,2051.76,1059.385,2063.212z"/>
		</g>
		<g>
			<g>
				
					<linearGradient id="SVGID_00000068672726755727490030000016595948157625060231_" gradientUnits="userSpaceOnUse" x1="2210.7056" y1="1846.1632" x2="2175.1428" y2="1903.691">
					<stop  offset="0" style="stop-color:#FFC444"/>
					<stop  offset="0.9964" style="stop-color:#F36F56"/>
				</linearGradient>
				<path style="fill:url(#SVGID_00000068672726755727490030000016595948157625060231_);" d="M2208.841,1904.868
					c3.611-5.595,10.199-17.503,10.619-33.494c0.819-31.073-22.228-55.308-25.325-53.917c-1.67,0.75,0.448,9.854,1.634,13.888
					c2.469,8.401,5.124,9.212,4.901,13.071c-0.457,7.943-11.924,8.249-17.972,18.79c-4.355,7.59-4.703,18.402,0,26.958
					C2190.503,1904.359,2208.098,1904.859,2208.841,1904.868z"/>
				
					<linearGradient id="SVGID_00000036939131160330343520000003458189837483031482_" gradientUnits="userSpaceOnUse" x1="2717.2527" y1="2527.0471" x2="2731.6133" y2="2556.5776">
					<stop  offset="0" style="stop-color:#FFC444"/>
					<stop  offset="0.9964" style="stop-color:#F36F56"/>
				</linearGradient>
				<polygon style="fill:url(#SVGID_00000036939131160330343520000003458189837483031482_);" points="2701.132,2579.767 
					2692.274,2549.286 2729.256,2521.882 2752.307,2513.263 2738.659,2555.912 				"/>
				
					<linearGradient id="SVGID_00000039820749840155239540000004289716670187799445_" gradientUnits="userSpaceOnUse" x1="1431.1288" y1="3279.0552" x2="1431.1288" y2="3186.4131" gradientTransform="matrix(1 0 0 1 1249.563 0)">
					<stop  offset="0" style="stop-color:#FFC444"/>
					<stop  offset="0.9964" style="stop-color:#F36F56"/>
				</linearGradient>
				<path style="fill:url(#SVGID_00000039820749840155239540000004289716670187799445_);" d="M2655.355,3193.677
					c0,0,20.228,50.886,14.905,73.455c21.717-0.426,35.769-3.193,35.769-3.193s-8.729-23.208-10.432-34.705
					c-2.302-15.534-2.129-40.667-2.129-40.667L2655.355,3193.677z"/>
				<path style="fill:#26264F;" d="M2432.382,3312.696c1.308,1.579,3.629,4.878,3.824,9.349c0.106,2.428-0.449,4.426-1.147,6.263
					c-3.448,9.076-8.866,10.273-14.711,19.903c-3.571,5.884-2.897,7.658-6.17,10.314c-4.313,3.501-9.53,3.701-14.052,3.753
					c-7.642,0.088-18.644-0.185-32.496-1.836c7.26-9.356,14.979-18.861,23.189-28.458c3.601-4.208,7.196-8.318,10.78-12.33
					l21.343-7.212C2426.089,3312.527,2429.236,3312.612,2432.382,3312.696z"/>
				
					<linearGradient id="SVGID_00000100341322821770166470000008470245543436745404_" gradientUnits="userSpaceOnUse" x1="1148.7546" y1="3305.457" x2="1148.7546" y2="3193.8081" gradientTransform="matrix(1 0 0 1 1249.563 0)">
					<stop  offset="0" style="stop-color:#FFC444"/>
					<stop  offset="0.9964" style="stop-color:#F36F56"/>
				</linearGradient>
				<path style="fill:url(#SVGID_00000100341322821770166470000008470245543436745404_);" d="M2414.633,3209.07
					c0,0-12.201,63.658,3.324,81.483c13.225,17.825-6.387,5.109-6.387,5.109l-23.421,20.44l-14.051,24.272
					c0,0,12.935-62.305,9.485-87.03c-3.449-24.724-5.175-41.4-5.175-41.4L2414.633,3209.07z"/>
				
					<linearGradient id="SVGID_00000105415522968122549590000000971895683192913288_" gradientUnits="userSpaceOnUse" x1="1086.2941" y1="2866.8828" x2="1451.5693" y2="2866.8828" gradientTransform="matrix(1 0 0 1 1249.563 0)">
					<stop  offset="0" style="stop-color:#311944"/>
					<stop  offset="1" style="stop-color:#893976"/>
				</linearGradient>
				<path style="fill:url(#SVGID_00000105415522968122549590000000971895683192913288_);" d="M2368.633,2512.749
					c0,0-32.775,29.324-32.775,150.074c0,120.749,15.525,382.948,15.525,382.948l24.843,187.72c0,0,25.759,0.917,43.009-4.258
					c15.525-70.725,40.823-190.363,28.747-290.412c-5.174-108.675,43.125-244.949,43.125-244.949s41.4,138,70.725,207
					c29.325,68.998,85.156,285.157,90.33,300.684c34.314,3.11,48.97-5.963,48.97-5.963s-22.002-232.622-42.701-320.596
					c-20.7-87.975-18.976-300.148-53.476-360.523C2527.332,2483.423,2368.633,2512.749,2368.633,2512.749z"/>
				
					<linearGradient id="SVGID_00000080907264940944553880000008903191954914496145_" gradientUnits="userSpaceOnUse" x1="1074.6853" y1="2594.5903" x2="1337.8457" y2="3036.5984" gradientTransform="matrix(1 0 0 1 1249.563 0)">
					<stop  offset="0" style="stop-color:#311944"/>
					<stop  offset="1" style="stop-color:#893976"/>
				</linearGradient>
				<path style="fill:url(#SVGID_00000080907264940944553880000008903191954914496145_);" d="M2368.633,2512.749
					c0,0-32.777,29.324-32.777,150.074c0,120.749,15.526,382.948,15.526,382.948l24.843,187.72c0,0,25.759,0.917,43.009-4.258
					c15.525-70.725,40.823-190.363,28.749-290.412c-5.175-108.675,43.124-244.949,43.124-244.949s41.4,138,70.725,207
					c29.325,68.998,85.156,285.158,90.331,300.684c34.313,3.11,48.97-5.963,48.97-5.963s-22.003-232.622-42.701-320.596
					c-20.701-87.975-18.976-300.148-53.475-360.524C2527.332,2483.423,2368.633,2512.749,2368.633,2512.749z"/>
				
					<linearGradient id="SVGID_00000026876270945763224740000001328613387815949741_" gradientUnits="userSpaceOnUse" x1="1178.2845" y1="2532.9099" x2="1441.4449" y2="2974.918" gradientTransform="matrix(1 0 0 1 1249.563 0)">
					<stop  offset="0" style="stop-color:#311944"/>
					<stop  offset="1" style="stop-color:#893976"/>
				</linearGradient>
				<path style="opacity:0.25;fill:url(#SVGID_00000026876270945763224740000001328613387815949741_);" d="M2538.892,2733.996
					c10.219,66.43,30.659,102.2,81.759,148.189c40.879,30.659,10.22,97.089,25.55,148.188c5.109,15.329,20.439,30.659,25.55,45.989
					c19.015,38.031,1.255,84.549,9.877,124.816c13.417-1.853,19.505-5.585,19.505-5.585s-22.003-232.622-42.701-320.596
					c-20.701-87.975-18.976-300.149-53.475-360.524c-77.624-31.049-236.323-1.724-236.323-1.724s-32.777,29.324-32.777,150.074
					c0,9.798,0.105,20.537,0.292,31.981c34.026,30.113,103.616,36.804,146.534,3.425c2.593-1.945,5.352-3.137,8.201-3.716
					c0.132-0.382,0.223-0.64,0.223-0.64s0.071,0.239,0.18,0.597C2510.82,2690.906,2534.46,2716.271,2538.892,2733.996z"/>
				<g>
					<path style="fill:#26264F;" d="M2664.938,3286.443c0,0-5.041,0-4.622,6.512c0.421,6.51-2.269,28.911,23.356,29.961
						c25.626,1.05,29.578-1.814,30.419-1.814c0.84,0-6.722-21.427-6.722-21.427l-8.193-10.501l-22.056-2.31L2664.938,3286.443z"/>
					<path style="fill:#444B8C;" d="M2721.76,3308.927c-0.547-5.409-3.573-13.924-6.618-20.776
						c-4.525-10.179-0.81-13.988-5.135-23.259c-1.495-3.206-2.948-6.245-6.107-9.258c-0.727-0.693-7.798-7.228-18.096-6.896
						c-2.027,0.066-5.147,0.202-8.52,1.999c-3.973,2.117-5.964,5.299-7.665,8.091c-2.672,4.389-2.059,5.735-6.174,18.311
						c-0.331,1.008-1.056,3.203-1.613,6.231c-0.427,2.317-0.599,4.263-0.676,5.593c6.722,0,32.559,1.051,38.019,5.042
						c5.462,3.991,8.193,10.713,8.193,17.435c0,6.721,3.361,9.872,6.722,9.663
						C2717.094,3320.914,2723.059,3315.354,2721.76,3308.927z"/>
				</g>
				<path style="fill:#444B8C;" d="M2411.356,3281.611c5.773,0.09,10.007,4.684,13.2,15.755c3.195,11.072,18.524,20.866,0.64,18.524
					c-17.885-2.342-30.874,22.993-37.26,32.364c-6.388,9.368-23.534,17.691-23.109,8.536c0.426-9.156,7.992-13.434,10.12-22.802
					C2377.077,3324.619,2398.19,3281.404,2411.356,3281.611z"/>
				
					<linearGradient id="SVGID_00000167353990305145130920000003930383565080846986_" gradientUnits="userSpaceOnUse" x1="-323.3781" y1="-3519.072" x2="-44.6763" y2="-2945.9666" gradientTransform="matrix(-0.9906 -0.1367 0.1367 -0.9906 2791.3203 -1269.0822)">
					<stop  offset="0" style="stop-color:#FF9085"/>
					<stop  offset="1" style="stop-color:#FB6FBB"/>
				</linearGradient>
				<path style="fill:url(#SVGID_00000167353990305145130920000003930383565080846986_);" d="M2714.705,2527.323
					c4.244-11.8,30.731-89.31-12.079-159.996c-35.047-57.867-95.691-76.746-104.338-79.299
					c-52.637-15.545-79.019,4.426-95.627-13.954c-28.182-31.189,3.742-137.428,65.494-158.708
					c69.607-23.987,153.111,68.248,186.95,128.83c44.393,79.48,33.467,158.474,30.898,174.744
					c-6.675,42.277-22.195,74.524-33.695,94.324C2739.773,2517.949,2727.239,2522.636,2714.705,2527.323z"/>
				
					<linearGradient id="SVGID_00000096042196164659059080000012195180569532333980_" gradientUnits="userSpaceOnUse" x1="2372.572" y1="2119.8108" x2="2654.8357" y2="2700.2407">
					<stop  offset="0" style="stop-color:#FF9085"/>
					<stop  offset="1" style="stop-color:#FB6FBB"/>
				</linearGradient>
				<path style="fill:url(#SVGID_00000096042196164659059080000012195180569532333980_);" d="M2532.931,2100.367
					c-62.133-2.485-110.05-1.5-137.116,25.549c-28.59,28.57,0.302,60.824-5.906,135.558
					c-9.503,114.416-82.413,142.371-87.898,258.447c-1.85,39.111,4.769,71.078,9.909,90.329
					c16.001,19.927,42.191,48.05,80.842,71.564c56.244,34.219,88.861,28.254,169.636,50.36
					c132.125,36.16,143.879,79.223,209.394,68.252c66.213-11.088,124.304-66.809,117.287-97.408
					c-4.203-18.325-30.895-13.134-61.625-41.084c-39.607-36.021-24.333-70.405-54.445-109.114
					c-43.253-55.6-103.512-21.611-140.371-69.798c-37.284-48.745-22.496-144.798,8.933-197.156
					c20.528-34.198,29.319-74.272,46.787-110.129c1.452-2.979,3.136-7.864,2.394-13.971c-2.835-23.353-41.762-36.019-71.245-45.312
					C2574.539,2102.282,2538.041,2100.57,2532.931,2100.367z"/>
				
					<linearGradient id="SVGID_00000034053364579216548560000000401775718570024358_" gradientUnits="userSpaceOnUse" x1="1245.9396" y1="2047.186" x2="1299.8816" y2="2132.9233" gradientTransform="matrix(1 0 0 1 1249.563 0)">
					<stop  offset="0.0036" style="stop-color:#E38DDD"/>
					<stop  offset="1" style="stop-color:#9571F6"/>
				</linearGradient>
				<path style="fill:url(#SVGID_00000034053364579216548560000000401775718570024358_);" d="M2480.596,2097.798l12.254-3.771
					c0,0,3.205,16.591,42.607,18.664c21.869,0,36.008-12.254,36.008-12.254l8.373,6.104c0,0-18.37,22.947-47.586,22.363
					C2494.546,2128.15,2480.596,2097.798,2480.596,2097.798z"/>
				<g>
					
						<linearGradient id="SVGID_00000147180823419425171500000012669126544719917716_" gradientUnits="userSpaceOnUse" x1="1311.0614" y1="2034.0332" x2="1251.7793" y2="2129.9307" gradientTransform="matrix(1 0 0 1 1249.563 0)">
						<stop  offset="0" style="stop-color:#FFC444"/>
						<stop  offset="0.9964" style="stop-color:#F36F56"/>
					</linearGradient>
					<path style="fill:url(#SVGID_00000147180823419425171500000012669126544719917716_);" d="M2505.548,2047.33
						c2.361-18.222,16.766-29.895,19.909-32.395c13.161-10.46,15.839-11.513,20.359-12.372l6.172-0.936c0,0,0.332,0.008,0.674,0.029
						c3.614,0.219,14.444,4.446,16.413,5.83c6.29,4.424,1.658,35.751-17.411,74.714c-0.75,3.299-1.499,6.599-2.25,9.897
						c16.621,2.921,20.738,5.919,20.869,8.314c0.283,5.186-17.914,11.802-34.781,12.233c-21.15,0.539-43.607-8.56-43.177-15.352
						c0.174-2.749,4.163-6.14,19.52-9.469c2.401-3.374,4.799-6.749,7.199-10.123
						C2516.867,2075.059,2503.809,2060.754,2505.548,2047.33z"/>
					
						<linearGradient id="SVGID_00000002357730719937683360000003890733220155236248_" gradientUnits="userSpaceOnUse" x1="650.2606" y1="1578.7786" x2="592.893" y2="1671.5791" gradientTransform="matrix(0.9717 -0.2361 0.2361 0.9717 1534.775 640.4756)">
						<stop  offset="0" style="stop-color:#FFC444"/>
						<stop  offset="0.9964" style="stop-color:#F36F56"/>
					</linearGradient>
					<path style="fill:url(#SVGID_00000002357730719937683360000003890733220155236248_);" d="M2531.693,2040.47
						c4.797-2.871,8.451,3.301,6.192,8.694c-2.259,5.394-9.853,8.769-14.459,5.552
						C2518.821,2051.501,2525.238,2044.333,2531.693,2040.47z"/>
					
						<linearGradient id="SVGID_00000150092806586287492060000008641948101714574757_" gradientUnits="userSpaceOnUse" x1="2522.0181" y1="1624.4316" x2="3018.8464" y2="2414.1057">
						<stop  offset="0" style="stop-color:#444B8C"/>
						<stop  offset="0.9964" style="stop-color:#26264F"/>
					</linearGradient>
					<path style="fill:url(#SVGID_00000150092806586287492060000008641948101714574757_);" d="M3153.471,2040.379
						c-63.145-68.522-210.069-49.731-291.561,5.301c-37.867,25.572-57.302,55.777-102.046,58.313
						c-34.015,1.927-88.126-10.863-116.625-47.71c-3.59-4.642-17.95-24.111-39.513-48.663c-9.507-10.823-18.96-20.981-33.614-23.278
						c-3.723-0.583-16.108-2.599-24.295,5.4c-6.635,6.48-8.262,17.749-6.301,25.871c1.175,4.857,2.692,5.369,2.476,8.548
						c-0.608,8.932-16.878,12.823-15.972,17.322c0.646,3.214,9.115,2.038,10.573,6.073c1.598,4.422-7.702,8.226-11.698,19.347
						c-7.486,5.011-12.216,17.482-13.852,34.168c-2.406,24.53,0.059,44.462,4.707,59.473
						c22.379,72.276,38.387,123.974,77.128,152.843c51.291,38.221,97.476,2.932,227.948-2.65
						c178.656-7.642,223.2,52.915,287.41,11.487C3188.412,2270.495,3219.032,2111.52,3153.471,2040.379z"/>
				</g>
				
					<linearGradient id="SVGID_00000027581726175053082960000009008150169491193013_" gradientUnits="userSpaceOnUse" x1="2341.1589" y1="2133.3423" x2="2618.7734" y2="2704.2119">
					<stop  offset="0" style="stop-color:#FF9085"/>
					<stop  offset="1" style="stop-color:#FB6FBB"/>
				</linearGradient>
				<path style="fill:url(#SVGID_00000027581726175053082960000009008150169491193013_);" d="M2216.39,1900.516
					c-1.593,14.948-6.981,81.076,38.631,136.91c42.621,52.171,102.98,62.592,114.199,64.288c54.27,8.2,77.674-15.189,96.639,0.748
					c32.183,27.043,15.083,136.648-43.179,166.172c-65.673,33.28-161.005-46.672-202.808-102.059
					c-54.845-72.664-54.822-152.409-54.501-168.877c0.831-42.793,11.796-76.86,20.481-98.045c3.567-1.074,8.998-2.263,15.656-2.031
					C2207.851,1897.843,2212.971,1899.271,2216.39,1900.516z"/>
				
					<linearGradient id="SVGID_00000078733474548385344090000012286571889652984971_" gradientUnits="userSpaceOnUse" x1="2331.8083" y1="2139.6353" x2="2614.0713" y2="2720.0637">
					<stop  offset="0" style="stop-color:#FF9085"/>
					<stop  offset="1" style="stop-color:#FB6FBB"/>
				</linearGradient>
				<path style="opacity:0.25;fill:url(#SVGID_00000078733474548385344090000012286571889652984971_);" d="M2773.778,2756.692
					c-15.887-16.288,1.602-49.134-21.867-73.553c-21.781-22.664-46.44-4.354-81.505-23.854
					c-44.973-25.012-32.581-70.803-75.541-95.421c-30.893-17.704-45.409,1.33-93.432-7.952
					c-47.942-9.266-106.334-42.318-135.178-101.384c-12.256-25.098-16.773-50.048-17.373-72.351
					c-21.562,38.523-43.927,75.441-46.872,137.743c-1.85,39.111,4.769,71.078,9.909,90.328
					c16.001,19.928,42.191,48.051,80.842,71.565c56.244,34.219,88.861,28.254,169.636,50.361
					c132.125,36.16,143.879,79.223,209.394,68.252c42.317-7.086,81.225-32.402,102.031-57.74
					C2812.761,2769.868,2785.309,2768.513,2773.778,2756.692z"/>
			</g>
		</g>
		<g>
			<g>
				
					<linearGradient id="SVGID_00000165209259361758460650000017470843613918599813_" gradientUnits="userSpaceOnUse" x1="1306.6843" y1="1631.3925" x2="778.6582" y2="3680.4487">
					<stop  offset="0" style="stop-color:#311944"/>
					<stop  offset="1" style="stop-color:#893976"/>
				</linearGradient>
				<path style="fill:url(#SVGID_00000165209259361758460650000017470843613918599813_);" d="M1238.315,1341.836h14.53
					l281.357,199.477c-43.402,58.313-68.779,126.456-68.779,206.644l-371.007-5.511
					C1094.417,1589.836,1147.922,1454.448,1238.315,1341.836z"/>
				
					<linearGradient id="SVGID_00000097479009623611075270000007828333777575500437_" gradientUnits="userSpaceOnUse" x1="1525.209" y1="689.3355" x2="1491.7721" y2="1584.6923">
					<stop  offset="0" style="stop-color:#311944"/>
					<stop  offset="1" style="stop-color:#893976"/>
				</linearGradient>
				<path style="fill:url(#SVGID_00000097479009623611075270000007828333777575500437_);" d="M1736.239,1402.359
					c-66.488,19.863-116.101,60.422-161.795,107.83c-0.363,0.376-0.554,1.383-1.076,1.398c-11.427,0.31-7.39,0.613-14.531-0.028
					l-0.639-0.446l-293.92-198.619c95.427-104.124,223.757-181.349,368.454-214.043h14.531L1736.239,1402.359z"/>
				
					<linearGradient id="SVGID_00000131346377952457585460000002054889339600900266_" gradientUnits="userSpaceOnUse" x1="1864.1438" y1="1399.0505" x2="1748.5532" y2="3262.9392">
					<stop  offset="0" style="stop-color:#311944"/>
					<stop  offset="1" style="stop-color:#893976"/>
				</linearGradient>
				<path style="fill:url(#SVGID_00000131346377952457585460000002054889339600900266_);" d="M2092.439,1125.157l-81.987,281.462
					c-36.32-12.091-76.518-22.59-117.083-24.597c-36.249-1.794-83.757,6.599-117.606,13.282l-103.738-305.687
					c66.954-12.536,136.853-16.462,208.163-10.832C1955.088,1084.699,2026.307,1100.749,2092.439,1125.157z"/>
				
					<linearGradient id="SVGID_00000059990220966573833370000007794515686876785077_" gradientUnits="userSpaceOnUse" x1="2143.3933" y1="1361.2135" x2="3702.5266" y2="167.0606">
					<stop  offset="0" style="stop-color:#311944"/>
					<stop  offset="1" style="stop-color:#893976"/>
				</linearGradient>
				<path style="fill:url(#SVGID_00000059990220966573833370000007794515686876785077_);" d="M2430.845,1374.477l-235.678,151.822
					l2.189,8.066h-14.531c-39.172-47.224-90.784-87.433-150.666-113.668l96.049-281.278c10.021-0.497,5.367-0.031,14.531-0.031
					c0.267,0,0.487,0.202,0.73,0.311C2261.393,1192.402,2358.184,1277.58,2430.845,1374.477z"/>
				
					<linearGradient id="SVGID_00000134209402052442550270000012833736505256898718_" gradientUnits="userSpaceOnUse" x1="2757.3362" y1="254.4659" x2="2270.7361" y2="2089.6484">
					<stop  offset="0" style="stop-color:#311944"/>
					<stop  offset="1" style="stop-color:#893976"/>
				</linearGradient>
				<path style="fill:url(#SVGID_00000134209402052442550270000012833736505256898718_);" d="M2562.769,1763.532l-298.469-4.179
					c0-74.262-21.864-138.607-59.721-195.462l246.928-159.836c14.531,0,12.523-0.492,14.531,0c2.467,0.605-8.353,9.339-6.979,11.473
					C2524.93,1517.788,2562.769,1635.769,2562.769,1763.532z"/>
			</g>
			
				<linearGradient id="SVGID_00000181072623230977237710000018316696934579982988_" gradientUnits="userSpaceOnUse" x1="6833.23" y1="-1683.2573" x2="6984.6011" y2="-1683.2573" gradientTransform="matrix(0.7381 0.6746 -0.9837 1.0763 -4703.6128 -1328.0571)">
				<stop  offset="0" style="stop-color:#311944"/>
				<stop  offset="1" style="stop-color:#893976"/>
			</linearGradient>
			<polygon style="fill:url(#SVGID_00000181072623230977237710000018316696934579982988_);" points="1834.879,1646.036 
				2230.141,1360.941 1949.432,1745.058 			"/>
			<g>
				
					<linearGradient id="SVGID_00000122703809864581351120000016300596466235685298_" gradientUnits="userSpaceOnUse" x1="1774.5391" y1="1715.6523" x2="1983.7295" y2="1715.6523">
					<stop  offset="0" style="stop-color:#311944"/>
					<stop  offset="1" style="stop-color:#893976"/>
				</linearGradient>
				<path style="fill:url(#SVGID_00000122703809864581351120000016300596466235685298_);" d="M1983.729,1717.503
					c0,52.796-46.102,95.208-103.543,94.726c-58.083-0.488-105.648-44.556-105.648-98.425c0-53.869,47.564-96.255,105.648-94.688
					C1937.628,1620.664,1983.729,1664.707,1983.729,1717.503z"/>
				<g>
					
						<linearGradient id="SVGID_00000057854781300887235560000011422299747945631910_" gradientUnits="userSpaceOnUse" x1="1816.2472" y1="1715.6644" x2="1943.349" y2="1715.6644">
						<stop  offset="0" style="stop-color:#311944"/>
						<stop  offset="1" style="stop-color:#893976"/>
					</linearGradient>
					<path style="fill:url(#SVGID_00000057854781300887235560000011422299747945631910_);" d="M1880.187,1774.342
						c-35.158-0.423-63.939-27.251-63.939-59.801s28.781-58.36,63.939-57.54c34.922,0.815,63.162,27.633,63.162,59.788
						C1943.349,1748.943,1915.109,1774.762,1880.187,1774.342z M1880.187,1668.449c-28.279-0.629-51.402,20.146-51.402,46.314
						c0,26.167,23.123,47.76,51.402,48.132c28.126,0.37,50.898-20.411,50.898-46.323
						C1931.085,1690.66,1908.312,1669.074,1880.187,1668.449z"/>
				</g>
			</g>
			<g>
				<g>
					
						<linearGradient id="SVGID_00000009582773947821455560000000619221445258123907_" gradientUnits="userSpaceOnUse" x1="1320.7979" y1="1633.3368" x2="797.6289" y2="3663.5442">
						<stop  offset="0" style="stop-color:#AB316D"/>
						<stop  offset="1" style="stop-color:#792D3D"/>
					</linearGradient>
					<path style="fill:url(#SVGID_00000009582773947821455560000000619221445258123907_);" d="M1252.846,1342.68l295.887,199.055
						c-43.402,58.313-68.779,126.245-68.779,206.433l-371.007-5.195C1108.947,1590.363,1162.453,1453.707,1252.846,1342.68z"/>
					
						<linearGradient id="SVGID_00000171682174898079662010000006199037534547285376_" gradientUnits="userSpaceOnUse" x1="1539.7158" y1="689.7416" x2="1506.3047" y2="1584.4091">
						<stop  offset="0" style="stop-color:#FFC444"/>
						<stop  offset="0.5407" style="stop-color:#F8964E"/>
						<stop  offset="0.9964" style="stop-color:#F36F56"/>
					</linearGradient>
					<path style="fill:url(#SVGID_00000171682174898079662010000006199037534547285376_);" d="M1750.77,1402.136
						c-69.499,20.762-130.735,58.83-177.401,109.395l-294.558-199.267c95.427-104.124,223.757-179.366,368.454-214.259
						L1750.77,1402.136z"/>
					
						<linearGradient id="SVGID_00000095316095438806693600000015642567718511790270_" gradientUnits="userSpaceOnUse" x1="1878.8179" y1="1396.7341" x2="1764.0637" y2="3247.1367">
						<stop  offset="0" style="stop-color:#FFC444"/>
						<stop  offset="0.9964" style="stop-color:#F36F56"/>
					</linearGradient>
					<path style="fill:url(#SVGID_00000095316095438806693600000015642567718511790270_);" d="M2106.969,1125.157l-96.518,281.462
						c-36.32-12.091-75.169-19.587-115.735-21.595c-36.249-1.794-71.609,0.899-105.458,7.582l-102.705-302.989
						c66.954-12.536,136.853-16.462,208.163-10.832C1969.619,1084.699,2040.837,1100.749,2106.969,1125.157z"/>
					
						<linearGradient id="SVGID_00000109008169730953106110000004883215233726181287_" gradientUnits="userSpaceOnUse" x1="2157.9446" y1="1361.1671" x2="3716.7092" y2="167.2965">
						<stop  offset="0.0036" style="stop-color:#E38DDD"/>
						<stop  offset="1" style="stop-color:#9571F6"/>
					</linearGradient>
					<path style="fill:url(#SVGID_00000109008169730953106110000004883215233726181287_);" d="M2445.375,1374.477l-248.02,159.644
						c-39.172-47.98-90.784-87.311-150.666-113.546l96.049-281.217C2266.009,1191.88,2370.216,1274.248,2445.375,1374.477z"/>
					
						<linearGradient id="SVGID_00000114757678465648881340000018235133025153868942_" gradientUnits="userSpaceOnUse" x1="2768.0476" y1="268.8693" x2="2286.0339" y2="2086.7549">
						<stop  offset="0.0036" style="stop-color:#E38DDD"/>
						<stop  offset="1" style="stop-color:#9571F6"/>
					</linearGradient>
					<path style="fill:url(#SVGID_00000114757678465648881340000018235133025153868942_);" d="M2577.3,1763.532l-298.469-4.179
						c0-74.262-21.864-138.607-59.721-195.462l246.928-159.836C2536.56,1508.925,2577.3,1630.962,2577.3,1763.532z"/>
				</g>
				
					<linearGradient id="SVGID_00000036217727825726179690000008559668664516800665_" gradientUnits="userSpaceOnUse" x1="6843.9565" y1="-1689.9802" x2="6995.3271" y2="-1689.9802" gradientTransform="matrix(0.7381 0.6746 -0.9837 1.0763 -4703.6128 -1328.0571)">
					<stop  offset="0" style="stop-color:#444B8C"/>
					<stop  offset="0.9964" style="stop-color:#26264F"/>
				</linearGradient>
				<polygon style="fill:url(#SVGID_00000036217727825726179690000008559668664516800665_);" points="1849.409,1646.036 
					2244.672,1360.941 1963.962,1745.058 				"/>
				<g>
					
						<linearGradient id="SVGID_00000009575494350629469000000012061153590513461944_" gradientUnits="userSpaceOnUse" x1="1789.0696" y1="1715.6523" x2="1998.26" y2="1715.6523">
						<stop  offset="0" style="stop-color:#444B8C"/>
						<stop  offset="0.9964" style="stop-color:#26264F"/>
					</linearGradient>
					<path style="fill:url(#SVGID_00000009575494350629469000000012061153590513461944_);" d="M1998.26,1717.503
						c0,52.796-46.102,95.208-103.543,94.726c-58.083-0.488-105.647-44.556-105.647-98.425c0-53.869,47.564-96.255,105.647-94.688
						C1952.158,1620.664,1998.26,1664.707,1998.26,1717.503z"/>
					<g>
						<path style="fill:#D8DEE8;" d="M1894.717,1774.342c-35.158-0.423-63.939-27.251-63.939-59.801s28.781-58.36,63.939-57.54
							c34.922,0.815,63.162,27.633,63.162,59.788C1957.88,1748.943,1929.639,1774.762,1894.717,1774.342z M1894.717,1668.449
							c-28.279-0.629-51.402,20.146-51.402,46.314c0,26.167,23.123,47.76,51.402,48.132c28.126,0.37,50.898-20.411,50.898-46.323
							C1945.615,1690.66,1922.843,1669.074,1894.717,1668.449z"/>
					</g>
				</g>
			</g>
		</g>
	</g>
</g>
</svg>
