<?xml version="1.0" encoding="utf-8"?>
<!-- Generator: Adobe Illustrator 27.5.0, SVG Export Plug-In . SVG Version: 6.00 Build 0)  -->
<svg version="1.1" xmlns="http://www.w3.org/2000/svg" xmlns:xlink="http://www.w3.org/1999/xlink" x="0px" y="0px"
	 viewBox="0 0 500 500" style="enable-background:new 0 0 500 500;" xml:space="preserve">
<g id="BACKGROUND">
	<rect style="fill:#FFFFFF;" width="500" height="500"/>
</g>
<g id="OBJECTS">
	<path style="fill:#D5F0F0;" d="M49.496,311.851c11.512,10.923,25.341,21.946,30.503,37.572
		c9.289,28.137-36.105,67.366-0.761,87.906c8.309,4.829,18.202,6.054,27.805,6.412c53.099,1.981,106.218,3.484,159.442,2.849
		c51.065-0.609,105.876,1.855,156.365-6.378c72.539-11.83,73.919-130.728,8.512-154.646c-16.729-6.118-34.234-6.087-51.432-8.542
		c-12.524-1.787-27.503-8.083-30.305-25.33c-2.423-14.916,5.865-28.462,11.342-41.684c19.998-48.276,4.896-113.459-45.011-136.63
		c-17.189-7.98-35.472-10.037-53.567-10.777c-60.042-2.455-120.395,17.23-167.737,54.175
		c-49.042,38.271-88.479,99.83-68.035,163.881C30.521,292.897,39.705,302.561,49.496,311.851z"/>
	<g>
		<g>
			<g>
				<g>
					<path style="fill:#3A3F73;" d="M304.396,216.516c1.207-3.528,3.305-7.398,6.981-8.024c3.916-0.668,7.25,2.683,9.805,5.725
						c-0.511-5.531-0.156-11.14,1.047-16.562c0.776-3.498,2.517-7.488,6.047-8.104c1.959-0.342,3.92,0.504,5.662,1.462
						c5.6,3.082,10.415,7.576,13.875,12.951c0.986-7.841,1.972-15.682,2.958-23.523c0.459-3.652,1.194-7.766,4.268-9.79
						c2.576-1.696,6.096-1.294,8.798,0.193s4.764,3.884,6.765,6.23c0.945-6.583,3.626-12.908,7.699-18.168
						c4.973-6.421,14.833-1.614,18.84,3.589c3.494,4.537,5.386,10.283,5.273,16.008c-0.223,11.309-7.758,20.983-14.934,29.727
						c3.172-0.272,5.96,2.675,6.406,5.827c0.447,3.152-0.927,6.302-2.763,8.904c-4.824,6.836-12.62,10.833-20.105,14.57
						c5.209,0.907,7.155,8.052,4.808,12.791c-8.338,16.835-40.805,22.278-57.198,22.795c-4.621,0.146-10.143-0.502-13.99-3.309
						c-4.862-3.547-3.32-7.49-3.538-12.827C300.542,243.321,299.893,229.671,304.396,216.516z"/>
					<path style="fill:#373C8A;" d="M382.939,188.83c0,0-51.849,67.684-92.377,94.611c-1.786,1.187-4.184,0.788-5.511-0.896l0,0
						c-1.428-1.812-1.092-4.44,0.744-5.837C296.501,268.557,332.102,240.356,382.939,188.83z"/>
				</g>
				<path style="fill:#5F82F7;" d="M455.807,158.915c-9.283,4.627-20.318,3.917-30.074,7.312
					c-6.089,2.119-12.104,5.367-14.235,11.975c-0.062,0.192-0.05,0.357-0.01,0.509c-2.06,1.656-4.088,3.352-6.098,5.066
					c-0.689-9.2,7.081-15.626,12.136-22.421c3.97-5.336,6.323-11.419,7.215-18.049c0.129-0.962-1.196-1.807-1.704-0.735
					c-6.68,14.093-28.547,24.623-19.557,42.86c-3.363,2.921-6.635,5.942-9.852,9.021c-3.677-3.322-0.901-14.239,0.063-17.623
					c1.367-4.798,3.357-9.363,5.018-14.054c2.831-7.995,4.668-16.468,1.654-24.683c-0.307-0.838-1.543-0.971-1.798,0
					c-1.792,6.81-4.146,13.412-7.213,19.735c-2.462,5.076-5.373,9.985-7.038,15.422c-1.317,4.3-1.789,9.039-0.645,13.441
					c1.188,4.569,4.051,7.298,7.383,10.231c-3.82,3.751-7.52,7.624-11.119,11.59c-5.898-10.152-3.041-21.996-0.6-32.884
					c1.84-8.205,3.802-17.344-1.122-24.833c-0.532-0.809-1.659-0.467-1.738,0.481c-1.121,13.585-8.362,25.585-9.593,39.037
					c-0.737,8.054,1.828,18.875,10.41,21.145c-4.424,5.014-8.659,10.198-12.719,15.521c0.846-9.39-2.847-16.704-5.999-25.654
					c-4.037-11.461-1.337-23.24,2.085-34.47c0.267-0.876-0.951-1.667-1.558-0.928c-6.832,8.309-10.545,18.835-9.699,29.744
					c0.397,5.114,1.733,10.164,3.949,14.769c1.461,3.037,3.516,5.715,4.986,8.74c1.659,3.412,2.734,7.199,3.96,10.809
					c-2.687,3.623-5.263,7.331-7.777,11.084c0.822-4.078,1.407-8.232,0.78-12.378c-0.694-4.586-2.825-8.713-5.082-12.675
					c-6.193-10.874-10.236-21.281-9.134-34.127c0.095-1.102-1.538-1.249-1.832-0.254c-1.657,5.609-3.856,11.348-4.354,17.227
					c-0.48,5.67,1.085,11.384,2.811,16.717c1.697,5.243,4.62,8.925,7.567,13.431c3.285,5.023,4.823,10.831,6.233,16.625
					c-9.118,14.196-17.008,29.241-23.487,44.983c-0.465,1.13,1.339,1.623,1.798,0.507c3.345-8.126,7.084-16.082,11.188-23.835
					c2.048-3.87,4.188-7.69,6.414-11.457c1.548-2.62,2.987-5.196,4.737-7.68c0.573-0.814,3.974-6.944,4.441-6.827
					c17.77,4.424,38.843,23.515,56.663,8.741c0.672-0.557,0.074-1.594-0.659-1.628c-11-0.516-21.26-3.234-31.329-7.706
					c-7.543-3.35-15.015-2.677-22.991-1.91c1.768-2.555,3.569-5.086,5.419-7.579c0.229-0.062,0.434-0.197,0.553-0.392
					c0.058,0.027,0.102,0.065,0.172,0.081c12.13,2.637,24.357,6.057,36.666,7.655c9.635,1.251,19.839-0.041,26.759-7.636
					c0.495-0.543,0.196-1.73-0.659-1.628c-12.44,1.48-23.546-1.733-35.596-4.212c-8.175-1.681-16.574-2.111-24.265,1.34
					c3.621-4.667,7.384-9.218,11.288-13.641c0.076,0.022,0.145,0.053,0.235,0.055c9.985,0.276,18.926,5.916,28.931,6.644
					c9.061,0.659,18.004-1.33,26.134-5.402c0.804-0.403,0.447-1.879-0.471-1.777c-10.725,1.187-20.69-1.927-31.043-4.212
					c-6.725-1.484-13.56-2.003-19.933,0.401c3.056-3.321,6.188-6.57,9.4-9.736c0.047,0.045,0.078,0.096,0.138,0.134
					c8.538,5.496,18.79,5.993,28.602,5.258c8.517-0.638,17.226-2.665,23.098-9.455c0.561-0.648,0.033-1.957-0.907-1.594
					c-8.829,3.408-18.047,3.143-27.3,2.307c-5.879-0.531-13.615-2.661-19.554-0.573c2.95-2.791,5.941-5.538,9.011-8.196
					c0.235-0.085,0.435-0.253,0.557-0.484c0.704-0.606,1.392-1.229,2.102-1.828c0.117,0.013,0.244,0.004,0.382-0.041
					c4.954-1.605,8.443,1.999,12.557,4.016c2.298,1.127,4.739,1.792,7.269,2.089c7.265,0.855,14.328-1.474,21.139-3.768
					c0.809-0.273,0.962-1.648,0-1.839c-11.805-2.348-25.273-6.79-37.346-3.727c0.881-0.715,1.746-1.451,2.636-2.155
					c14.53-5.535,32.775-4.744,42.828-18.712C457.687,159.38,456.556,158.542,455.807,158.915z"/>
			</g>
		</g>
		<g>
			<g>
				<g>
					<path style="fill:#3A3F73;" d="M213.019,216.516c-1.208-3.528-3.305-7.398-6.981-8.024c-3.916-0.668-7.25,2.683-9.805,5.725
						c0.511-5.531,0.156-11.14-1.047-16.562c-0.777-3.498-2.517-7.488-6.047-8.104c-1.959-0.342-3.92,0.504-5.662,1.462
						c-5.6,3.082-10.415,7.576-13.875,12.951c-0.986-7.841-1.972-15.682-2.958-23.523c-0.459-3.652-1.194-7.766-4.268-9.79
						c-2.576-1.696-6.096-1.294-8.798,0.193s-4.764,3.884-6.765,6.23c-0.945-6.583-3.626-12.908-7.699-18.168
						c-4.973-6.421-14.833-1.614-18.84,3.589c-3.494,4.537-5.386,10.283-5.274,16.008c0.223,11.309,7.758,20.983,14.934,29.727
						c-3.172-0.272-5.959,2.675-6.406,5.827c-0.447,3.152,0.927,6.302,2.762,8.904c4.824,6.836,12.62,10.833,20.105,14.57
						c-5.209,0.907-7.155,8.052-4.808,12.791c8.338,16.835,40.805,22.278,57.198,22.795c4.621,0.146,10.143-0.502,13.99-3.309
						c4.862-3.547,3.32-7.49,3.538-12.827C216.873,243.321,217.522,229.671,213.019,216.516z"/>
					<path style="fill:#373C8A;" d="M134.476,188.83c0,0,51.849,67.684,92.377,94.611c1.786,1.187,4.184,0.788,5.511-0.896l0,0
						c1.428-1.812,1.091-4.44-0.744-5.837C220.914,268.557,185.314,240.356,134.476,188.83z"/>
				</g>
				<path style="fill:#5F82F7;" d="M60.332,160.22c10.052,13.968,28.297,13.177,42.828,18.712c0.89,0.704,1.755,1.44,2.636,2.155
					c-12.074-3.063-25.542,1.379-37.346,3.727c-0.962,0.191-0.809,1.567,0,1.839c6.811,2.294,13.874,4.623,21.139,3.768
					c2.529-0.298,4.971-0.963,7.269-2.089c4.114-2.017,7.603-5.622,12.557-4.016c0.138,0.045,0.265,0.054,0.382,0.041
					c0.71,0.599,1.398,1.222,2.102,1.828c0.122,0.231,0.322,0.399,0.557,0.484c3.07,2.658,6.061,5.405,9.011,8.196
					c-5.939-2.089-13.675,0.042-19.554,0.573c-9.254,0.836-18.472,1.102-27.3-2.307c-0.94-0.363-1.468,0.946-0.907,1.594
					c5.872,6.79,14.581,8.817,23.098,9.455c9.812,0.735,20.064,0.238,28.602-5.258c0.06-0.038,0.091-0.09,0.138-0.134
					c3.212,3.166,6.344,6.415,9.4,9.736c-6.372-2.404-13.208-1.885-19.933-0.401c-10.354,2.285-20.319,5.399-31.043,4.212
					c-0.918-0.102-1.274,1.375-0.471,1.777c8.13,4.072,17.074,6.061,26.134,5.402c10.005-0.728,18.945-6.368,28.93-6.644
					c0.09-0.003,0.159-0.034,0.235-0.055c3.904,4.423,7.667,8.975,11.288,13.641c-7.691-3.451-16.089-3.021-24.265-1.34
					c-12.05,2.478-23.156,5.692-35.596,4.212c-0.856-0.102-1.154,1.085-0.659,1.628c6.92,7.595,17.123,8.887,26.759,7.636
					c12.309-1.598,24.536-5.018,36.666-7.655c0.071-0.015,0.114-0.054,0.172-0.081c0.12,0.195,0.324,0.331,0.553,0.392
					c1.85,2.493,3.651,5.024,5.419,7.579c-7.976-0.767-15.448-1.44-22.991,1.91c-10.068,4.471-20.329,7.19-31.329,7.706
					c-0.733,0.034-1.331,1.071-0.659,1.628c17.82,14.774,38.893-4.317,56.663-8.741c0.467-0.116,3.868,6.014,4.441,6.827
					c1.75,2.484,3.189,5.06,4.737,7.68c2.226,3.766,4.365,7.586,6.414,11.457c4.104,7.754,7.843,15.709,11.188,23.835
					c0.459,1.116,2.263,0.623,1.798-0.507c-6.479-15.742-14.37-30.786-23.487-44.983c1.41-5.795,2.948-11.603,6.233-16.625
					c2.947-4.506,5.87-8.188,7.567-13.431c1.726-5.333,3.291-11.047,2.811-16.717c-0.498-5.878-2.697-11.618-4.354-17.227
					c-0.294-0.995-1.926-0.849-1.832,0.254c1.102,12.846-2.941,23.253-9.134,34.127c-2.257,3.962-4.388,8.089-5.082,12.675
					c-0.627,4.147-0.042,8.3,0.78,12.378c-2.514-3.752-5.089-7.461-7.777-11.084c1.225-3.609,2.3-7.397,3.96-10.809
					c1.471-3.025,3.525-5.703,4.986-8.74c2.216-4.605,3.552-9.654,3.949-14.769c0.846-10.908-2.867-21.435-9.699-29.744
					c-0.607-0.739-1.825,0.052-1.559,0.928c3.422,11.229,6.122,23.008,2.085,34.47c-3.153,8.95-6.845,16.263-5.999,25.654
					c-4.06-5.323-8.295-10.507-12.719-15.521c8.582-2.27,11.147-13.091,10.41-21.145c-1.231-13.452-8.471-25.451-9.593-39.037
					c-0.078-0.948-1.205-1.291-1.737-0.481c-4.924,7.489-2.961,16.628-1.122,24.833c2.441,10.888,5.297,22.732-0.6,32.884
					c-3.6-3.966-7.299-7.839-11.119-11.59c3.333-2.934,6.196-5.662,7.383-10.231c1.144-4.402,0.672-9.141-0.645-13.441
					c-1.665-5.438-4.576-10.346-7.038-15.422c-3.066-6.323-5.421-12.926-7.213-19.735c-0.256-0.971-1.491-0.838-1.798,0
					c-3.013,8.216-1.177,16.689,1.654,24.683c1.662,4.691,3.651,9.256,5.018,14.054c0.964,3.383,3.74,14.301,0.063,17.623
					c-3.217-3.079-6.49-6.1-9.852-9.021c8.99-18.237-12.877-28.767-19.557-42.86c-0.508-1.072-1.834-0.227-1.704,0.735
					c0.891,6.629,3.245,12.712,7.215,18.049c5.055,6.795,12.825,13.221,12.136,22.421c-2.011-1.714-4.038-3.41-6.098-5.066
					c0.04-0.152,0.052-0.317-0.01-0.509c-2.131-6.608-8.146-9.856-14.235-11.975c-9.756-3.395-20.791-2.685-30.074-7.312
					C60.859,158.542,59.728,159.38,60.332,160.22z"/>
			</g>
		</g>
	</g>
	<g>
		<g>
			<path style="fill:#27274D;" d="M250.102,168.283c-1.245-2.39-1.719-4.354-1.993-7.059c-0.54-5.341-0.681-10.757-0.373-16.117
				c0.668-11.616,3.568-24.823,13.302-32.302c20.312-15.608,65.218-32.429,72.803-18.347c2.318,4.303,3.219,9.261,3.353,14.073
				c0.236,8.466-1.87,16.87-5.931,24.293c-3.818,6.979-10.099,7.378-15.106,12.902c-3.149,3.474-3.173,9.199-6.83,12.134
				c-4.862,3.903-12.57,0.284-18.097,3.17c-4.667,2.437-6.498,8.884-11.497,10.535c-5.543,1.831-13.329-1.985-16.797,4.878
				c-0.506,1.001-1.012,2.335-2.133,2.361c-0.683,0.016-1.244-0.508-1.723-0.996C257.482,176.177,250.102,170.731,250.102,168.283z"
				/>
			<g>
				<path style="fill:#FFB791;" d="M167.496,167.607l0.134,0.636l0.401,1.741v0.034l0.502,2.076v0.033l0.402,1.742v0.033l0.57,2.478
					l1.172,1.005c0.302,0.268,0.603,0.569,0.871,0.871v0.034c1.507,1.708,2.612,4.018,3.617,6.061l31.78,65.067
					c1.708,3.516,5.257,5.76,9.142,5.76c0.234,0,0.502,0,0.737-0.033c2.444-0.201,4.755-1.239,6.496-2.98l6.899-6.899
					c1.54-1.574,3.215-3.048,4.856-4.588c5.291-4.789,11.018-10.85,16.61-17.213c2.378-2.712,4.755-5.492,7.033-8.238
					c1.005-1.172,1.976-2.378,2.946-3.55c10.951-13.462,19.691-25.752,20.663-28.197c-2.11,2.612-4.387,2.846-7.669,2.344
					c-0.637-0.1-2.277-0.603-4.722-1.373c-3.249-1.038-7.87-2.578-13.328-4.42l-13.295,16.778l-11.486,14.467l-14.969,18.887
					l-35.531-48.223c-1.373-1.942-2.913-3.884-3.951-6.028l0.402-0.938v-0.033l0.167-0.435l0.436-1.072l1.574-3.851l-3.181-2.244
					l-1.842,3.382l-5.659-2.378l-1.206-0.502L167.496,167.607z"/>
				<path style="fill:#DB776E;" d="M231.826,211.276c3.416,5.325,9.946,12.625,19.858,12.19c2.378-2.712,4.755-5.492,7.033-8.238
					l11.218-30.776c-3.249-1.038-7.87-2.578-13.328-4.42l-13.295,16.778L231.826,211.276z"/>
				<path style="fill:#9D236C;" d="M278.612,164.439c0,0-16.103-4.334-46.808,37.637c0,0,8.519,21.47,26.937,16.866L278.612,164.439
					z"/>
			</g>
			<path style="fill:#FFB791;" d="M232.742,346.703c0,0,0,0,0-0.018c1.018-8.884,2.762-17.66,5.196-26.235
				c3.67-12.918,8.939-25.4,15.752-37.082c3.814-6.521,7.829-12.951,12.043-19.236h-0.003c-1.378-9.986-20.173-56.613-19.166-62.101
				c0.814-4.418,7.566-14.255,10.812-18.79c0.841-1.172,1.288-2.576,1.288-3.971c0-0.447-0.045-0.885-0.143-1.332
				c-0.644-3.202,1.109-6.421,4.123-7.575l1.556-0.528l0.45-0.183c1.892-0.769,3.895-1.188,5.923-1.426
				c3.725-0.437,7.572-2.322,9.483-3.819l0.796-0.277c1.028-0.358,2.084-0.644,3.139-0.859c4.024-0.832,8.174-0.671,12.145,0.456
				c1.055,0.304,2.093,0.662,3.103,1.1l2.379,1.02l10.079,4.293l0.286,0.125l0.143,0.063l0.241,0.098l0.107,0.045l0.134,0.063
				l0.608,0.259c7.95,4.516,8.916,7.315,8.138,11.966c-0.748,4.472-23.6,61.687-26.292,81.372l20.473,26.595
				c8.43,10.955,13.099,23.964,14.081,37.409c0.618,8.466-0.218,17.115-2.489,25.508c-0.018,0.036-0.018,0.091-0.036,0.127
				l-1.781,6.522h-93.586C231.87,355.733,232.215,351.209,232.742,346.703z"/>
			<g>
				<path style="fill:#F4EFEC;" d="M242.198,306.695c4.763,3.319,9.526,6.023,14.29,8.113c20.959,9.189,42.133,6.515,63.799-6.853
					l4.057-2.52c-6.146-14.567-15.182-27.751-26.583-38.691l-2.704-2.612c2.704-19.699,25.538-76.891,26.307-81.378
					c0.768-4.641-0.185-7.437-8.144-11.955l-0.615-0.276l-0.123-0.062l-0.123-0.031l-0.154-0.061l-0.092-0.031l-0.123-0.061
					l-0.308-0.123l-10.049-4.302l-2.397-1.014c-1.014-0.461-2.059-0.799-3.104-1.106c-3.964-1.137-8.113-1.291-12.139-0.461
					c-0.86,0.185-1.813,0.338-2.643,0.615c-0.922,0.338-1.721,1.014-2.674,1.383c-2.766,1.014-5.593,1.721-8.42,2.52
					c-0.031,0-0.031,0-0.031,0c-1.721,0.461-3.442,0.953-5.132,1.567c-1.967,0.676-3.965,1.414-5.255,3.104
					c-1.229,1.537-1.69,3.565-1.322,5.47c0.092,0.461,0.153,0.891,0.153,1.352c0,1.383-0.461,2.797-1.291,3.964
					c-0.522,0.707-1.014,1.445-1.537,2.182c-0.492,0.707-0.984,1.414-1.444,2.12c-0.123,0.184-0.246,0.338-0.369,0.522
					c-0.768,1.168-1.567,2.366-2.335,3.565c-0.061,0.092-0.123,0.215-0.185,0.307c-0.061,0.092-0.123,0.215-0.184,0.307
					c-0.768,1.229-1.537,2.489-2.182,3.718c-0.031,0.061-0.062,0.154-0.123,0.215c-0.338,0.553-0.614,1.137-0.891,1.659
					c-0.061,0.123-0.092,0.215-0.123,0.338c-0.215,0.43-0.43,0.86-0.584,1.26c-0.061,0.154-0.123,0.277-0.184,0.4
					c-0.123,0.277-0.246,0.553-0.307,0.861c-0.184,0.492-0.307,0.922-0.369,1.322c-0.062,0.399-0.031,1.014,0.092,1.813
					c0.215,1.444,0.707,3.473,1.414,5.931l0.676,2.213c0.154,0.461,0.308,0.953,0.431,1.444c0,0.031,0,0.031,0.03,0.061
					c5.009,16.042,15.52,43.301,16.534,50.646c-0.061,0.092-1.383,1.998-3.165,4.579c-6.392,9.25-11.924,19.053-16.503,29.318
					L242.198,306.695z"/>
				<path style="fill:#FFB791;" d="M267.92,192.803c2.613,1.905,6.146,1.936,9.404,1.813c3.288-0.123,6.638-0.369,9.803-1.321
					c7.56-2.243,14.844-8.728,20.253-15.735c1.844-2.397,3.473-4.825,4.825-7.191l-0.092-0.031l-0.123-0.061l-0.308-0.123
					l-10.049-4.302l-2.397-1.014c-1.014-0.461-2.059-0.799-3.104-1.106c-3.964-1.137-8.113-1.291-12.139-0.461
					c-0.86,0.185-1.813,0.338-2.643,0.615c-0.922,0.338-1.721,1.014-2.674,1.383c-2.766,1.014-5.624,1.721-8.451,2.52
					c-2.059,3.165-3.688,6.577-4.825,10.172C263.772,183.061,263.556,189.637,267.92,192.803z"/>
				<path style="fill:#FFB791;" d="M281.449,184.853c6.501-0.395,13.167-1.942,18.849-5.221c2.327-1.343,4.756-3.15,6.262-5.418
					c1.816-2.735-0.577-3.233-2.692-4.735c-3.784-2.687-7.512-6.441-8.065-11.277c-0.385-3.363-0.34-6.359-0.107-8.863
					c0.483-5.276,1.815-8.424,1.815-8.424l-10.732-1.645l-3.577,5.67c0,0,3.845,5.661,3.202,10.732
					c-0.098,0.769-0.277,1.619-0.554,2.504c-0.867,2.71-3.184,6.528-6.859,9.399c-1.115,0.871-2.275,1.702-3.53,2.361
					c-0.981,0.516-2.977,0.731-3.731,1.431c-1.962,1.823-2.216,7.919-0.823,10.072C272.891,184.509,278.275,185.046,281.449,184.853
					z"/>
				<path style="fill:#9D236C;" d="M280.766,208.322c0.707-12.692,23.756-41.242,23.756-41.242l7.16,3.073l0.308,0.123l0.123,0.061
					l0.092,0.031l0.154,0.061l0.123,0.031l0.123,0.062l0.615,0.276c7.96,4.518,8.913,7.314,8.144,11.955
					c-0.277,1.567-3.227,9.557-7.069,20.098l-14.905,61.525c39.275,34.604,32.545,71.083,32.545,71.083
					c-14.229,13.061-45.698,5.808-45.698,5.808s-0.43-8.482-1.076-21.174C283.44,284.998,280.274,217.634,280.766,208.322z"/>
				<path style="fill:#9D236C;" d="M231.226,326.087c2.274,9.342,19.269,10.664,19.269,10.664l5.993-21.942l13.553-49.509
					c0,0-12.108-50.984-13.153-60.449c-0.952-8.882,19.484-36.694,21.789-39.583c0,0-7.898,2.643-8.42,2.52
					c-0.031,0-0.031,0-0.031,0c-1.721,0.461-3.442,0.953-5.132,1.567c-1.967,0.676-3.965,1.414-5.255,3.104
					c-1.229,1.537-1.69,3.565-1.322,5.47c0.092,0.461,0.153,0.891,0.153,1.352c0,1.383-0.461,2.797-1.291,3.964
					c-0.522,0.707-1.014,1.445-1.537,2.182c-0.492,0.707-0.984,1.414-1.444,2.12c-0.123,0.184-0.246,0.338-0.369,0.522
					c-0.768,1.168-1.567,2.366-2.335,3.565c-0.061,0.092-0.123,0.215-0.185,0.307c-0.061,0.092-0.123,0.215-0.184,0.307
					c-0.768,1.229-1.475,2.489-2.182,3.718c-0.031,0.061-0.062,0.154-0.123,0.215c-0.338,0.553-0.614,1.137-0.891,1.659
					c-0.061,0.123-0.092,0.215-0.123,0.338c-0.215,0.43-0.43,0.86-0.584,1.26c-0.061,0.154-0.123,0.277-0.184,0.4
					c-0.123,0.277-0.246,0.553-0.307,0.861c-0.184,0.492-0.307,0.922-0.369,1.322c-0.062,0.399-0.031,1.014,0.092,1.813
					c0.215,1.444,0.707,3.473,1.414,5.931l0.676,2.213c0.154,0.461,0.308,0.953,0.431,1.444c0,0.031,0,0.031,0.03,0.061
					c0.4,1.383,0.799,2.797,1.229,4.149c1.352,4.641,2.735,9.25,4.118,13.891c1.598,5.409,3.196,10.848,4.825,16.257
					c1.26,4.303,2.52,8.574,3.78,12.846c0.4,1.291,0.768,2.612,1.168,3.903C246.93,284.107,231.226,326.087,231.226,326.087z"/>
			</g>
			<path style="fill:#9D236C;" d="M277.17,168.893c0,0-0.092,0.092-0.215,0.277l0.215,0.031V168.893z"/>
			<path style="fill:#27274D;" d="M262.707,54.978c0,0-15.553,7.431-17.233,20.735c-1.68,13.304,12.067,26.791,15.988,32.533
				l8.379-31.413C269.84,76.833,287.222,50.067,262.707,54.978z"/>
			<path style="fill:#DB776E;" d="M286.38,155.665c-0.098,0.769-0.277,1.619-0.554,2.504c3.667-1.503,7.199-5.321,9.846-8.836
				c0.483-5.276,1.815-8.424,1.815-8.424l-10.732-1.645l-3.577,5.67C283.178,144.934,287.024,150.595,286.38,155.665z"/>
			<path style="fill:#FFB791;" d="M250.792,116.501c3.841-11.309,2.657-8.04,2.975-28.104c0.279-17.556,12.597-25.044,15.672-26.642
				c0.574-0.298,1.139-0.618,1.697-0.945c7.404-4.34,14.927-5.799,21.074-6.06c9.286-0.394,18.519,2.236,26.143,7.553
				c20.72,14.449,14.736,38.206,14.736,38.206s-5.753,48.896-46.185,51.995C247.008,155.562,246.951,127.81,250.792,116.501z"/>
			<path style="fill:#323245;" d="M264.202,100.653c0,0-7.28-5.419-11.16,1.257C253.042,101.91,256.125,91.607,264.202,100.653z"/>
			<path style="fill:#323245;" d="M287.666,100.564c0,0,11.978-4.481,17.6,2.665C305.266,103.229,301.197,92.569,287.666,100.564z"
				/>
			<path style="fill:#DB776E;" d="M285.083,150.298c40.431-3.099,46.185-51.995,46.185-51.995s4.134-16.466-6.436-30.319
				c12.858,14.243,8.257,32.525,8.257,32.525s-5.753,48.896-46.185,51.995c-18.233,1.397-28.142-3.641-33.164-10.602
				C259.202,147.681,268.841,151.543,285.083,150.298z"/>
			
				<linearGradient id="SVGID_1_" gradientUnits="userSpaceOnUse" x1="262.8639" y1="147.4837" x2="273.224" y2="145.3671" gradientTransform="matrix(1.1063 0.192 -0.1915 0.9825 -1.9007 -77.603)">
				<stop  offset="0.0514" style="stop-color:#DB5C82"/>
				<stop  offset="1" style="stop-color:#DB5C82;stop-opacity:0"/>
			</linearGradient>
			<path style="fill:url(#SVGID_1_);" d="M276.664,108.639c0,0-19.898,10.317-14.411,15.076c5.487,4.759,13.881,3.047,14.138,0.286
				C276.648,121.241,276.664,108.639,276.664,108.639z"/>
			<path style="fill:#E05757;" d="M265.151,134.965c0,0-4.226-3.348,0.386-3.76c4.612-0.412,11.484,4.083,16.041,1.927
				c0,0-4.14,6.599-11.621,6.29S265.151,134.965,265.151,134.965z"/>
			<path style="fill:#27274D;" d="M335.589,69.27c-6.72-10.724-17.761-17.229-30.039-19.557c-5.645-1.07-11.437-1.312-17.165-0.957
				c-2.266,0.141-4.193,0.353-5.835,0.718c-0.493-0.008-0.984-0.043-1.479-0.032c-6.289,0.149-13.105,0.867-18.999,3.72
				c-5.243,2.538-9.657,6.397-14.089,10.009c-4.09,3.333-5.588,9.669-3.219,14.416c2.007,4.021,6.18,6.574,10.485,7.865
				c4.305,1.291,8.843,1.522,13.293,2.148c1.098,0.155,2.204,0.337,3.26,0.664c0.402,0.125,0.797,0.271,1.182,0.444
				c2.217,0.999,3.941,2.836,6.022,4.094c2.421,1.463,5.328,2.104,8.139,1.795c1.496-0.164,2.958-0.588,4.46-0.698
				c1.501-0.11,3.12,0.142,4.241,1.146c0.769-0.832,0.547-2.243-0.201-3.094c-0.749-0.851-1.871-1.261-2.961-1.567
				c-0.849-0.238-1.727-0.441-2.469-0.918s-1.333-1.303-1.251-2.181c0.101-1.074,1.184-1.84,2.256-1.958
				c1.072-0.118,2.13,0.254,3.145,0.621c2.099,0.758,4.197,1.516,6.295,2.274c0.689,0.249,1.375,0.506,2.058,0.772
				c3.118,2.554,5.645,5.666,6.027,9.475c0.683,6.809-7.081,12.058-5.763,18.615c0.876,4.357,7.307,6.715,6.599,11.103
				c-0.625,3.873-6.564,5.324-6.741,9.243c-0.123,2.716,3.91,6.171,5.997,7.647c-0.838-2.274-0.13-5.029,1.968-6.37
				c2.364-1.511,5.977-1.158,7.437-3.553c1.819-2.982-1.514-7.572,0.908-10.088c0.73-0.759,1.826-1.078,2.564-1.829
				c1.446-1.472,0.999-3.86,1.029-5.923c0.02-1.381,0.698-3.295,1.609-4.843c0.515,0.028,0.991,0.29,1.337,1.169
				c0.445,1.131,0.129,2.398-0.107,3.59c-0.461,2.322-0.601,4.708-0.415,7.068c0.019,0.24,0.044,0.49,0.173,0.693
				c0.395,0.624,1.309,0.356,1.957-0.056c-0.102,1.019-0.135,2.046,0.026,3.089c0.208,1.344,1.164,2.777,1.237,4.084
				c0.013,0.235-0.722,3.784-0.72,3.783c3.12-1.882,4.837-5.165,6.458-8.292C343.701,109.475,346.92,87.352,335.589,69.27z"/>
			<path style="fill:#DB776E;" d="M328.561,132.145c-1.551,1.176-3.128,1.791-4.465,1.551c-2.433-0.428-4.197-1.23-5.4-2.379
				c-0.321-2.299-1.069-4.678,0.454-6.256c0.722-0.748,1.818-1.069,2.566-1.818c1.444-1.47,0.989-3.876,1.016-5.935
				c0.027-1.577,0.909-3.903,2.032-5.507c1.069-0.588,2.246-1.043,3.582-1.257c1.31-0.241,2.753-0.241,4.358,0.053
				C341.901,112.281,335.191,127.172,328.561,132.145z"/>
			<path style="fill:#2F2F70;" d="M318.841,59.335c1.699,0.972,3.285,2.143,4.69,3.506c1.973,1.915,3.854,3.952,5.312,6.282
				c1.837,2.935,2.954,6.252,4.056,9.534c-0.442-1.316-1.573-2.244-2.344-3.347c-0.788-1.125-1.919-1.989-3.026-2.811
				c-2.481-1.842-5.219-3.299-7.941-4.745c2.275,2.144,3.945,4.874,5.103,7.777c0.556,1.394,1.004,2.886,0.836,4.377
				c-0.168,1.491-1.083,2.981-2.514,3.435c-1.567,0.496-3.432-0.345-4.949-0.749c-1.683-0.448-3.346-0.969-4.978-1.577
				c-1.628-0.606-3.225-1.297-4.774-2.082c-0.75-0.38-1.489-0.783-2.215-1.209c-0.486-0.285-1.886-0.847-2.136-1.347
				c1.501,2.997,3.429,5.78,5.708,8.238c-3.351,0.563-7.292-1.204-10.255-2.687c-2.998-1.501-5.659-3.594-8.184-5.801
				c-1.696-1.483-3.366-3.071-4.577-4.988c-1.06-1.677-2.456-4.504-1.502-6.46c0.528-1.083,1.67-1.768,2.849-2.015
				s2.403-0.111,3.592,0.081c4.164,0.673,8.261,2.033,12.477,1.927c0.195-0.005,0.402-0.017,0.559-0.132
				c0.235-0.172,0.272-0.509,0.243-0.799c-0.191-1.95-2.287-3.525-1.906-5.447c0.189-0.954,0.99-1.698,1.891-2.067
				c0.9-0.369,1.896-0.421,2.868-0.434c1.461-0.02,2.518,0.409,3.906,0.727c1.493,0.343,2.957,0.815,4.37,1.41
				C316.973,58.342,317.923,58.81,318.841,59.335z"/>
			<path style="fill:#27274D;" d="M248.561,138.358c3.611,1.769,7.495,6.371,10.908,8.98c4.216,3.223,8.252,6.825,11.072,11.32
				c2.82,4.496,4.33,10.01,3.18,15.191c-1.281,5.771-5.711,10.829-5.421,16.733c0.197,4.015,2.607,7.758,2.355,11.77
				c-0.334,5.315-5.07,9.128-9.396,12.234c0.296-7.568-5.034-14.074-7.369-21.279c-0.811-2.503-1.263-5.115-2.137-7.598
				c-1.446-4.108-4.165-8.058-4.694-12.447c-0.428-3.551-0.377-7.04-0.781-10.664C245.463,155.307,245.517,145.134,248.561,138.358z
				"/>
			<path style="fill:#323245;" d="M253.042,106.806h5.091c1.348,0,2.441,2.274,2.441,5.078c0,2.805-1.093,5.079-2.441,5.079
				c-1.349,0-2.442-2.274-2.442-5.079c0-1.342,0.252-2.559,0.661-3.467L253.042,106.806z"/>
			<path style="fill:#323245;" d="M287.865,107.768h5.091c1.348,0,2.441,2.274,2.441,5.078c0,2.805-1.093,5.079-2.441,5.079
				c-1.349,0-2.442-2.274-2.442-5.079c0-1.342,0.252-2.559,0.661-3.467L287.865,107.768z"/>
			<path style="fill:#FF7893;" d="M249.071,120.828c0,1.247,2.753,2.258,6.148,2.258c3.396,0,6.148-1.011,6.148-2.258
				c0-1.247-2.753-2.258-6.148-2.258C251.824,118.57,249.071,119.581,249.071,120.828z"/>
			<path style="fill:#FF7893;" d="M293.234,121.7c0,1.247,2.753,2.258,6.148,2.258c3.396,0,6.148-1.011,6.148-2.258
				c0-1.247-2.753-2.258-6.148-2.258C295.987,119.442,293.234,120.453,293.234,121.7z"/>
			<g>
				<path style="fill:#FE912D;" d="M251.545,154.099c2.932-2.858,1.314-7.837-2.738-8.425l-30.289-4.401
					c-1.609-0.234-3-1.244-3.719-2.702l-13.546-27.447c-1.812-3.671-7.047-3.671-8.859,0l-13.546,27.447
					c-0.719,1.458-2.11,2.468-3.719,2.702l-30.289,4.401c-4.051,0.589-5.669,5.568-2.738,8.425l21.918,21.364
					c1.164,1.135,1.695,2.77,1.421,4.372l-5.174,30.167c-0.692,4.035,3.543,7.112,7.167,5.207l27.092-14.243
					c1.439-0.757,3.158-0.757,4.597,0l27.092,14.243c3.624,1.905,7.859-1.172,7.167-5.207l-5.174-30.167
					c-0.275-1.602,0.257-3.237,1.421-4.372L251.545,154.099z"/>
				<path style="fill:#FFAC0E;" d="M163.923,188.687c1.59,0.085,3.192,0.143,4.813,0.143c34.553,0,62.564-19.737,62.564-44.083
					c0-0.545-0.03-1.085-0.058-1.625l-12.723-1.849c-1.609-0.234-3-1.244-3.719-2.702l-13.546-27.447
					c-1.812-3.671-7.047-3.671-8.859,0l-13.546,27.447c-0.719,1.458-2.11,2.468-3.719,2.702l-30.29,4.401
					c-4.051,0.589-5.669,5.568-2.737,8.425l21.918,21.364c1.164,1.135,1.695,2.77,1.421,4.372L163.923,188.687z"/>
			</g>
		</g>
		<g>
			<g>
				<path style="fill:#A1B5DD;" d="M425.088,243.607H92.327c-6.706,0-12.143,5.437-12.143,12.143v183.504
					c0,6.706,5.437,12.143,12.143,12.143h332.761c6.706,0,12.143-5.437,12.143-12.143V255.75
					C437.231,249.043,431.795,243.607,425.088,243.607z"/>
				<path style="fill:#353576;" d="M425.088,243.607H92.327c-6.706,0-12.143,5.437-12.143,12.143v19.973h357.047V255.75
					C437.231,249.043,431.795,243.607,425.088,243.607z"/>
				<g>
					<circle style="fill:#FFFFFF;" cx="100.849" cy="258.266" r="7.035"/>
					<circle style="fill:#FFFFFF;" cx="127.919" cy="258.266" r="7.035"/>
					<circle style="fill:#FFFFFF;" cx="154.988" cy="258.266" r="7.035"/>
				</g>
			</g>
			<g>
				<path style="fill:#788ACF;" d="M408.78,304.904H119.92c-4.032,0-7.3,3.268-7.3,7.3v110.321c0,4.032,3.268,7.3,7.3,7.3h288.86
					c4.032,0,7.3-3.269,7.3-7.3V312.204C416.08,308.172,412.811,304.904,408.78,304.904z"/>
				<path style="fill:#FEFFFF;" d="M399.899,296.023h-288.86c-4.032,0-7.3,3.269-7.3,7.3v110.321c0,4.032,3.268,7.3,7.3,7.3h288.86
					c4.032,0,7.3-3.268,7.3-7.3V303.323C407.199,299.291,403.931,296.023,399.899,296.023z"/>
			</g>
			<g>
				<g>
					<path style="fill:#FE912D;" d="M277.343,386.517c1.172-1.142,0.525-3.133-1.094-3.368l-12.108-1.759
						c-0.643-0.093-1.199-0.497-1.487-1.08l-5.415-10.971c-0.724-1.467-2.817-1.467-3.541,0l-5.415,10.971
						c-0.288,0.583-0.843,0.987-1.487,1.08l-12.108,1.759c-1.62,0.235-2.266,2.225-1.094,3.368l8.761,8.54
						c0.465,0.454,0.678,1.107,0.568,1.748l-2.068,12.059c-0.277,1.613,1.416,2.843,2.865,2.081l10.829-5.693
						c0.575-0.302,1.262-0.302,1.838,0l10.829,5.693c1.448,0.762,3.142-0.469,2.865-2.081l-2.068-12.059
						c-0.11-0.641,0.103-1.294,0.568-1.748L277.343,386.517z"/>
					<path style="fill:#FFAC0E;" d="M242.317,400.343c0.636,0.034,1.276,0.057,1.924,0.057c13.812,0,25.009-7.889,25.009-17.622
						c0-0.218-0.012-0.434-0.023-0.65l-5.086-0.739c-0.643-0.093-1.199-0.497-1.487-1.08l-5.415-10.971
						c-0.724-1.467-2.817-1.467-3.541,0l-5.415,10.971c-0.287,0.583-0.843,0.987-1.487,1.08l-12.108,1.759
						c-1.62,0.235-2.266,2.225-1.094,3.368l8.761,8.54c0.465,0.454,0.678,1.107,0.568,1.748L242.317,400.343z"/>
				</g>
				<g>
					<path style="fill:#FE912D;" d="M229.924,390.683c0.974-0.949,0.436-2.603-0.909-2.799l-10.062-1.462
						c-0.534-0.078-0.996-0.413-1.235-0.898l-4.5-9.118c-0.602-1.22-2.341-1.22-2.943,0l-4.5,9.118
						c-0.239,0.484-0.701,0.82-1.235,0.898l-10.062,1.462c-1.346,0.196-1.883,1.849-0.909,2.799l7.281,7.097
						c0.387,0.377,0.563,0.92,0.472,1.452l-1.719,10.021c-0.23,1.34,1.177,2.362,2.381,1.73l9-4.731
						c0.478-0.251,1.049-0.251,1.527,0l9,4.731c1.204,0.633,2.611-0.389,2.381-1.73l-1.719-10.021
						c-0.091-0.532,0.085-1.075,0.472-1.452L229.924,390.683z"/>
					<path style="fill:#FFAC0E;" d="M200.817,402.173c0.528,0.028,1.06,0.047,1.599,0.047c11.478,0,20.783-6.556,20.783-14.644
						c0-0.181-0.01-0.36-0.019-0.54l-4.226-0.614c-0.534-0.078-0.996-0.413-1.235-0.898l-4.5-9.118c-0.602-1.22-2.341-1.22-2.943,0
						l-4.5,9.118c-0.239,0.484-0.701,0.82-1.235,0.898l-10.062,1.462c-1.346,0.196-1.883,1.849-0.909,2.799l7.281,7.097
						c0.387,0.377,0.563,0.92,0.472,1.452L200.817,402.173z"/>
				</g>
				<g>
					<path style="fill:#FE912D;" d="M186.202,390.683c0.974-0.949,0.436-2.603-0.909-2.799l-10.062-1.462
						c-0.534-0.078-0.996-0.413-1.235-0.898l-4.5-9.118c-0.602-1.22-2.341-1.22-2.943,0l-4.5,9.118
						c-0.239,0.484-0.701,0.82-1.235,0.898l-10.062,1.462c-1.346,0.196-1.883,1.849-0.909,2.799l7.281,7.097
						c0.387,0.377,0.563,0.92,0.472,1.452l-1.719,10.021c-0.23,1.34,1.177,2.362,2.381,1.73l9-4.731
						c0.478-0.251,1.049-0.251,1.527,0l9,4.731c1.204,0.633,2.611-0.389,2.381-1.73l-1.719-10.021
						c-0.091-0.532,0.085-1.075,0.472-1.452L186.202,390.683z"/>
					<path style="fill:#FFAC0E;" d="M157.095,402.173c0.528,0.028,1.06,0.047,1.599,0.047c11.478,0,20.783-6.556,20.783-14.644
						c0-0.181-0.01-0.36-0.019-0.54l-4.226-0.614c-0.534-0.078-0.996-0.413-1.235-0.898l-4.5-9.118c-0.602-1.22-2.341-1.22-2.943,0
						l-4.5,9.118c-0.239,0.484-0.701,0.82-1.235,0.898l-10.062,1.462c-1.346,0.196-1.883,1.849-0.909,2.799l7.281,7.097
						c0.387,0.377,0.563,0.92,0.472,1.452L157.095,402.173z"/>
				</g>
				<g>
					<path style="fill:#FE912D;" d="M317.369,390.683c0.974-0.949,0.436-2.603-0.909-2.799l-10.062-1.462
						c-0.534-0.078-0.996-0.413-1.235-0.898l-4.5-9.118c-0.602-1.22-2.341-1.22-2.943,0l-4.5,9.118
						c-0.239,0.484-0.701,0.82-1.235,0.898l-10.062,1.462c-1.346,0.196-1.883,1.849-0.909,2.799l7.281,7.097
						c0.387,0.377,0.563,0.92,0.472,1.452l-1.719,10.021c-0.23,1.34,1.177,2.362,2.381,1.73l9-4.731
						c0.478-0.251,1.049-0.251,1.527,0l9,4.731c1.204,0.633,2.611-0.389,2.381-1.73l-1.719-10.021
						c-0.091-0.532,0.085-1.075,0.472-1.452L317.369,390.683z"/>
					<path style="fill:#FFAC0E;" d="M288.262,402.173c0.528,0.028,1.06,0.047,1.599,0.047c11.478,0,20.783-6.556,20.783-14.644
						c0-0.181-0.01-0.36-0.019-0.54l-4.226-0.614c-0.534-0.078-0.996-0.413-1.236-0.898l-4.5-9.118c-0.602-1.22-2.341-1.22-2.943,0
						l-4.5,9.118c-0.239,0.484-0.701,0.82-1.235,0.898l-10.062,1.462c-1.346,0.196-1.883,1.849-0.909,2.799l7.281,7.097
						c0.387,0.377,0.563,0.92,0.472,1.452L288.262,402.173z"/>
				</g>
				<g>
					<path style="fill:#A4C5CF;" d="M361.729,390.683c0.974-0.949,0.436-2.603-0.909-2.799l-10.062-1.462
						c-0.534-0.078-0.996-0.413-1.235-0.898l-4.5-9.118c-0.602-1.22-2.341-1.22-2.943,0l-4.5,9.118
						c-0.239,0.484-0.701,0.82-1.235,0.898l-10.062,1.462c-1.346,0.196-1.883,1.849-0.909,2.799l7.281,7.097
						c0.387,0.377,0.563,0.92,0.472,1.452l-1.719,10.021c-0.23,1.34,1.177,2.362,2.381,1.73l9-4.731
						c0.478-0.251,1.049-0.251,1.527,0l9,4.731c1.204,0.633,2.611-0.389,2.381-1.73l-1.719-10.021
						c-0.091-0.532,0.085-1.075,0.472-1.452L361.729,390.683z"/>
					<path style="fill:#D5F0F0;" d="M332.622,402.173c0.528,0.028,1.06,0.047,1.599,0.047c11.478,0,20.783-6.556,20.783-14.644
						c0-0.181-0.01-0.36-0.019-0.54l-4.226-0.614c-0.534-0.078-0.996-0.413-1.235-0.898l-4.5-9.118c-0.602-1.22-2.341-1.22-2.943,0
						l-4.5,9.118c-0.239,0.484-0.701,0.82-1.235,0.898l-10.062,1.462c-1.346,0.196-1.883,1.849-0.909,2.799l7.281,7.097
						c0.387,0.377,0.563,0.92,0.472,1.452L332.622,402.173z"/>
				</g>
			</g>
			<g>
				<g>
					
						<ellipse transform="matrix(0.7071 -0.7071 0.7071 0.7071 -193.2079 204.7781)" style="fill:#C9BAF2;" cx="150.585" cy="335.612" rx="29.306" ry="29.306"/>
					<path style="fill:#8C7ED1;" d="M165.286,348.736l-10.033-7.475c5.006-1.89,8.573-6.712,8.573-12.379
						c0-7.313-5.929-13.242-13.242-13.242s-13.242,5.929-13.242,13.242c0,5.668,3.567,10.49,8.573,12.379l-10.033,7.475
						c-1.199,0.893-1.906,2.301-1.906,3.796v7.223c4.721,3.253,10.44,5.163,16.607,5.163c6.167,0,11.886-1.909,16.607-5.163v-7.223
						C167.192,351.037,166.485,349.63,165.286,348.736z"/>
				</g>
				<g>
					<path style="fill:#AB6BF3;" d="M385.851,323.722H201.201c-2.103,0-3.809,1.705-3.809,3.809c0,2.103,1.705,3.809,3.809,3.809
						h184.649c2.103,0,3.809-1.705,3.809-3.809C389.659,325.427,387.954,323.722,385.851,323.722z"/>
					<path style="fill:#AB6BF3;" d="M385.851,339.885H201.201c-2.103,0-3.809,1.705-3.809,3.809s1.705,3.809,3.809,3.809h184.649
						c2.103,0,3.809-1.705,3.809-3.809S387.954,339.885,385.851,339.885z"/>
				</g>
			</g>
		</g>
		<g>
			<path style="fill:#FFB791;" d="M313.003,196.568c-0.691-0.109-2.472-0.654-5.125-1.49c-3.344-1.069-8.028-2.627-13.556-4.491
				c-0.542-0.183-1.146-0.008-1.501,0.44l-13.838,17.463l-12.467,15.702l-15.146,19.111c-0.554,0.7-1.622,0.681-2.152-0.038
				l-37.513-50.913c-1.126-1.594-3.904-4.266-4.143-6.245c-0.172-1.426,1.738-4.354,2.381-5.97c0.566-1.423,1.144-2.864,1.889-4.197
				c0.684-1.223-0.805-2.582-1.943-1.765c-0.01,0.007-0.02,0.015-0.031,0.022c-1.013,0.741-1.714,1.822-2.374,2.89
				c-0.614,0.994-1.226,2.016-2.081,2.807c-0.125,0.116-0.273,0.218-0.435,0.273c-1.522,0.525-2.922-1.174-4.327-1.537
				c-0.186-0.048-0.364-0.114-0.518-0.228c-2.098-1.552-4.42-2.8-6.881-3.669c-1.02-0.36-2.097-0.661-3.172-0.539
				c-0.15,0.017-0.307,0.045-0.425,0.139c-0.239,0.19-0.219,0.579-0.042,0.827c0.177,0.248,0.464,0.389,0.738,0.522
				c2.48,1.209,4.869,2.601,7.146,4.16c-0.265,0.205-0.523,0.414-0.766,0.627c-2.261-1.781-4.807-3.202-7.521-4.16
				c-1.02-0.36-2.097-0.661-3.172-0.539c-0.15,0.017-0.306,0.045-0.425,0.139c-0.239,0.19-0.219,0.579-0.042,0.827
				c0.177,0.248,0.464,0.389,0.738,0.522c2.501,1.219,4.91,2.624,7.204,4.198c0.451,0.309,0.895,0.63,1.339,0.952
				c-0.022,0.029-0.043,0.06-0.065,0.09c-1.742-1.133-3.617-2.063-5.577-2.755c-1.02-0.36-2.097-0.661-3.172-0.539
				c-0.15,0.017-0.306,0.045-0.425,0.139c-0.239,0.19-0.219,0.579-0.042,0.827c0.177,0.248,0.464,0.389,0.738,0.522
				c2.501,1.219,4.91,2.624,7.204,4.198c0.011,0.008,0.021,0.015,0.032,0.023c-0.036,0.122-0.064,0.245-0.091,0.367
				c-1.794-0.365-3.622-0.555-5.453-0.54c-1.082,0.009-2.197,0.094-3.166,0.575c-0.135,0.067-0.273,0.147-0.352,0.276
				c-0.16,0.26-0.008,0.619,0.243,0.792c0.251,0.173,0.569,0.207,0.872,0.239c2.428,0.258,4.86,0.598,7.163,1.428
				c1.675,0.604,3.361,1.389,5.077,1.821c1.561,0.394,3.18,0.603,4.635,1.33c1.45,0.774,1.829,2.285,2.552,3.764
				c0.024,0.048,34.937,66.314,34.937,66.314c1.854,3.816,5.706,6.252,9.923,6.252c0.254,0,0.545,0,0.799-0.036
				c2.653-0.218,5.161-1.345,7.051-3.235l30.276-26.783c0.044-0.039,0.085-0.08,0.124-0.125c2.562-2.923,5.122-5.917,7.575-8.875
				c1.09-1.272,2.144-2.581,3.198-3.853c8.457-10.397,15.7-20.149,19.554-25.867c0.679-1.007-0.203-2.273-1.401-2.073
				C315.856,196.888,314.529,196.801,313.003,196.568z"/>
			<path style="fill:#DB776E;" d="M266.515,224.191c3.707,5.779,10.795,13.703,21.553,13.23c2.581-2.944,5.161-5.961,7.633-8.941
				l12.176-33.403c-3.526-1.127-8.541-2.799-14.466-4.798l-14.43,18.21L266.515,224.191z"/>
			<path style="fill:#9D236C;" d="M317.242,173.496c-0.287-0.113-0.584-0.2-0.889-0.258c-3.012-0.572-7.156,1.172-9.942,2.458
				c-2.956,1.364-5.74,3.09-8.388,4.978c-12.494,8.912-22.543,21.245-31.532,33.533c-0.842,1.154,3.578,6.901,4.344,7.891
				c2.631,3.4,5.851,7.329,9.372,9.826c1.946,1.38,4.165,2.326,6.408,3.139c3.766,1.365,7.695,2.393,11.699,2.525
				c0.563,0.019,1.155,0.013,1.648-0.259c0.413-0.228,0.708-0.617,0.99-0.995c3.291-4.421,7.101-8.983,9.65-13.833
				c2.75-5.233,5.31-10.565,7.67-15.985c2.6-5.968,4.999-12.255,4.786-18.762c-0.069-2.094-0.408-4.17-0.832-6.221
				c-0.364-1.764-0.803-3.546-1.72-5.097C319.748,175.154,318.613,174.035,317.242,173.496z"/>
		</g>
	</g>
</g>
</svg>
