<?xml version="1.0" encoding="utf-8"?>
<!-- Generator: Adobe Illustrator 27.5.0, SVG Export Plug-In . SVG Version: 6.00 Build 0)  -->
<svg version="1.1" id="Layer_1" xmlns="http://www.w3.org/2000/svg" xmlns:xlink="http://www.w3.org/1999/xlink" x="0px" y="0px"
	 viewBox="0 0 276.549 431.931" style="enable-background:new 0 0 276.549 431.931;" xml:space="preserve">
<g>
	<g>
		<g>
			<g>
				<path style="fill:#EB936D;" d="M166.793,256.178c-7.564-7.564-7.564-52.947-7.564-52.947h-19.173h-5.131h-19.173
					c0,0,0,45.383-7.564,52.947c-7.564,7.564-32.549,11.572-32.549,11.572s4.462,56.513,28.814,63.949
					c9.612,2.935,21.801,3.552,33.037,3.225c11.235,0.327,23.424-0.29,33.037-3.225c24.353-7.436,28.814-63.949,28.814-63.949
					S174.357,263.742,166.793,256.178z"/>
				<path style="opacity:0.64;fill:#EB936D;" d="M123.75,232.494c2.834,1.048,5.709,1.985,8.631,2.752
					c2.876,0.755,5.786,1.285,8.715,1.782c4.885,0.828,9.768,1.674,14.688,2.274c1.928,0.235,3.865,0.438,5.805,0.59
					c-2.359-15.793-2.36-36.661-2.36-36.661h-43.478c0,0,0,12.583-1.105,25.601C117.66,230.106,120.681,231.36,123.75,232.494z"/>
				<path style="opacity:0.64;fill:#EB936D;" d="M177.102,283.102c-2.267,0.271-4.532,0.561-6.795,0.873
					c-1.65,0.228-3.303,0.439-4.938,0.759c-2.597,0.509-5.143,1.294-7.375,2.75c-2.232,1.457-4.032,3.463-5.612,5.596
					c0.283-0.113,0.564-0.231,0.848-0.341c4.764-1.849,9.691-3.254,14.684-4.331c4.898-1.056,9.857-1.799,14.83-2.397
					c4.721-0.568,9.456-1.004,14.189-1.455c0.222-1.158,0.426-2.282,0.612-3.363c-2.322,0.158-4.642,0.333-6.961,0.531
					C186.083,282.108,181.588,282.566,177.102,283.102z"/>
				<path style="opacity:0.64;fill:#EB936D;" d="M106.35,284.655c1.923,0.396,3.757,1.126,5.505,2.01
					c3.131,1.584,6.024,3.685,9.34,4.872c-0.766-1.286-1.53-2.574-2.359-3.82c-0.782-1.174-1.634-2.315-2.679-3.27
					c-1.931-1.765-4.419-2.526-6.979-2.802c-4.486-0.482-8.982-0.941-13.483-1.267c-1.163-0.084-2.337-0.11-3.496-0.228
					c-1.132-0.116-2.263-0.229-3.397-0.317c-2.291-0.177-4.587-0.305-6.874-0.542c-1.138-0.118-2.275-0.261-3.404-0.448
					c-0.516-0.085-1.024-0.199-1.529-0.326c0.102,0.645,0.21,1.312,0.326,1.996c7.365,0.863,14.748,1.592,22.065,2.815
					C101.718,283.719,104.035,284.179,106.35,284.655z"/>
			</g>
			<path style="fill:#EB936D;" d="M46.905,276.547c0,0-15.894,1.673-20.077,23.842c-4.183,22.169-10.039,125.064-10.039,125.064
				h37.226l8.784-104.15L46.905,276.547z"/>
			<path style="opacity:0.64;fill:#EB936D;" d="M29.66,357.677c3.334,2.467,6.718,4.871,10.236,7.071
				c0.448,0.28,0.899,0.558,1.352,0.831c0.369,0.223,0.803,0.376,0.995,0.773c0.465,0.964,0.857,1.972,1.279,2.956
				c0.844,1.969,1.674,3.943,2.495,5.921c3.296,7.946,6.429,15.959,9.604,23.954c0.168,0.423,0.337,0.846,0.505,1.268l6.675-79.15
				l-15.894-44.755c0,0-15.895,1.673-20.077,23.842c-1.616,8.568-3.483,29.193-5.165,51.276
				C24.33,353.668,26.98,355.694,29.66,357.677z"/>
			<path style="fill:#EB936D;" d="M230.109,276.547c0,0,15.894,1.673,20.077,23.842c4.183,22.169,10.039,125.064,10.039,125.064
				h-37.226l-8.784-104.15L230.109,276.547z"/>
			<path style="opacity:0.64;fill:#EB936D;" d="M221.678,400.701c0.611-4.102,1.134-8.217,1.836-12.305
				c1.265-7.36,2.986-15.15,8.006-20.945c4.852-5.602,11.87-8.973,18.407-12.173c1.832-0.897,3.67-1.783,5.494-2.695
				c-1.7-22.428-3.596-43.509-5.234-52.195c-4.183-22.168-20.077-23.842-20.077-23.842l-15.894,44.755l6.958,82.501
				C221.353,402.772,221.523,401.738,221.678,400.701z"/>
			<g>
				<path style="fill:#44413E;" d="M236.708,279.071c-17.103-8.923-37.154-11.898-37.154-11.898s-4.942,37.552-14.711,51.122
					c-8.287,11.511-26.323,14.059-42.385,14.228v-0.099c-1.363,0.043-2.762,0.074-4.183,0.092c-1.421-0.018-2.82-0.049-4.183-0.092
					v0.099c-16.062-0.168-34.098-2.717-42.385-14.228c-9.769-13.571-14.711-51.122-14.711-51.122s-20.052,2.974-37.154,11.898
					c-17.103,8.923-35.693,56.513-35.693,56.513c7.436,4.833,48.706,20.449,48.706,20.449c1.115,15.987,12.269,69.419,12.269,69.419
					h68.969h8.366h68.969c0,0,11.154-53.432,12.269-69.419c0,0,41.27-15.615,48.706-20.449
					C272.401,335.584,253.811,287.994,236.708,279.071z"/>
				<path style="opacity:0.55;fill:#8A837E;" d="M53.008,356.56c-0.41-6.438-0.721-12.882-0.951-19.329
					c-0.202-5.676-0.337-11.355-0.424-17.034c-0.793,2.756-1.365,5.573-1.771,8.412c-0.942,6.579-1.044,13.256-0.952,19.891
					c0.028,2.027,0.079,4.053,0.134,6.079c2.376,0.912,3.808,1.454,3.808,1.454c0.08,1.149,0.214,2.497,0.39,3.999
					C53.163,358.875,53.082,357.717,53.008,356.56z"/>
				<path style="opacity:0.55;fill:#8A837E;" d="M225.754,349.41c-0.807-7.354-1.519-14.727-2.774-22.022
					c-1.075-6.25-2.559-12.459-4.83-18.386c0.699,3.91,1.34,7.83,1.915,11.759c1.294,8.843,2.279,17.733,2.942,26.646
					c0.242,3.256,0.44,6.515,0.596,9.776c0.035-0.399,0.067-0.787,0.093-1.149c0,0,0.996-0.377,2.703-1.03
					C226.171,353.14,225.959,351.275,225.754,349.41z"/>
			</g>
		</g>
		<g>
			<g>
				<g>
					<g>
						<g>
							<g>
								<g>
									<g>
										<path style="fill:#EB936D;" d="M219.727,148.598c-1.727-6.708-8.825-10.34-15.733-8.127
											c-3.951,1.266-6.943,4.741-8.695,8.212c-1.021,2.023-1.652,4.241-2.029,6.457c-1.588,3.932-2.442,8.284-2.353,12.462
											c0.064,2.959,0.232,8.381,3.349,10.116c3.039,1.692,8.059-0.66,10.753-2.081c3.42-1.804,6.287-4.418,8.65-7.359
											C218.119,162.742,221.552,155.69,219.727,148.598z"/>
										<path style="opacity:0.64;fill:#EB936D;" d="M197.527,178.273c0.493-1.469,0.966-2.943,1.414-4.426
											c1.787-5.913,3.228-11.959,3.98-18.096c0.604-4.936,0.779-9.979,0.12-14.919c-3.48,1.481-6.134,4.666-7.742,7.851
											c-1.021,2.023-1.652,4.241-2.029,6.457c-1.588,3.932-2.442,8.284-2.353,12.462c0.064,2.959,0.232,8.381,3.349,10.116
											C195.206,178.241,196.336,178.376,197.527,178.273z"/>
										<path style="fill:#EB936D;" d="M216.482,148.671c-0.695-1.286-2.027-2.082-3.438-2.324
											c-3.246-0.557-6.696,1.602-8.858,3.837c-4.812,4.974-5.978,12.417-6.516,19.028c-0.031,0.387,0.548,0.141,0.6-0.127
											c0.207-1.061,0.417-2.139,0.643-3.221c0.096,0.785,0.255,1.559,0.415,2.253c0.315,1.363,1.103,2.594,2.59,2.736
											c3.59,0.342,6.262-3.846,8.104-6.23c0.173-0.224-0.188-0.306-0.331-0.154c-1.701,1.799-3.483,4.177-5.939,4.97
											c-1.977,0.638-2.781-0.808-3.243-2.435c-0.381-1.341-1.008-2.902-0.654-4.296c0.049-0.193-0.023-0.298-0.138-0.338
											c0.823-3.201,1.926-6.33,3.69-9.071c1.532-2.38,3.794-4.514,6.593-5.271c1.906-0.515,3.944-0.115,5.032,1.659
											c1.016,1.657,0.593,3.769,0.778,5.623c0.022,0.22,0.382,0.024,0.396-0.128
											C216.411,153.02,217.618,150.775,216.482,148.671z"/>
									</g>
									<g>
										<path style="fill:#EB936D;" d="M62.592,168.278c2.364,2.94,5.23,5.555,8.65,7.359c2.694,1.421,7.714,3.773,10.753,2.081
											c3.117-1.735,3.285-7.157,3.349-10.116c0.09-4.178-0.764-8.53-2.353-12.462c-0.378-2.215-1.008-4.434-2.029-6.457
											c-1.751-3.471-4.743-6.947-8.695-8.212c-6.908-2.212-14.006,1.419-15.733,8.127
											C54.709,155.69,58.142,162.742,62.592,168.278z"/>
										<path style="opacity:0.64;fill:#EB936D;" d="M78.734,178.273c-0.493-1.469-0.966-2.943-1.414-4.426
											c-1.787-5.913-3.228-11.959-3.98-18.096c-0.604-4.936-0.779-9.979-0.12-14.919c3.48,1.481,6.134,4.666,7.742,7.851
											c1.021,2.023,1.652,4.241,2.029,6.457c1.588,3.932,2.442,8.284,2.353,12.462c-0.064,2.959-0.232,8.381-3.349,10.116
											C81.055,178.241,79.926,178.376,78.734,178.273z"/>
										<path style="fill:#EB936D;" d="M59.78,148.671c0.695-1.286,2.027-2.082,3.438-2.324c3.246-0.557,6.696,1.602,8.858,3.837
											c4.812,4.974,5.978,12.417,6.516,19.028c0.032,0.387-0.548,0.141-0.6-0.127c-0.207-1.061-0.417-2.139-0.643-3.221
											c-0.096,0.785-0.255,1.559-0.415,2.253c-0.315,1.363-1.103,2.594-2.59,2.736c-3.59,0.342-6.262-3.846-8.104-6.23
											c-0.173-0.224,0.188-0.306,0.331-0.154c1.701,1.799,3.483,4.177,5.938,4.97c1.977,0.638,2.782-0.808,3.244-2.435
											c0.381-1.341,1.008-2.902,0.654-4.296c-0.049-0.193,0.023-0.298,0.138-0.338c-0.824-3.201-1.926-6.33-3.69-9.071
											c-1.532-2.38-3.794-4.514-6.593-5.271c-1.906-0.515-3.944-0.115-5.032,1.659c-1.016,1.657-0.593,3.769-0.778,5.623
											c-0.022,0.22-0.382,0.024-0.396-0.128C59.85,153.02,58.643,150.775,59.78,148.671z"/>
									</g>
									<path style="fill:#EB936D;" d="M200.781,87.567c-2.221-34.483-42.482-38.408-42.482-38.408
										c-5.88-1.363-13.762-0.349-20.322,1.057c-6.56-1.406-14.442-2.42-20.322-1.057c0,0-40.261,3.925-42.482,38.408
										c-2.221,34.483,3.054,87.749,7.219,100.645c4.008,12.411,22.163,36.503,48.272,40.297c2.747,0.74,5.307,0.9,7.313,0.844
										c2.006,0.056,4.565-0.104,7.312-0.844c26.11-3.794,44.264-27.886,48.272-40.297
										C197.727,175.316,203.002,122.05,200.781,87.567z"/>
									<path style="opacity:0.64;fill:#EB936D;" d="M135.669,181.991c-1.863-0.31-3.734-1.031-5.063-2.382
										c-0.024,0.126-0.042,0.253-0.046,0.384c-0.022,0.694,0.26,1.344,0.676,1.888c0.847,1.109,2.156,1.863,3.423,2.392
										c1.3,0.543,2.67,0.869,4.083,0.839c3.024-0.064,6.2-1.531,7.18-4.493c-0.877,0.432-1.811,0.754-2.756,0.996
										C140.738,182.235,138.145,182.404,135.669,181.991z"/>
									<path style="opacity:0.21;fill:#EB936D;" d="M123.337,164.588c-1.831-3.538-5.454-5.745-9.049-7.169
										c-1.267-0.502-2.564-0.922-3.88-1.283c-0.745-0.176-1.487-0.36-2.229-0.548c-1.785-0.392-3.592-0.686-5.398-0.902
										c-0.278-0.033-0.364-0.338-0.265-0.518c-1.743-0.401-3.499-0.745-5.277-0.949c-2.34-0.269-4.745-0.298-7.098-0.162
										c-1.953,0.113-4.346,0.356-5.857,1.744c-1.397,1.283-2.116,3.23-2.409,5.06c-0.34,2.119-0.157,4.317,0.232,6.416
										c0.416,2.244,1.084,4.439,1.893,6.571c1.465,3.862,3.34,7.709,6.09,10.826c3.178,3.604,7.373,6.45,12.048,7.673
										c4.688,1.226,9.7,0.572,13.736-2.18c3.896-2.656,6.604-6.837,7.916-11.326c0.665-2.277,0.982-4.651,0.91-7.023
										C124.634,168.695,124.323,166.494,123.337,164.588z"/>
									<path style="opacity:0.21;fill:#EB936D;" d="M189.906,154.784c-1.549-1.592-3.873-2.242-6.013-2.551
										c-2.427-0.351-4.934-0.257-7.354,0.108c-2.152,0.325-4.323,0.852-6.308,1.761c-0.376,0.172-0.705-0.386-0.327-0.559
										c0.212-0.097,0.427-0.189,0.642-0.278c-2.271,0.536-4.51,1.208-6.686,2.009c-2.356,0.868-4.661,1.903-6.818,3.193
										c-1.806,1.079-3.683,2.29-4.69,4.2c-0.983,1.863-1.193,4.054-1.093,6.128c0.109,2.273,0.607,4.527,1.326,6.682
										c0.686,2.055,1.59,4.009,2.829,5.791c1.48,2.129,3.309,4.019,5.332,5.637c4.034,3.227,9.171,5.573,14.422,5.394
										c4.553-0.155,8.745-2.311,11.773-5.665c2.961-3.28,4.816-7.473,5.799-11.748c0.494-2.149,0.768-4.347,0.806-6.551
										c0.04-2.299-0.119-4.652-0.571-6.908C192.495,159.036,191.64,156.565,189.906,154.784z"/>
									<path style="fill:#58280D;" d="M151.643,128.494c0.612-0.239,1.217-0.497,1.819-0.706c1.769-0.614,3.629-1.026,5.46-1.411
										c3.402-0.717,6.934-1.071,10.401-1.276c3.423-0.202,6.825-0.087,10.223,0.376c2.982,0.406,5.959,1.025,8.851,1.862
										c1.99,0.576,4.032,1.288,5.811,2.395c-0.565-1.858-1.188-3.654-2.073-5.255c-0.937-1.276-2.069-2.399-3.491-3.267
										c-3.036-1.852-6.639-2.636-10.142-2.972c-3.52-0.338-7.076-0.232-10.593,0.095c-3.831,0.356-8.024,0.301-11.339,2.554
										c-1.442,0.979-2.581,2.406-3.45,3.901c-0.279,0.48-0.533,0.981-0.759,1.497c0.001,0.046-0.002,0.092,0.001,0.139
										c-0.098,0.192-0.193,0.378-0.283,0.563C151.898,127.48,151.749,127.983,151.643,128.494z"/>
									<g>
										<path style="fill:#FFFFFF;" d="M161.668,165.891c2.832,0.18,5.688-0.037,8.485-0.494c2.975-0.486,5.921-1.24,8.736-2.323
											c2.94-1.132,5.793-2.686,8.133-4.816c0.09-0.082,0.179-0.165,0.268-0.249c0.219-0.277,0.431-0.56,0.63-0.853
											c0.084-0.609,0.145-1.221,0.175-1.835c0.126-2.578-0.165-5.169-0.764-7.677c-0.587-2.458-1.478-4.833-3.115-6.798
											c-0.461-0.554-0.969-1.039-1.508-1.474c-0.17-0.088-0.338-0.18-0.514-0.261c-6.246-2.865-14.104-1.361-19.645,2.413
											c-1.809,1.232-3.323,2.805-4.488,4.611c-1.569,2.761-2.476,5.842-2.824,9.008c-0.344,3.132-0.213,6.291,0.095,9.425
											C157.339,165.37,159.516,165.754,161.668,165.891z"/>
										<g>
											<g>
												<circle style="fill:#92422B;" cx="170.777" cy="151.317" r="11.792"/>
												
													<ellipse transform="matrix(0.9239 -0.3827 0.3827 0.9239 -44.9068 76.8715)" style="fill:#1A1716;" cx="170.777" cy="151.317" rx="8.781" ry="8.781"/>
												<path style="fill:#FFFFFF;" d="M169.646,146.469c0,1.92-1.557,3.477-3.478,3.477c-1.921,0-3.477-1.557-3.477-3.477
													c0-1.921,1.557-3.478,3.477-3.478C168.089,142.992,169.646,144.549,169.646,146.469z"/>
												<path style="fill:#FFFFFF;" d="M163.423,151.615c0,0.567-0.46,1.027-1.027,1.027c-0.567,0-1.027-0.46-1.027-1.027
													c0-0.567,0.46-1.027,1.027-1.027C162.963,150.588,163.423,151.048,163.423,151.615z"/>
											</g>
										</g>
										<path d="M159.891,147.031c1.025-1.378,2.172-2.661,3.487-3.762c2.671-2.236,5.841-3.384,9.266-3.863
											c1.904-0.266,3.875-0.305,5.771,0.043c0.835,0.153,1.657,0.372,2.472,0.618c2.36,0.499,4.732,1.096,7.153,1.119
											c1.144,0.011,2.352-0.106,3.381-0.644c0.64-0.334,1.134-0.816,1.498-1.394c-0.088-0.011-0.189,0.006-0.296,0.058
											c-3.938,1.942-8.093-0.208-11.869-1.498c-3.722-1.272-7.676-2.04-11.613-1.544c-3.787,0.477-7.473,2.189-10.03,5.06
											c-1.44,1.617-2.55,3.524-3.368,5.547c-0.419,1.83-0.665,3.707-0.824,5.558c-0.135,1.578-0.201,3.159-0.234,4.741
											c0.42-1.721,1.044-3.394,1.824-4.965C157.407,150.299,158.539,148.563,159.891,147.031z"/>
										<path style="fill:#6F2F1A;" d="M188.669,156.204c-0.132-0.047-0.299-0.029-0.444,0.094
											c-0.911,0.775-1.656,1.732-2.551,2.532c-0.861,0.769-1.803,1.437-2.778,2.05c-1.946,1.223-4.019,2.239-6.212,2.938
											c-2.279,0.727-4.619,1.06-6.991,1.306c-2.701,0.279-5.432,0.478-8.148,0.323c-1.244-0.071-2.5-0.215-3.698-0.57
											c-1.224-0.363-2.375-0.969-3.456-1.639c-0.156-0.097-0.456,0.115-0.341,0.293c1.256,1.947,3.603,2.672,5.795,2.948
											c0.869,0.195,1.748,0.343,2.632,0.445c2.605,0.301,5.221,0.239,7.824-0.047c4.69-0.515,9.41-1.75,13.284-4.548
											c2.049-1.481,4.123-3.36,5.338-5.606C189.117,156.363,188.927,156.203,188.669,156.204z"/>
									</g>
									<path style="fill:#58280D;" d="M127.485,128.494c-0.612-0.239-1.216-0.497-1.819-0.706
										c-1.769-0.614-3.629-1.026-5.459-1.411c-3.402-0.717-6.934-1.071-10.401-1.276c-3.423-0.202-6.825-0.087-10.223,0.376
										c-2.982,0.406-5.959,1.025-8.851,1.862c-1.99,0.576-4.032,1.288-5.811,2.395c0.565-1.858,1.188-3.654,2.073-5.255
										c0.937-1.276,2.069-2.399,3.491-3.267c3.036-1.852,6.639-2.636,10.142-2.972c3.52-0.338,7.076-0.232,10.593,0.095
										c3.831,0.356,8.024,0.301,11.339,2.554c1.442,0.979,2.581,2.406,3.45,3.901c0.279,0.48,0.533,0.981,0.759,1.497
										c-0.001,0.046,0.002,0.092-0.001,0.139c0.098,0.192,0.193,0.378,0.284,0.563
										C127.23,127.48,127.379,127.983,127.485,128.494z"/>
									<g>
										<path style="fill:#FFFFFF;" d="M117.46,165.891c-2.832,0.18-5.688-0.037-8.485-0.494c-2.975-0.486-5.921-1.24-8.735-2.323
											c-2.94-1.132-5.793-2.686-8.133-4.816c-0.09-0.082-0.179-0.165-0.268-0.249c-0.219-0.277-0.431-0.56-0.63-0.853
											c-0.084-0.609-0.145-1.221-0.175-1.835c-0.126-2.578,0.165-5.169,0.764-7.677c0.587-2.458,1.478-4.833,3.115-6.798
											c0.461-0.554,0.969-1.039,1.508-1.474c0.17-0.088,0.338-0.18,0.514-0.261c6.246-2.865,14.104-1.361,19.645,2.413
											c1.809,1.232,3.323,2.805,4.488,4.611c1.569,2.761,2.476,5.842,2.824,9.008c0.344,3.132,0.213,6.291-0.095,9.425
											C121.789,165.37,119.613,165.754,117.46,165.891z"/>
										<g>
											<g>
												<circle style="fill:#92422B;" cx="108.352" cy="151.317" r="11.792"/>
												
													<ellipse transform="matrix(0.7071 -0.7071 0.7071 0.7071 -75.2617 120.9359)" style="fill:#1A1716;" cx="108.352" cy="151.317" rx="8.781" ry="8.781"/>
												<path style="fill:#FFFFFF;" d="M107.221,146.469c0,1.92-1.557,3.477-3.478,3.477c-1.921,0-3.477-1.557-3.477-3.477
													c0-1.921,1.557-3.478,3.477-3.478C105.664,142.992,107.221,144.549,107.221,146.469z"/>
												<path style="fill:#FFFFFF;" d="M100.998,151.615c0,0.567-0.46,1.027-1.027,1.027c-0.567,0-1.027-0.46-1.027-1.027
													c0-0.567,0.46-1.027,1.027-1.027C100.538,150.588,100.998,151.048,100.998,151.615z"/>
											</g>
										</g>
										<path d="M119.238,147.031c-1.025-1.378-2.172-2.661-3.487-3.762c-2.671-2.236-5.841-3.384-9.266-3.863
											c-1.904-0.266-3.875-0.305-5.771,0.043c-0.835,0.153-1.657,0.372-2.472,0.618c-2.36,0.499-4.732,1.096-7.153,1.119
											c-1.144,0.011-2.352-0.106-3.381-0.644c-0.64-0.334-1.134-0.816-1.498-1.394c0.088-0.011,0.189,0.006,0.296,0.058
											c3.938,1.942,8.093-0.208,11.869-1.498c3.722-1.272,7.676-2.04,11.612-1.544c3.787,0.477,7.473,2.189,10.03,5.06
											c1.44,1.617,2.55,3.524,3.368,5.547c0.419,1.83,0.665,3.707,0.824,5.558c0.135,1.578,0.201,3.159,0.234,4.741
											c-0.42-1.721-1.044-3.394-1.824-4.965C121.721,150.299,120.589,148.563,119.238,147.031z"/>
										<path style="fill:#6F2F1A;" d="M90.459,156.204c0.132-0.047,0.299-0.029,0.444,0.094c0.911,0.775,1.656,1.732,2.551,2.532
											c0.861,0.769,1.802,1.437,2.778,2.05c1.946,1.223,4.019,2.239,6.212,2.938c2.279,0.727,4.619,1.06,6.991,1.306
											c2.701,0.279,5.432,0.478,8.148,0.323c1.244-0.071,2.5-0.215,3.698-0.57c1.224-0.363,2.375-0.969,3.456-1.639
											c0.156-0.097,0.456,0.115,0.341,0.293c-1.256,1.947-3.603,2.672-5.795,2.948c-0.869,0.195-1.748,0.343-2.632,0.445
											c-2.605,0.301-5.221,0.239-7.824-0.047c-4.69-0.515-9.41-1.75-13.284-4.548c-2.049-1.481-4.123-3.36-5.338-5.606
											C90.011,156.363,90.201,156.203,90.459,156.204z"/>
									</g>
									<path style="opacity:0.65;fill:#92422B;" d="M130.9,182.42c0.625,0.615,1.34,1.126,2.111,1.541
										c0.972,0.524,2.01,0.906,3.079,1.171c0.244,0.028,0.489,0.051,0.736,0.059c0.999,0.035,2.022-0.046,3.016-0.149
										c1.071-0.111,2.243-0.29,3.297-0.697c-2.982,0.656-6.271,0.351-9.016-0.97c-0.738-0.355-1.44-0.795-2.063-1.326
										c-0.528-0.45-1.121-1.017-1.356-1.688c-0.4-1.142,0.671-2.047,1.417-2.742c0.951-0.886,2.178-1.926,2.248-3.322
										c0.011-0.222-0.298-0.09-0.346,0.035c-0.52,1.33-1.789,2.188-2.798,3.124c-0.854,0.792-1.807,1.834-1.542,3.099
										C129.837,181.296,130.376,181.904,130.9,182.42z"/>
									<g style="opacity:0.47;">
										<path style="fill:#E14A31;" d="M164.202,171.987c-0.016-0.049-0.046-0.087-0.092-0.115
											c-0.044-0.031-0.093-0.048-0.146-0.051c-0.057-0.013-0.113-0.011-0.17,0.004c-0.04,0.013-0.08,0.026-0.12,0.039
											c-0.083,0.037-0.157,0.088-0.22,0.154c-0.026,0.033-0.052,0.066-0.078,0.1c-0.042,0.065-0.066,0.135-0.073,0.212v0.14
											c-0.007,0.053,0.003,0.102,0.029,0.146c0.016,0.049,0.046,0.087,0.092,0.115c0.044,0.031,0.093,0.048,0.146,0.051
											c0.057,0.013,0.113,0.011,0.17-0.004c0.04-0.013,0.08-0.026,0.12-0.039c0.083-0.037,0.157-0.088,0.22-0.154
											c0.026-0.033,0.052-0.066,0.077-0.1c0.041-0.065,0.066-0.135,0.073-0.212v-0.14
											C164.238,172.081,164.229,172.032,164.202,171.987z"/>
										<path style="fill:#E14A31;" d="M168.81,170.853c-0.447,0-0.866,0.795-0.272,0.795
											C168.985,171.648,169.403,170.853,168.81,170.853z"/>
										<path style="fill:#E14A31;" d="M174.184,170.524c-0.007-0.066-0.02-0.13-0.04-0.193c-0.007-0.024-0.019-0.046-0.03-0.069
											c-0.011-0.066-0.034-0.129-0.095-0.166c-0.087-0.053-0.176-0.053-0.275-0.041c-0.111-0.006-0.225,0.005-0.318,0.056
											c-0.046,0.025-0.087,0.052-0.13,0.077c-0.184,0.085-0.354,0.201-0.488,0.348c-0.248,0.27-0.388,0.615-0.416,0.979
											c-0.007,0.094,0.027,0.182,0.093,0.247c0.072,0.071,0.155,0.093,0.256,0.102c0.146,0.013,0.291,0.005,0.437-0.017
											c0.18-0.027,0.342-0.103,0.497-0.195c0.076-0.045,0.144-0.106,0.206-0.167c0.062-0.059,0.116-0.13,0.161-0.203
											c0.088-0.144,0.14-0.305,0.156-0.473C174.206,170.714,174.194,170.617,174.184,170.524z"/>
										<path style="fill:#E14A31;" d="M181.653,172.432c-0.012-0.058-0.04-0.104-0.085-0.139
											c-0.036-0.044-0.083-0.073-0.141-0.086c-0.015-0.006-0.029-0.011-0.044-0.017c-0.033-0.005-0.067-0.01-0.1-0.015
											c-0.057-0.002-0.112,0.008-0.165,0.029c-0.04,0.009-0.077,0.025-0.111,0.049c-0.057,0.028-0.107,0.065-0.15,0.113
											l-0.055,0.05c-0.029,0.037-0.057,0.074-0.086,0.11c-0.037,0.054-0.06,0.113-0.068,0.176
											c-0.014,0.038-0.016,0.076-0.007,0.115c-0.003,0.039,0.006,0.074,0.028,0.106c0.018,0.054,0.051,0.096,0.102,0.127
											l0.102,0.047l0.119,0.017c0.068,0.003,0.133-0.009,0.196-0.034c0.048-0.011,0.092-0.03,0.132-0.058
											c0.046-0.02,0.087-0.049,0.122-0.085c0.058-0.043,0.105-0.096,0.143-0.159c0.019-0.039,0.037-0.078,0.056-0.117
											c0.008-0.039,0.016-0.078,0.024-0.118C181.66,172.506,181.657,172.469,181.653,172.432z"/>
										<path style="fill:#E14A31;" d="M183.978,175.113c-0.544,0-1.053,0.967-0.331,0.967
											C184.191,176.079,184.7,175.113,183.978,175.113z"/>
										<path style="fill:#E14A31;" d="M174.883,177.531c-0.008-0.066-0.023-0.132-0.047-0.195
											c-0.073-0.192-0.18-0.363-0.359-0.474c-0.217-0.135-0.473-0.175-0.723-0.131c-0.072,0.013-0.143,0.037-0.214,0.066
											c-0.236,0.069-0.433,0.225-0.583,0.429c-0.146,0.199-0.226,0.448-0.257,0.691c-0.031,0.243,0.017,0.483,0.14,0.694
											c0.144,0.247,0.405,0.361,0.678,0.392c0.145,0.016,0.301-0.003,0.441-0.043c0.305-0.087,0.551-0.266,0.73-0.528
											c0.117-0.171,0.182-0.384,0.204-0.589C174.905,177.74,174.895,177.635,174.883,177.531z"/>
										<path style="fill:#E14A31;" d="M149.262,170.956c-0.002-0.005-0.006-0.008-0.007-0.013
											c-0.03-0.075-0.04-0.155-0.057-0.232c0.027-0.068,0.038-0.142,0.018-0.217c-0.026-0.098-0.094-0.153-0.176-0.184
											c-0.007-0.017-0.014-0.033-0.021-0.05c-0.035-0.084-0.072-0.167-0.11-0.249c-0.042-0.057-0.097-0.095-0.165-0.114
											c-0.075-0.02-0.151-0.021-0.227-0.004c-0.17,0.035-0.333,0.148-0.422,0.296c-0.127,0.21-0.243,0.424-0.331,0.654
											c-0.051,0.133-0.021,0.298,0.103,0.381c0.035,0.023,0.07,0.044,0.108,0.062c0.055,0.027,0.111,0.057,0.172,0.07
											c0.144,0.03,0.28,0.013,0.416-0.036c0.001,0.001,0.002,0.002,0.003,0.003c0.061,0.064,0.1,0.1,0.192,0.114
											c0.177,0.026,0.366-0.08,0.458-0.231C149.254,171.138,149.29,171.035,149.262,170.956z"/>
										<path style="fill:#E14A31;" d="M150.325,166.314c-0.507,0-0.981,0.901-0.309,0.901
											C150.524,167.216,150.998,166.314,150.325,166.314z"/>
										<path style="fill:#E14A31;" d="M154.486,177.326c-0.006-0.044-0.012-0.088-0.018-0.132
											c-0.012-0.059-0.041-0.106-0.087-0.141c-0.037-0.045-0.085-0.074-0.144-0.087c-0.04-0.006-0.081-0.012-0.121-0.018
											c-0.069-0.003-0.136,0.009-0.199,0.035c-0.049,0.011-0.093,0.031-0.134,0.059c-0.069,0.033-0.13,0.079-0.182,0.136
											c-0.029,0.038-0.058,0.075-0.087,0.112c-0.047,0.073-0.074,0.153-0.082,0.239l-0.018,0.144
											c-0.006,0.081,0.013,0.156,0.058,0.223c0.027,0.027,0.055,0.054,0.083,0.081c0.071,0.045,0.149,0.068,0.233,0.068
											c0.072,0.003,0.141-0.009,0.206-0.036c0.075-0.019,0.144-0.053,0.207-0.1c0.066-0.043,0.121-0.096,0.165-0.16
											c0.048-0.053,0.082-0.113,0.104-0.182C154.5,177.489,154.505,177.408,154.486,177.326z"/>
										<path style="fill:#E14A31;" d="M188.626,173.786c0-0.009-0.008-0.101-0.01-0.11c0-0.001,0-0.002-0.001-0.003
											c0-0.001-0.001-0.002-0.001-0.003c0-0.001-0.001-0.001-0.001-0.002c-0.001-0.001-0.042-0.093-0.043-0.094
											c0,0,0-0.001-0.001-0.001c-0.002-0.003-0.004-0.006-0.006-0.008c-0.023-0.028-0.051-0.053-0.078-0.077
											c-0.042-0.03-0.089-0.046-0.14-0.048c-0.021-0.005-0.042,0.002-0.063,0.001c-0.007-0.001-0.015-0.003-0.022-0.003
											c-0.016,0.001-0.031,0.003-0.047,0.005c-0.011,0.002-0.021-0.002-0.032,0.001c-0.004,0.001-0.007,0.002-0.011,0.004
											c-0.014,0.001-0.028,0.003-0.042,0.004c-0.005,0.002-0.01,0.003-0.015,0.005c-0.009,0.003-0.018,0.005-0.027,0.006
											c0.005-0.001,0.01-0.001,0.015-0.001c-0.005,0.002-0.011,0.003-0.016,0.005c-0.036,0.006-0.072,0.005-0.106,0.019
											c-0.072,0.018-0.138,0.05-0.198,0.096c-0.038,0.033-0.076,0.065-0.114,0.098c-0.051,0.049-0.089,0.106-0.115,0.17
											c-0.023,0.036-0.037,0.076-0.041,0.118c-0.018,0.057-0.018,0.114-0.003,0.172c0.015,0.034,0.031,0.067,0.046,0.101
											c0.046,0.063,0.107,0.105,0.182,0.126c0.043,0.007,0.087,0.014,0.13,0.019c0.004,0.001,0.009,0.001,0.013,0.001
											c0.007,0,0.015,0.001,0.022,0c0.003,0,0.007,0,0.01-0.001c0.044-0.004,0.091-0.008,0.135-0.013
											c0.002,0,0.003-0.001,0.005-0.001c0.003,0,0.006-0.001,0.009-0.002c0.001,0,0.003-0.001,0.004-0.001
											c0.001,0,0.001,0,0.002-0.001c0.023-0.007,0.046-0.015,0.069-0.022c0.023-0.007,0.046-0.015,0.068-0.022
											c0.002-0.001,0.131-0.074,0.133-0.075c0.001-0.001,0.115-0.099,0.116-0.099c0.001-0.001,0.087-0.111,0.088-0.113
											c0.001-0.001,0.057-0.118,0.057-0.12c0.001-0.001,0.001-0.003,0.001-0.004c0-0.001,0-0.001,0.001-0.002
											c0.001-0.005,0.024-0.113,0.024-0.118c0-0.001,0-0.002,0-0.004C188.626,173.787,188.626,173.786,188.626,173.786z"/>
										<g>
											<path style="fill:#E14A31;" d="M192.008,166.973c-0.019-0.072-0.059-0.129-0.12-0.171
												c-0.042-0.039-0.082-0.08-0.126-0.117c-0.01-0.008-0.02-0.016-0.03-0.023c-0.004-0.003-0.008-0.005-0.012-0.007
												c-0.024-0.013-0.107-0.045-0.122-0.052c-0.073-0.02-0.103-0.016-0.174-0.008c-0.101,0.01-0.073,0.003-0.203,0.051
												c-0.002,0.001-0.003,0.001-0.005,0.002c-0.094,0.043-0.18,0.1-0.252,0.176c-0.033,0.034-0.063,0.072-0.087,0.112
												c-0.038,0.063-0.081,0.16-0.081,0.236c0,0.002,0.009,0.111,0.01,0.112c0.007,0.036,0.025,0.071,0.046,0.1
												c0.001,0.001,0.003,0.002,0.003,0.003c0,0,0.001,0.001,0.001,0.001l0-0.001c0.002,0.003,0.005,0.004,0.007,0.007
												c0.019,0.03,0.043,0.057,0.076,0.077c0.034,0.019,0.069,0.035,0.105,0.049c0.003,0.001,0.006,0.001,0.008,0.002
												c0.007,0.002,0.014,0.004,0.021,0.007c0.001,0,0.002,0.001,0.002,0.001c0.019,0.01,0.038,0.019,0.057,0.029
												c0.008,0.004,0.016,0.008,0.024,0.012c0.047,0.033,0.099,0.051,0.156,0.054c0.06,0.014,0.121,0.012,0.182-0.004
												c0.069-0.013,0.133-0.039,0.191-0.077c0.065-0.032,0.123-0.075,0.172-0.129c0.028-0.035,0.055-0.071,0.083-0.106
												c0.044-0.069,0.07-0.145,0.077-0.227C192.015,167.045,192.012,167.009,192.008,166.973z"/>
											<path style="fill:#E14A31;" d="M191.598,166.602c0.006,0.002,0.008,0.001,0.015,0.003
												C191.595,166.599,191.593,166.599,191.598,166.602z"/>
										</g>
										<path style="fill:#E14A31;" d="M186.784,166.409c-0.046-0.058-0.125-0.103-0.201-0.096
											c-0.053,0.005-0.107,0.011-0.16,0.016c-0.03,0.003-0.06,0.005-0.09,0.008c-0.01-0.072-0.039-0.146-0.101-0.184
											c-0.086-0.053-0.193-0.067-0.291-0.043c-0.116,0.028-0.235,0.086-0.313,0.178c-0.073,0.085-0.135,0.167-0.173,0.274
											c-0.011,0.032-0.019,0.076-0.021,0.11c-0.001,0.015,0.002,0.072,0.01,0.103c0.003,0.014,0.023,0.051,0.02,0.045
											c-0.007-0.016,0.013,0.033,0.02,0.044c0.018,0.026,0.052,0.058,0.069,0.07c0.004,0.003,0.007,0.005,0.011,0.008
											c0.019,0.012,0.061,0.031,0.083,0.039c0.003,0.001,0.005,0.002,0.008,0.003c0.04,0.012,0.082,0.016,0.124,0.019
											c0.038,0.002,0.076-0.006,0.114-0.012c0.189,0.002,0.379-0.035,0.565-0.062c0.048-0.009,0.093-0.027,0.133-0.054
											c0.046-0.022,0.086-0.052,0.12-0.09c0.05-0.057,0.088-0.118,0.104-0.193C186.826,166.532,186.824,166.46,186.784,166.409z
											"/>
										<path style="fill:#E14A31;" d="M184.518,182.183c-0.475,0-0.919,0.844-0.289,0.844
											C184.704,183.027,185.148,182.183,184.518,182.183z"/>
										<path style="fill:#E14A31;" d="M178.9,184.178c-0.438,0-0.848,0.779-0.267,0.779
											C179.071,184.956,179.481,184.178,178.9,184.178z"/>
										<path style="fill:#E14A31;" d="M169.234,181.779c-0.456,0-0.883,0.811-0.278,0.811
											C169.412,182.59,169.839,181.779,169.234,181.779z"/>
										<path style="fill:#E14A31;" d="M172.188,177.538c-0.025-0.024-0.049-0.048-0.074-0.072
											c-0.063-0.04-0.132-0.061-0.207-0.061c-0.04,0.004-0.081,0.008-0.121,0.012c-0.089,0.02-0.172,0.056-0.247,0.109
											c-0.055,0.046-0.119,0.093-0.165,0.151c-0.03,0.038-0.061,0.076-0.089,0.115c-0.004,0.006-0.008,0.012-0.012,0.018
											c-0.027,0.044-0.048,0.093-0.069,0.141c-0.025,0.055-0.034,0.122-0.045,0.179c-0.005,0.029-0.006,0.058-0.005,0.087
											c-0.007,0.053,0.003,0.102,0.029,0.146c0.016,0.049,0.046,0.087,0.092,0.115c0.044,0.031,0.093,0.048,0.146,0.05
											c0.056,0.013,0.113,0.011,0.17-0.004c0.04-0.013,0.08-0.026,0.12-0.039c0.083-0.037,0.157-0.088,0.22-0.154
											c0.026-0.033,0.052-0.066,0.077-0.1c0.035-0.054,0.054-0.113,0.065-0.175c0.016-0.017,0.037-0.029,0.05-0.049
											c0.042-0.047,0.073-0.101,0.093-0.162c0.022-0.053,0.028-0.108,0.018-0.163
											C172.236,177.631,172.221,177.582,172.188,177.538z"/>
										<path style="fill:#E14A31;" d="M162.387,178.627c-0.017-0.065-0.053-0.117-0.109-0.155
											c-0.03-0.014-0.06-0.028-0.089-0.042c-0.033-0.009-0.065-0.012-0.098-0.014c-0.001-0.036-0.002-0.072-0.021-0.104
											c-0.015-0.045-0.043-0.081-0.085-0.107c-0.029-0.013-0.057-0.026-0.086-0.04c-0.051-0.016-0.103-0.019-0.154-0.009
											c-0.038,0-0.075,0.008-0.11,0.023c-0.06,0.015-0.115,0.042-0.165,0.08l-0.095,0.082c-0.054,0.055-0.093,0.119-0.119,0.191
											c-0.016,0.073-0.037,0.151-0.036,0.227c0,0.049,0.004,0.099,0.012,0.148c0.003,0.015,0.006,0.03,0.012,0.045
											c0.014,0.035,0.03,0.071,0.048,0.104c0.003,0.006,0.007,0.012,0.011,0.018c0.017,0.023,0.065,0.073,0.102,0.092
											c0.003,0.002,0.006,0.003,0.008,0.004c0.032,0.016,0.065,0.032,0.097,0.045c0.007,0.003,0.014,0.005,0.021,0.007
											c0.024,0.006,0.05,0.008,0.073,0.012c0.025,0.004,0.051,0.009,0.076,0.01c0.009,0,0.019,0,0.028,0
											c0.048-0.003,0.095-0.008,0.142-0.014c0.024-0.003,0.047-0.009,0.07-0.015c0.063-0.012,0.121-0.035,0.174-0.07
											c0.059-0.029,0.111-0.068,0.156-0.117c0.044-0.043,0.077-0.092,0.1-0.148c0.028-0.047,0.043-0.099,0.046-0.154
											C162.393,178.692,162.39,178.659,162.387,178.627z"/>
										<path style="fill:#E14A31;" d="M159.092,180.06c-0.018-0.086-0.036-0.171-0.053-0.257
											c-0.008-0.036-0.025-0.065-0.053-0.087c-0.023-0.028-0.052-0.046-0.089-0.054c-0.025-0.004-0.05-0.007-0.075-0.011
											c-0.043-0.002-0.084,0.006-0.123,0.022c-0.03,0.007-0.058,0.019-0.083,0.037c-0.043,0.021-0.08,0.049-0.112,0.084
											c-0.018,0.023-0.036,0.046-0.054,0.069c-0.029,0.045-0.046,0.094-0.051,0.148c-0.018,0.097-0.036,0.195-0.054,0.292
											c-0.004,0.057,0.009,0.109,0.041,0.156c0.019,0.019,0.038,0.038,0.058,0.057c0.049,0.032,0.104,0.047,0.162,0.048
											c0.05,0.002,0.098-0.007,0.144-0.025c0.053-0.013,0.101-0.037,0.145-0.07c0.046-0.03,0.084-0.067,0.115-0.112
											c0.033-0.037,0.058-0.079,0.073-0.127C159.101,180.173,159.105,180.117,159.092,180.06z"/>
										<path style="fill:#E14A31;" d="M156.428,177.817c-0.009-0.042-0.03-0.076-0.063-0.102
											c-0.027-0.033-0.061-0.054-0.104-0.063l-0.121-0.032c-0.066-0.017-0.133-0.019-0.2-0.004
											c-0.077,0.017-0.148,0.048-0.212,0.094c-0.031,0.026-0.061,0.052-0.091,0.078c-0.051,0.053-0.089,0.114-0.114,0.183
											c-0.019,0.046-0.024,0.093-0.016,0.14c-0.001,0.046,0.012,0.088,0.041,0.126c0.076,0.109,0.224,0.131,0.345,0.104
											l0.142-0.032c0.033-0.01,0.065-0.021,0.098-0.032c0.052-0.021,0.098-0.051,0.137-0.09c0.03-0.021,0.054-0.046,0.073-0.076
											c0.033-0.037,0.058-0.079,0.073-0.127c0.006-0.029,0.012-0.058,0.018-0.087
											C156.433,177.872,156.431,177.844,156.428,177.817z"/>
										<path style="fill:#E14A31;" d="M180.291,186.451c-0.038-0.059-0.09-0.098-0.154-0.12
											c-0.062-0.036-0.129-0.052-0.202-0.049c-0.109,0-0.213,0.022-0.312,0.066c-0.104,0.046-0.205,0.113-0.285,0.196
											c-0.009,0.006-0.021,0.008-0.03,0.015c-0.039,0.033-0.078,0.067-0.117,0.1c-0.029,0.038-0.059,0.076-0.088,0.113
											c-0.038,0.055-0.062,0.116-0.07,0.181c-0.018,0.058-0.019,0.116-0.003,0.176c0.008,0.031,0.015,0.061,0.019,0.093
											c0.003,0.018,0.004,0.036,0.007,0.054c0.001,0.006,0.002,0.012,0.004,0.017c0,0.001,0.001,0.003,0.002,0.004
											c0.008,0.022,0.038,0.088,0.05,0.108c0.001,0.003,0.003,0.005,0.005,0.008c0.002,0.002,0.004,0.005,0.005,0.007
											c0.001,0.001,0.003,0.003,0.004,0.004c0.025,0.027,0.06,0.061,0.087,0.085c0.007,0.006,0.013,0.012,0.02,0.017
											c0.029,0.022,0.06,0.042,0.09,0.062c0.156,0.104,0.363,0.081,0.526,0.01c0.101-0.045,0.189-0.107,0.265-0.186
											c0.069-0.072,0.121-0.154,0.155-0.248c0.012-0.038,0.022-0.076,0.036-0.113c0.023-0.064,0.035-0.132,0.046-0.197
											c0.009-0.05,0.005-0.101,0.007-0.151C180.364,186.611,180.342,186.527,180.291,186.451z"/>
										<path style="fill:#E14A31;" d="M192.246,171.786c-0.018-0.044-0.037-0.09-0.06-0.131
											c-0.004-0.006-0.007-0.012-0.012-0.018c-0.031-0.037-0.069-0.071-0.104-0.104c-0.005-0.005-0.011-0.01-0.016-0.014
											c-0.012-0.009-0.025-0.017-0.039-0.024c-0.051-0.026-0.106-0.056-0.162-0.07c-0.061-0.015-0.125-0.023-0.187-0.028
											c-0.021-0.001-0.042-0.001-0.062,0.001c-0.072,0.006-0.146,0.01-0.217,0.026c-0.012,0.003-0.024,0.006-0.036,0.009
											c-0.006,0.002-0.012,0.004-0.019,0.006c-0.037,0.011-0.124,0.036-0.16,0.052c-0.002,0.001-0.004,0.002-0.006,0.003
											c-0.051,0.029-0.102,0.058-0.153,0.086c-0.012,0.008-0.024,0.017-0.035,0.026c-0.006,0.005-0.011,0.009-0.017,0.014
											c-0.006,0.005-0.019,0.016-0.029,0.024c-0.012,0.007-0.025,0.012-0.036,0.019c-0.085,0.053-0.155,0.141-0.212,0.222
											c-0.034,0.048-0.06,0.103-0.077,0.159c-0.014,0.042-0.021,0.087-0.028,0.131c-0.002,0.012-0.003,0.025-0.003,0.037
											c0.001,0.128,0.03,0.225,0.095,0.336c0.018,0.031,0.04,0.059,0.063,0.085c0.045,0.05,0.093,0.1,0.146,0.141
											c0.063,0.049,0.14,0.084,0.213,0.111c0.016,0.006,0.033,0.01,0.05,0.013c0.054,0.01,0.113,0.023,0.169,0.021
											c0.052-0.002,0.105-0.007,0.156-0.015c0.007-0.001,0.015-0.002,0.022-0.004c0.054-0.013,0.107-0.032,0.159-0.051
											c0.008-0.003,0.015-0.005,0.022-0.009c0.006-0.003,0.012-0.006,0.018-0.009c0.052-0.028,0.107-0.055,0.156-0.089
											c0.006-0.004,0.012-0.009,0.017-0.013c0.047-0.037,0.094-0.077,0.138-0.119c0.046-0.045,0.084-0.101,0.122-0.152
											c0.009-0.012,0.017-0.024,0.024-0.037c0.03-0.054,0.058-0.111,0.08-0.169c0.005-0.014,0.01-0.029,0.013-0.044
											c0.017-0.067,0.038-0.145,0.035-0.217C192.272,171.928,192.272,171.85,192.246,171.786z"/>
										<path style="fill:#E14A31;" d="M178.67,168.124l-0.079-0.078c-0.068-0.043-0.142-0.065-0.222-0.065
											c-0.069-0.003-0.134,0.009-0.197,0.035c-0.072,0.018-0.138,0.05-0.198,0.095c-0.063,0.041-0.115,0.092-0.157,0.153
											c-0.045,0.05-0.079,0.108-0.1,0.173c-0.008,0.04-0.016,0.079-0.024,0.118c-0.006,0.078,0.013,0.149,0.056,0.214
											l0.079,0.078c0.068,0.043,0.142,0.065,0.222,0.065c0.069,0.003,0.134-0.009,0.197-0.035
											c0.072-0.018,0.138-0.05,0.198-0.095c0.063-0.041,0.116-0.092,0.157-0.153c0.045-0.05,0.079-0.108,0.1-0.173
											c0.008-0.04,0.016-0.079,0.024-0.118C178.732,168.26,178.713,168.189,178.67,168.124z"/>
										<path style="fill:#E14A31;" d="M156.486,171.229c-0.002-0.018-0.006-0.035-0.01-0.052
											c-0.015-0.052-0.041-0.103-0.065-0.15c-0.007-0.015-0.016-0.029-0.026-0.041c-0.033-0.042-0.074-0.081-0.115-0.114
											c-0.043-0.034-0.1-0.054-0.148-0.075c-0.016-0.007-0.033-0.013-0.05-0.017c-0.059-0.013-0.122-0.024-0.184-0.024
											c-0.068,0-0.137,0.008-0.204,0.019c-0.088,0.014-0.169,0.052-0.246,0.095c-0.034,0.019-0.069,0.038-0.102,0.059
											c-0.026,0.017-0.05,0.035-0.073,0.055c-0.038,0.033-0.076,0.065-0.115,0.098c-0.051,0.049-0.089,0.106-0.115,0.17
											c-0.028,0.058-0.051,0.129-0.053,0.198c-0.027,0.045-0.052,0.091-0.073,0.142c-0.023,0.057-0.034,0.12-0.044,0.18
											c-0.01,0.059-0.002,0.121,0.007,0.179c0.004,0.029,0.013,0.056,0.024,0.083c0.024,0.057,0.048,0.116,0.087,0.164
											c0.053,0.064,0.119,0.132,0.195,0.172c0.105,0.054,0.188,0.083,0.308,0.087c0.057,0.002,0.116-0.006,0.171-0.016
											c0.06-0.011,0.119-0.033,0.174-0.055c0.06-0.024,0.117-0.06,0.171-0.094c0.056-0.035,0.104-0.083,0.153-0.126
											c0.063-0.055,0.114-0.125,0.16-0.194c0.047-0.069,0.081-0.147,0.113-0.222c0.016-0.038,0.028-0.077,0.037-0.117
											c0.017-0.076,0.038-0.156,0.037-0.235C156.5,171.342,156.493,171.285,156.486,171.229z"/>
										<path style="fill:#E14A31;" d="M148.003,163.113c-0.009-0.032-0.025-0.061-0.04-0.091c0,0,0-0.001,0-0.001
											c0.007,0.015,0.013,0.029,0.02,0.044c-0.011-0.023-0.015-0.048-0.02-0.073c0.001-0.008,0-0.016,0.001-0.024
											c0.006-0.044-0.002-0.085-0.024-0.122c-0.013-0.04-0.039-0.072-0.076-0.096c-0.026-0.012-0.051-0.024-0.077-0.036
											c-0.046-0.014-0.092-0.017-0.138-0.008c-0.034,0-0.067,0.007-0.099,0.021c-0.054,0.014-0.103,0.038-0.148,0.071
											c-0.028,0.024-0.057,0.049-0.085,0.073c-0.048,0.049-0.084,0.106-0.107,0.171c-0.01,0.041-0.019,0.082-0.025,0.124
											c-0.002,0.014-0.003,0.028-0.004,0.042c-0.001,0.013,0,0.026,0.001,0.038c0.003,0.04,0.005,0.082,0.012,0.121
											c0.002,0.013,0.005,0.025,0.009,0.037c0.002,0.006,0.004,0.013,0.006,0.019c0.001,0.003,0.002,0.006,0.003,0.008
											c0.001,0.001,0.001,0.003,0.002,0.004c0.012,0.026,0.024,0.052,0.036,0.078c0.004,0.006,0.008,0.01,0.013,0.015
											c0.023,0.024,0.047,0.048,0.072,0.07c0.01,0.009,0.021,0.018,0.032,0.026c0.025,0.012,0.051,0.023,0.076,0.035
											c0.045,0.014,0.091,0.016,0.136,0.008c0.034,0,0.066-0.007,0.098-0.021c0.053-0.014,0.102-0.037,0.146-0.071l0.084-0.072
											l0.064-0.082c0.028-0.04,0.045-0.084,0.051-0.131c0.013-0.042,0.013-0.084,0.002-0.127
											C148.015,163.149,148.008,163.132,148.003,163.113z"/>
									</g>
									<g style="opacity:0.47;">
										<path style="fill:#E14A31;" d="M110.152,171.987c0.016-0.049,0.046-0.087,0.092-0.115
											c0.044-0.031,0.093-0.048,0.146-0.051c0.056-0.013,0.113-0.011,0.17,0.004c0.04,0.013,0.08,0.026,0.12,0.039
											c0.083,0.037,0.157,0.088,0.22,0.154c0.026,0.033,0.052,0.066,0.077,0.1c0.041,0.065,0.066,0.135,0.073,0.212v0.14
											c0.007,0.053-0.003,0.102-0.029,0.146c-0.016,0.049-0.046,0.087-0.091,0.115c-0.044,0.031-0.093,0.048-0.146,0.051
											c-0.057,0.013-0.113,0.011-0.17-0.004c-0.04-0.013-0.08-0.026-0.12-0.039c-0.083-0.037-0.157-0.088-0.22-0.154
											c-0.026-0.033-0.052-0.066-0.078-0.1c-0.041-0.065-0.066-0.135-0.073-0.212v-0.14
											C110.116,172.081,110.126,172.032,110.152,171.987z"/>
										<path style="fill:#E14A31;" d="M105.544,170.853c0.447,0,0.866,0.795,0.272,0.795
											C105.369,171.648,104.951,170.853,105.544,170.853z"/>
										<path style="fill:#E14A31;" d="M100.17,170.524c0.007-0.066,0.02-0.13,0.04-0.193c0.007-0.024,0.019-0.046,0.03-0.069
											c0.01-0.066,0.034-0.129,0.095-0.166c0.087-0.053,0.177-0.053,0.275-0.041c0.111-0.006,0.225,0.005,0.318,0.056
											c0.046,0.025,0.087,0.052,0.13,0.077c0.184,0.085,0.354,0.201,0.488,0.348c0.248,0.27,0.388,0.615,0.416,0.979
											c0.007,0.094-0.027,0.182-0.093,0.247c-0.072,0.071-0.155,0.093-0.256,0.102c-0.146,0.013-0.291,0.005-0.437-0.017
											c-0.18-0.027-0.342-0.103-0.497-0.195c-0.075-0.045-0.144-0.106-0.206-0.167c-0.062-0.059-0.116-0.13-0.161-0.203
											c-0.088-0.144-0.14-0.305-0.155-0.473C100.148,170.714,100.16,170.617,100.17,170.524z"/>
										<path style="fill:#E14A31;" d="M92.701,172.432c0.012-0.058,0.04-0.104,0.085-0.139c0.036-0.044,0.083-0.073,0.141-0.086
											c0.015-0.006,0.029-0.011,0.044-0.017c0.033-0.005,0.067-0.01,0.1-0.015c0.057-0.002,0.112,0.008,0.165,0.029
											c0.04,0.009,0.077,0.025,0.111,0.049c0.057,0.028,0.107,0.065,0.15,0.113l0.055,0.05c0.029,0.037,0.057,0.074,0.086,0.11
											c0.037,0.054,0.06,0.113,0.068,0.176c0.014,0.038,0.016,0.076,0.007,0.115c0.003,0.039-0.006,0.074-0.028,0.106
											c-0.017,0.054-0.051,0.096-0.101,0.127l-0.102,0.047l-0.119,0.017c-0.068,0.003-0.133-0.009-0.196-0.034
											c-0.048-0.011-0.092-0.03-0.132-0.058c-0.046-0.02-0.087-0.049-0.122-0.085c-0.058-0.043-0.105-0.096-0.143-0.159
											c-0.019-0.039-0.037-0.078-0.056-0.117c-0.008-0.039-0.016-0.078-0.024-0.118
											C92.694,172.506,92.698,172.469,92.701,172.432z"/>
										<path style="fill:#E14A31;" d="M90.376,175.113c0.544,0,1.053,0.967,0.331,0.967
											C90.163,176.079,89.654,175.113,90.376,175.113z"/>
										<path style="fill:#E14A31;" d="M99.471,177.531c0.007-0.066,0.023-0.132,0.047-0.195c0.073-0.192,0.18-0.363,0.359-0.474
											c0.217-0.135,0.473-0.175,0.723-0.131c0.072,0.013,0.143,0.037,0.214,0.066c0.236,0.069,0.433,0.225,0.582,0.429
											c0.146,0.199,0.226,0.448,0.257,0.691c0.031,0.243-0.017,0.483-0.14,0.694c-0.144,0.247-0.405,0.361-0.678,0.392
											c-0.145,0.016-0.301-0.003-0.441-0.043c-0.305-0.087-0.551-0.266-0.73-0.528c-0.117-0.171-0.182-0.384-0.204-0.589
											C99.449,177.74,99.46,177.635,99.471,177.531z"/>
										<path style="fill:#E14A31;" d="M125.141,171.205c0.092,0.15,0.281,0.257,0.459,0.231c0.092-0.013,0.131-0.05,0.192-0.114
											c0.001-0.001,0.002-0.002,0.002-0.003c0.136,0.05,0.272,0.067,0.416,0.036c0.061-0.013,0.116-0.043,0.172-0.07
											c0.038-0.018,0.073-0.039,0.108-0.062c0.123-0.082,0.154-0.248,0.102-0.381c-0.089-0.229-0.204-0.444-0.331-0.654
											c-0.09-0.148-0.253-0.261-0.422-0.296c-0.076-0.017-0.152-0.016-0.227,0.004c-0.068,0.019-0.123,0.057-0.165,0.114
											c-0.038,0.083-0.075,0.165-0.11,0.249c-0.007,0.017-0.014,0.033-0.021,0.05c-0.083,0.031-0.151,0.086-0.176,0.184
											c-0.02,0.075-0.009,0.148,0.018,0.217c-0.018,0.078-0.027,0.158-0.057,0.232c-0.002,0.005-0.006,0.008-0.007,0.013
											C125.064,171.035,125.1,171.138,125.141,171.205z"/>
										<path style="fill:#E14A31;" d="M124.029,166.314c0.507,0,0.981,0.901,0.309,0.901
											C123.831,167.216,123.356,166.314,124.029,166.314z"/>
										<path style="fill:#E14A31;" d="M119.868,177.326c0.006-0.044,0.012-0.088,0.018-0.132
											c0.012-0.059,0.041-0.106,0.087-0.141c0.037-0.045,0.085-0.074,0.144-0.087c0.04-0.006,0.081-0.012,0.121-0.018
											c0.069-0.003,0.136,0.009,0.199,0.035c0.049,0.011,0.093,0.031,0.134,0.059c0.069,0.033,0.13,0.079,0.182,0.136
											c0.029,0.038,0.058,0.075,0.087,0.112c0.047,0.073,0.074,0.153,0.082,0.239l0.018,0.144
											c0.006,0.081-0.013,0.156-0.058,0.223c-0.028,0.027-0.055,0.054-0.083,0.081c-0.071,0.045-0.148,0.068-0.233,0.068
											c-0.072,0.003-0.141-0.009-0.206-0.036c-0.075-0.019-0.144-0.053-0.207-0.1c-0.066-0.043-0.121-0.096-0.165-0.16
											c-0.048-0.053-0.082-0.113-0.104-0.182C119.855,177.489,119.849,177.408,119.868,177.326z"/>
										<path style="fill:#E14A31;" d="M85.728,173.787c0,0.001,0,0.003,0,0.004c0,0.005,0.023,0.113,0.024,0.118
											c0,0.001,0,0.002,0.001,0.002c0,0.001,0.001,0.003,0.001,0.004c0.001,0.001,0.056,0.118,0.057,0.12
											s0.087,0.111,0.088,0.113c0.001,0.001,0.115,0.099,0.116,0.099c0.002,0.001,0.131,0.074,0.133,0.075
											c0.023,0.007,0.045,0.015,0.068,0.022c0.023,0.008,0.046,0.015,0.069,0.022c0.001,0,0.001,0,0.002,0.001
											c0.001,0,0.003,0.001,0.004,0.001c0.003,0.001,0.006,0.001,0.009,0.002c0.002,0,0.003,0.001,0.005,0.001
											c0.044,0.006,0.09,0.009,0.135,0.013c0.003,0,0.007,0.001,0.01,0.001c0.007,0,0.015,0,0.022,0
											c0.004,0,0.008-0.001,0.013-0.001c0.044-0.005,0.087-0.012,0.131-0.019c0.075-0.021,0.136-0.063,0.182-0.126
											c0.015-0.034,0.031-0.067,0.046-0.101c0.016-0.059,0.015-0.116-0.003-0.172c-0.004-0.043-0.017-0.082-0.041-0.118
											c-0.026-0.065-0.064-0.121-0.115-0.17c-0.038-0.033-0.076-0.065-0.114-0.098c-0.06-0.046-0.126-0.077-0.198-0.096
											c-0.034-0.014-0.071-0.013-0.106-0.019c-0.005-0.002-0.011-0.003-0.016-0.005c0.005,0,0.01,0.001,0.015,0.001
											c-0.009-0.001-0.018-0.003-0.027-0.006c-0.005-0.002-0.01-0.003-0.015-0.005c-0.014-0.001-0.028-0.003-0.041-0.004
											c-0.004-0.001-0.007-0.002-0.011-0.004c-0.011-0.003-0.021,0.001-0.032-0.001c-0.016-0.002-0.031-0.003-0.047-0.005
											c-0.007,0-0.015,0.002-0.022,0.003c-0.021,0.001-0.042-0.006-0.063-0.001c-0.051,0.002-0.097,0.018-0.14,0.048
											c-0.027,0.024-0.055,0.049-0.078,0.077c-0.002,0.003-0.004,0.006-0.006,0.008c0,0,0,0.001,0,0.001
											c-0.001,0.001-0.042,0.093-0.043,0.094c0,0.001-0.001,0.001-0.001,0.002c0,0.001-0.001,0.002-0.001,0.003
											c0,0.001-0.001,0.002-0.001,0.003c-0.002,0.009-0.009,0.101-0.01,0.11C85.728,173.786,85.728,173.787,85.728,173.787z"/>
										<g>
											<path style="fill:#E14A31;" d="M82.337,167.081c0.007,0.082,0.033,0.157,0.078,0.227
												c0.028,0.035,0.055,0.071,0.083,0.106c0.049,0.055,0.107,0.098,0.172,0.129c0.058,0.038,0.122,0.064,0.191,0.077
												c0.061,0.016,0.122,0.018,0.182,0.004c0.057-0.003,0.108-0.021,0.156-0.054c0.008-0.004,0.016-0.008,0.024-0.012
												c0.019-0.01,0.038-0.019,0.057-0.029c0.001,0,0.002-0.001,0.002-0.001c0.007-0.003,0.014-0.005,0.021-0.007
												c0.003-0.001,0.006-0.001,0.008-0.002c0.036-0.014,0.071-0.03,0.105-0.049c0.033-0.02,0.056-0.047,0.076-0.077
												c0.002-0.003,0.005-0.004,0.007-0.007l0,0.001c0,0,0-0.001,0.001-0.001c0.001-0.001,0.002-0.002,0.003-0.003
												c0.021-0.03,0.039-0.065,0.046-0.1c0-0.001,0.01-0.111,0.01-0.112c0-0.077-0.042-0.174-0.081-0.236
												c-0.025-0.04-0.055-0.078-0.087-0.112c-0.072-0.075-0.157-0.133-0.252-0.176c-0.002-0.001-0.003-0.001-0.005-0.002
												c-0.131-0.048-0.102-0.041-0.203-0.051c-0.071-0.007-0.101-0.011-0.174,0.008c-0.015,0.008-0.098,0.039-0.122,0.052
												c-0.004,0.002-0.008,0.005-0.012,0.007c-0.01,0.007-0.02,0.015-0.03,0.023c-0.044,0.037-0.084,0.077-0.126,0.117
												c-0.061,0.042-0.101,0.099-0.12,0.171C82.343,167.009,82.34,167.045,82.337,167.081z"/>
											<path style="fill:#E14A31;" d="M82.756,166.602c-0.006,0.002-0.008,0.001-0.015,0.003
												C82.759,166.599,82.761,166.599,82.756,166.602z"/>
										</g>
										<path style="fill:#E14A31;" d="M87.57,166.409c0.046-0.058,0.125-0.103,0.201-0.096c0.053,0.005,0.107,0.011,0.16,0.016
											c0.03,0.003,0.06,0.005,0.09,0.008c0.01-0.072,0.039-0.146,0.101-0.184c0.086-0.053,0.193-0.067,0.291-0.043
											c0.116,0.028,0.235,0.086,0.313,0.178c0.073,0.085,0.135,0.167,0.173,0.274c0.011,0.032,0.019,0.076,0.021,0.11
											c0.001,0.015-0.002,0.072-0.01,0.103c-0.004,0.014-0.023,0.051-0.02,0.045c0.007-0.016-0.013,0.033-0.02,0.044
											c-0.018,0.026-0.052,0.058-0.069,0.07c-0.004,0.003-0.007,0.005-0.011,0.008c-0.019,0.012-0.061,0.031-0.083,0.039
											c-0.003,0.001-0.005,0.002-0.008,0.003c-0.04,0.012-0.082,0.016-0.123,0.019c-0.038,0.002-0.076-0.006-0.114-0.012
											c-0.189,0.002-0.379-0.035-0.565-0.062c-0.048-0.009-0.093-0.027-0.133-0.054c-0.046-0.022-0.086-0.052-0.12-0.09
											c-0.05-0.057-0.088-0.118-0.104-0.193C87.529,166.532,87.53,166.46,87.57,166.409z"/>
										<path style="fill:#E14A31;" d="M89.836,182.183c0.475,0,0.919,0.844,0.289,0.844
											C89.651,183.027,89.206,182.183,89.836,182.183z"/>
										<path style="fill:#E14A31;" d="M95.454,184.178c0.438,0,0.848,0.779,0.267,0.779
											C95.283,184.956,94.873,184.178,95.454,184.178z"/>
										<path style="fill:#E14A31;" d="M105.121,181.779c0.456,0,0.883,0.811,0.278,0.811
											C104.942,182.59,104.515,181.779,105.121,181.779z"/>
										<path style="fill:#E14A31;" d="M102.119,177.684c-0.01,0.055-0.004,0.11,0.018,0.163c0.02,0.061,0.051,0.115,0.093,0.162
											c0.013,0.02,0.035,0.032,0.05,0.049c0.011,0.062,0.03,0.121,0.065,0.175c0.026,0.033,0.052,0.066,0.077,0.1
											c0.063,0.066,0.136,0.117,0.22,0.154c0.04,0.013,0.08,0.026,0.12,0.039c0.057,0.015,0.114,0.016,0.17,0.004
											c0.053-0.003,0.102-0.019,0.146-0.05c0.045-0.028,0.076-0.066,0.091-0.115c0.027-0.044,0.036-0.093,0.029-0.146
											c0.002-0.029,0.001-0.059-0.005-0.087c-0.01-0.057-0.02-0.124-0.045-0.179c-0.021-0.047-0.042-0.096-0.069-0.141
											c-0.004-0.006-0.008-0.012-0.012-0.018c-0.028-0.04-0.059-0.077-0.089-0.115c-0.046-0.058-0.11-0.105-0.165-0.151
											c-0.075-0.053-0.157-0.089-0.247-0.109c-0.04-0.004-0.081-0.008-0.121-0.012c-0.075,0-0.144,0.02-0.207,0.061
											c-0.025,0.024-0.049,0.048-0.074,0.072C102.134,177.582,102.118,177.631,102.119,177.684z"/>
										<path style="fill:#E14A31;" d="M111.967,178.627c0.017-0.065,0.053-0.117,0.109-0.155c0.03-0.014,0.06-0.028,0.089-0.042
											c0.033-0.009,0.065-0.012,0.098-0.014c0.001-0.036,0.002-0.072,0.021-0.104c0.015-0.045,0.043-0.081,0.085-0.107
											c0.029-0.013,0.057-0.026,0.086-0.04c0.051-0.016,0.103-0.019,0.154-0.009c0.038,0,0.075,0.008,0.11,0.023
											c0.06,0.015,0.115,0.042,0.165,0.08l0.095,0.082c0.053,0.055,0.093,0.119,0.119,0.191
											c0.016,0.073,0.037,0.151,0.036,0.227c0,0.049-0.004,0.099-0.012,0.148c-0.003,0.015-0.006,0.03-0.012,0.045
											c-0.014,0.035-0.03,0.071-0.048,0.104c-0.003,0.006-0.007,0.012-0.011,0.018c-0.017,0.023-0.065,0.073-0.102,0.092
											c-0.003,0.002-0.006,0.003-0.009,0.004c-0.032,0.016-0.065,0.032-0.097,0.045c-0.007,0.003-0.014,0.005-0.021,0.007
											c-0.024,0.006-0.05,0.008-0.073,0.012c-0.025,0.004-0.051,0.009-0.076,0.01c-0.009,0-0.019,0-0.028,0
											c-0.048-0.003-0.095-0.008-0.143-0.014c-0.024-0.003-0.047-0.009-0.07-0.015c-0.063-0.012-0.121-0.035-0.174-0.07
											c-0.06-0.029-0.112-0.068-0.156-0.117c-0.044-0.043-0.077-0.092-0.1-0.148c-0.028-0.047-0.043-0.099-0.046-0.154
											C111.962,178.692,111.964,178.659,111.967,178.627z"/>
										<path style="fill:#E14A31;" d="M115.262,180.06c0.018-0.086,0.036-0.171,0.054-0.257c0.007-0.036,0.025-0.065,0.053-0.087
											c0.023-0.028,0.052-0.046,0.089-0.054c0.025-0.004,0.05-0.007,0.075-0.011c0.043-0.002,0.084,0.006,0.123,0.022
											c0.03,0.007,0.058,0.019,0.083,0.037c0.043,0.021,0.08,0.049,0.112,0.084c0.018,0.023,0.036,0.046,0.054,0.069
											c0.029,0.045,0.046,0.094,0.05,0.148c0.018,0.097,0.036,0.195,0.055,0.292c0.004,0.057-0.009,0.109-0.041,0.156
											c-0.019,0.019-0.038,0.038-0.058,0.057c-0.049,0.032-0.104,0.047-0.162,0.048c-0.05,0.002-0.098-0.007-0.144-0.025
											c-0.052-0.013-0.101-0.037-0.144-0.07c-0.046-0.03-0.084-0.067-0.115-0.112c-0.033-0.037-0.057-0.079-0.073-0.127
											C115.253,180.173,115.25,180.117,115.262,180.06z"/>
										<path style="fill:#E14A31;" d="M117.926,177.817c0.009-0.042,0.03-0.076,0.062-0.102c0.027-0.033,0.061-0.054,0.104-0.063
											l0.121-0.032c0.066-0.017,0.133-0.019,0.2-0.004c0.077,0.017,0.147,0.048,0.212,0.094c0.03,0.026,0.061,0.052,0.091,0.078
											c0.051,0.053,0.09,0.114,0.114,0.183c0.019,0.046,0.024,0.093,0.016,0.14c0.001,0.046-0.013,0.088-0.041,0.126
											c-0.076,0.109-0.224,0.131-0.345,0.104l-0.142-0.032c-0.033-0.01-0.065-0.021-0.098-0.032
											c-0.052-0.021-0.098-0.051-0.137-0.09c-0.029-0.021-0.054-0.046-0.073-0.076c-0.033-0.037-0.057-0.079-0.073-0.127
											c-0.006-0.029-0.012-0.058-0.018-0.087C117.921,177.872,117.923,177.844,117.926,177.817z"/>
										<path style="fill:#E14A31;" d="M93.997,186.703c0.002,0.05-0.002,0.102,0.007,0.151c0.011,0.066,0.023,0.134,0.046,0.197
											c0.013,0.037,0.024,0.075,0.036,0.113c0.034,0.094,0.085,0.176,0.155,0.248c0.076,0.079,0.165,0.141,0.265,0.186
											c0.163,0.071,0.37,0.095,0.526-0.01c0.03-0.02,0.061-0.04,0.09-0.062c0.007-0.005,0.014-0.011,0.02-0.017
											c0.027-0.025,0.062-0.059,0.087-0.085c0.001-0.001,0.003-0.003,0.004-0.004c0.002-0.002,0.004-0.005,0.005-0.007
											c0.002-0.003,0.003-0.005,0.005-0.008c0.011-0.02,0.041-0.087,0.05-0.108c0.001-0.001,0.001-0.003,0.002-0.004
											c0.002-0.006,0.003-0.011,0.004-0.017c0.003-0.018,0.004-0.036,0.007-0.054c0.004-0.031,0.011-0.062,0.019-0.093
											c0.016-0.06,0.015-0.118-0.002-0.176c-0.009-0.065-0.032-0.126-0.07-0.181c-0.029-0.038-0.059-0.076-0.088-0.113
											c-0.039-0.033-0.078-0.067-0.117-0.1c-0.009-0.007-0.021-0.008-0.03-0.015c-0.08-0.083-0.181-0.151-0.285-0.196
											c-0.099-0.045-0.203-0.067-0.312-0.066c-0.073-0.003-0.141,0.013-0.202,0.049c-0.064,0.021-0.116,0.061-0.154,0.12
											C94.012,186.527,93.99,186.611,93.997,186.703z"/>
										<path style="fill:#E14A31;" d="M82.108,171.786c0.018-0.044,0.037-0.09,0.06-0.131c0.004-0.006,0.007-0.012,0.012-0.018
											c0.031-0.037,0.069-0.071,0.104-0.104c0.005-0.005,0.011-0.01,0.016-0.014c0.012-0.009,0.025-0.017,0.039-0.024
											c0.051-0.026,0.106-0.056,0.162-0.07c0.061-0.015,0.125-0.023,0.187-0.028c0.021-0.001,0.041-0.001,0.062,0.001
											c0.072,0.006,0.146,0.01,0.217,0.026c0.012,0.003,0.024,0.006,0.036,0.009c0.006,0.002,0.012,0.004,0.018,0.006
											c0.037,0.011,0.124,0.036,0.16,0.052c0.002,0.001,0.004,0.002,0.006,0.003c0.051,0.029,0.102,0.058,0.153,0.086
											c0.012,0.008,0.024,0.017,0.035,0.026c0.006,0.005,0.011,0.009,0.017,0.014c0.006,0.005,0.019,0.016,0.029,0.024
											c0.012,0.007,0.025,0.012,0.036,0.019c0.085,0.053,0.155,0.141,0.212,0.222c0.034,0.048,0.059,0.103,0.077,0.159
											c0.014,0.042,0.021,0.087,0.028,0.131c0.002,0.012,0.003,0.025,0.003,0.037c-0.001,0.128-0.03,0.225-0.095,0.336
											c-0.018,0.031-0.04,0.059-0.064,0.085c-0.045,0.05-0.093,0.1-0.146,0.141c-0.062,0.049-0.14,0.084-0.213,0.111
											c-0.016,0.006-0.033,0.01-0.05,0.013c-0.054,0.01-0.113,0.023-0.17,0.021c-0.052-0.002-0.105-0.007-0.156-0.015
											c-0.008-0.001-0.015-0.002-0.022-0.004c-0.054-0.013-0.107-0.032-0.159-0.051c-0.007-0.003-0.015-0.005-0.022-0.009
											c-0.006-0.003-0.012-0.006-0.018-0.009c-0.052-0.028-0.107-0.055-0.156-0.089c-0.006-0.004-0.012-0.009-0.018-0.013
											c-0.047-0.037-0.094-0.077-0.138-0.119c-0.046-0.045-0.084-0.101-0.122-0.152c-0.009-0.012-0.017-0.024-0.024-0.037
											c-0.03-0.054-0.058-0.111-0.08-0.169c-0.006-0.014-0.01-0.029-0.013-0.044c-0.017-0.067-0.038-0.145-0.035-0.217
											C82.082,171.928,82.082,171.85,82.108,171.786z"/>
										<path style="fill:#E14A31;" d="M95.684,168.124l0.079-0.078c0.068-0.043,0.142-0.065,0.222-0.065
											c0.068-0.003,0.134,0.009,0.197,0.035c0.072,0.018,0.138,0.05,0.198,0.095c0.063,0.041,0.116,0.092,0.157,0.153
											c0.046,0.05,0.079,0.108,0.1,0.173c0.008,0.04,0.016,0.079,0.024,0.118c0.006,0.078-0.013,0.149-0.056,0.214l-0.079,0.078
											c-0.068,0.043-0.142,0.065-0.222,0.065c-0.069,0.003-0.134-0.009-0.197-0.035c-0.072-0.018-0.138-0.05-0.198-0.095
											c-0.063-0.041-0.115-0.092-0.157-0.153c-0.045-0.05-0.079-0.108-0.1-0.173c-0.008-0.04-0.016-0.079-0.024-0.118
											C95.622,168.26,95.641,168.189,95.684,168.124z"/>
										<path style="fill:#E14A31;" d="M117.868,171.229c0.002-0.018,0.006-0.035,0.011-0.052c0.015-0.052,0.041-0.103,0.065-0.15
											c0.007-0.015,0.015-0.029,0.026-0.041c0.033-0.042,0.074-0.081,0.115-0.114c0.043-0.034,0.1-0.054,0.148-0.075
											c0.017-0.007,0.033-0.013,0.05-0.017c0.059-0.013,0.123-0.024,0.184-0.024c0.068,0,0.138,0.008,0.205,0.019
											c0.088,0.014,0.169,0.052,0.246,0.095c0.034,0.019,0.069,0.038,0.102,0.059c0.025,0.017,0.05,0.035,0.073,0.055
											c0.038,0.033,0.076,0.065,0.114,0.098c0.051,0.049,0.089,0.106,0.115,0.17c0.028,0.058,0.051,0.129,0.053,0.198
											c0.027,0.045,0.052,0.091,0.073,0.142c0.024,0.057,0.034,0.12,0.044,0.18c0.01,0.059,0.001,0.121-0.007,0.179
											c-0.004,0.029-0.013,0.056-0.024,0.083c-0.024,0.057-0.048,0.116-0.088,0.164c-0.053,0.064-0.119,0.132-0.195,0.172
											c-0.105,0.054-0.188,0.083-0.308,0.087c-0.057,0.002-0.116-0.006-0.172-0.016c-0.06-0.011-0.119-0.033-0.174-0.055
											c-0.06-0.024-0.117-0.06-0.171-0.094c-0.056-0.035-0.104-0.083-0.153-0.126c-0.063-0.055-0.114-0.125-0.16-0.194
											c-0.046-0.069-0.081-0.147-0.113-0.222c-0.016-0.038-0.028-0.077-0.037-0.117c-0.017-0.076-0.037-0.156-0.037-0.235
											C117.855,171.342,117.861,171.285,117.868,171.229z"/>
										<path style="fill:#E14A31;" d="M126.332,163.167c-0.012,0.043-0.011,0.085,0.002,0.127
											c0.006,0.047,0.023,0.091,0.051,0.131l0.064,0.082l0.084,0.072c0.044,0.033,0.093,0.057,0.146,0.071
											c0.031,0.014,0.063,0.021,0.097,0.021c0.046,0.008,0.091,0.006,0.136-0.008c0.025-0.012,0.051-0.023,0.076-0.035
											c0.011-0.008,0.022-0.017,0.032-0.026c0.025-0.022,0.048-0.046,0.072-0.07c0.005-0.005,0.009-0.01,0.013-0.015
											c0.012-0.026,0.024-0.052,0.036-0.078c0.001-0.001,0.001-0.003,0.002-0.004c0.001-0.003,0.002-0.006,0.003-0.008
											c0.002-0.006,0.004-0.013,0.006-0.019c0.004-0.012,0.007-0.024,0.009-0.037c0.007-0.04,0.009-0.081,0.012-0.121
											c0.001-0.013,0.001-0.026,0.001-0.038c-0.001-0.014-0.002-0.028-0.004-0.042c-0.006-0.042-0.015-0.083-0.025-0.124
											c-0.023-0.065-0.059-0.122-0.107-0.171c-0.028-0.024-0.057-0.049-0.085-0.073c-0.045-0.034-0.094-0.058-0.148-0.071
											c-0.031-0.014-0.064-0.021-0.099-0.021c-0.046-0.009-0.092-0.006-0.138,0.008c-0.025,0.012-0.051,0.024-0.077,0.036
											c-0.038,0.023-0.063,0.055-0.076,0.096c-0.022,0.037-0.03,0.078-0.024,0.122c0.001,0.008,0,0.016,0.001,0.024
											c-0.005,0.025-0.009,0.05-0.02,0.073c0.007-0.015,0.013-0.029,0.02-0.044c0,0,0,0,0,0.001
											c-0.015,0.029-0.032,0.058-0.04,0.091C126.346,163.132,126.339,163.149,126.332,163.167z"/>
									</g>
								</g>
							</g>
						</g>
					</g>
				</g>
				<path style="fill:#823B19;" d="M238.758,82.693c-0.492-4.333-0.905-8.719-1.79-13c-0.429-1.247-0.871-2.489-1.334-3.723
					c-1.164-3.106-2.358-6.208-3.719-9.233c-2.642-5.874-5.889-11.516-10.131-16.389c-4.215-4.841-9.375-9.115-15.038-12.151
					c-3.257-1.746-6.786-3.141-10.425-3.834c-1.869-0.356-3.787-0.527-5.682-0.289c-0.17,0.021-0.339,0.05-0.508,0.078
					c-0.453-0.621-0.935-1.219-1.432-1.793c-2.712-3.131-6.104-5.619-9.674-7.687c-8.151-4.721-17.332-7.313-26.705-8.001
					c-9.952-0.731-19.96,0.651-29.432,3.732c-10.133,3.296-19.711,7.998-29.15,12.892c-4.516,2.342-8.987,4.791-13.557,7.027
					c-4.313,2.111-8.977,4.022-13.866,3.882c-1.211-0.035-2.365-0.245-3.54-0.523c-0.679-0.161-1.744,0.738-1.058,1.359
					c1.627,1.474,3.493,2.645,5.662,3.105c0.509,0.108,1.022,0.18,1.536,0.226c-3.484,2.065-6.809,4.394-9.927,6.981
					c-3.835,3.182-7.312,6.725-10.214,10.788c-2.711,3.795-4.663,7.925-6.299,12.274c-0.796,2.115-1.498,4.294-1.833,6.534
					c-0.29,1.942-0.313,4.157,0.865,5.828c0.304,0.431,1.042,0.198,1.316-0.138c3.293-4.035,6.208-8.63,10.126-12.114
					c-4.794,6.507-8.962,13.404-11.727,21.063c-1.116,3.089-2.245,6.172-3.046,9.362c-0.684,2.723-1.389,5.879-0.849,8.73
					c1.106,0.224,2.192,0.572,3.229,0.989c2.478,0.997,4.79,2.369,6.984,3.882c1.803,1.244,3.533,2.593,5.217,3.994
					c2.023,1.683,4.011,3.388,5.857,5.267c3.848,3.917,7.344,8.367,10.135,13.102c3.192,5.416,7.028,19.635,9.05,25.536
					c0.175-0.605-0.402-12.048-0.114-12.943c-0.002-0.737-0.004-1.474-0.005-2.211c-0.014-6.858-0.108-13.74,0.655-20.566
					c0.768-6.872,2.642-13.458,5.659-19.684c2.967-6.124,6.804-11.845,11.166-17.061c1.873-2.24,3.817-4.527,5.97-6.543
					c-1.65,2.002-3.233,4.06-4.807,6.132c-3.012,3.967-5.925,8.048-8.254,12.461c-2.427,4.598-4.513,9.915-3.779,15.211
					c0.037,0.269,0.328,0.363,0.552,0.387c5.201,0.542,10.444-1.007,15.266-2.802c4.927-1.834,9.694-4.11,14.472-6.295
					c9.007-4.118,17.69-9.074,25.721-14.896c-1.962,2.161-3.971,4.277-6.107,6.272c-3.128,2.921-6.458,5.609-9.843,8.225
					c-1.714,1.325-3.427,2.641-5.216,3.862c-1.664,1.135-3.346,2.32-4.494,4.007c-0.134,0.197-0.185,0.6,0.075,0.736
					c2.132,1.114,4.759,0.297,6.834-0.553c2.874-1.177,5.547-2.869,8.1-4.621c5.797-3.976,11.323-8.442,16.495-13.193
					c0.89-0.817,1.753-1.667,2.622-2.511c-1.111,1.763-2.249,3.508-3.496,5.181c-3.085,4.137-6.941,7.882-10.971,11.098
					c-1.799,1.436-4.092,2.493-5.195,4.623c-0.118,0.227-0.172,0.521,0.071,0.692c2.136,1.503,5.222,1.169,7.667,0.916
					c3.055-0.315,6.127-0.639,9.135-1.273c7.034-1.482,13.838-4.205,20.149-7.619c5.26-2.846,9.901-6.705,13.594-11.414
					c2.206-2.814,4.066-5.873,5.608-9.089c0.36,0.894,0.722,1.789,1.069,2.685c2.147,5.54,3.854,11.251,5.376,16.991
					c3.076,11.6,5.7,23.379,6.572,35.372c0.244,3.353,0.361,6.714,0.352,10.077c-0.008,2.902,0.038,5.756,0.599,8.599
					c1.109-2.376,2.248-4.741,3.472-7.059c0.226-0.787,0.46-1.572,0.71-2.351c1.046-3.255,2.331-6.438,4.087-9.38
					c3.215-5.384,7.901-9.482,12.712-13.398c0.916-0.746,1.83-1.492,2.739-2.243c-0.14,0.84-0.289,1.68-0.454,2.52
					c-0.066,0.334,0.258,0.585,0.541,0.633c0.394,0.066,0.754-0.145,1.035-0.399c4.585-4.146,8.529-8.827,10.471-14.791
					c1.423-4.371,1.954-9.011,1.768-13.614c0.75,2.072,1.382,4.183,1.707,6.369c0.017,0.111,0.03,0.222,0.046,0.333
					c0.627-3.304,1.041-6.645,1.2-10.014C239.559,92.427,239.309,87.541,238.758,82.693z"/>
				<path style="opacity:0.31;fill:#5D2502;" d="M238.758,82.693c-0.492-4.333-0.905-8.719-1.79-13
					c-0.052-0.151-0.106-0.3-0.158-0.451c0.161,1.676,0.255,3.358,0.283,5.043c0.117,7.206-1.016,14.372-2.754,21.35
					c-0.829,3.328-1.875,6.605-3.288,9.733c-1.447,3.203-3.295,6.205-5.479,8.958c-2.048,2.581-4.085,5.201-6.29,7.65
					c-2.113,2.346-4.498,4.663-7.455,5.895c-0.227,0.095-0.529-0.146-0.505-0.385c0.437-4.318,1.185-8.594,1.787-12.89
					c0.54-3.853,0.936-7.737,0.869-11.633c-0.022-1.287-0.081-2.577-0.157-3.866c-0.237,3.389-0.681,6.766-1.325,10.104
					c-1.983,10.274-5.781,20.156-10.803,29.32c-0.191,0.348-0.75,0.19-0.744-0.201c0.101-6.495,0.024-12.995-0.373-19.48
					c-0.347-5.672-0.938-11.33-1.833-16.943c-0.461-2.885-1.003-5.739-1.719-8.572c-0.712-2.814-1.49-5.612-2.316-8.395
					c-0.816-2.748-1.678-5.481-2.567-8.206c-0.856-2.624-1.719-5.214-2.943-7.694c-0.369-0.748-0.761-1.484-1.161-2.215
					c-0.042,0.478-0.09,0.955-0.15,1.431c-0.723,5.733-2.664,11.269-5.541,16.274c-2.96,5.15-6.874,9.599-11.359,13.47
					c-4.814,4.155-10.135,7.803-15.904,10.5c-5.63,2.632-11.786,4.381-18.045,4.182c-0.348-0.011-0.523-0.427-0.282-0.681
					c2.549-2.694,5.242-5.248,7.794-7.939c2.29-2.414,4.402-4.984,6.456-7.601c2.058-2.623,4.009-5.338,5.7-8.214
					c0.789-1.342,1.42-2.74,1.991-4.165c-1.881,1.937-3.865,3.777-5.889,5.55c-4.349,3.809-8.694,7.778-14.28,9.667
					c-0.384,0.13-0.664-0.397-0.388-0.667c2.065-2.02,3.959-4.208,5.703-6.51c3.386-4.471,6.268-9.304,8.803-14.319
					c-3.099,2.494-6.333,4.823-9.647,7.019c-5.026,3.331-10.23,6.434-15.53,9.309c-5.942,3.223-11.934,6.382-18.209,8.918
					c-3.01,1.217-6.095,2.176-9.166,3.22c-2.634,0.896-5.529,1.896-8.34,1.328c-0.206-0.042-0.341-0.296-0.279-0.491
					c1.793-5.642,4.534-10.946,7.591-15.997c2.551-4.216,5.241-8.43,8.413-12.209c2.963-3.531,6.27-6.778,9.826-9.711
					c0.991-0.817,2.011-1.617,3.055-2.397c-3.981,1.509-7.871,3.253-11.624,5.267c-6.329,3.395-12.272,7.54-17.489,12.486
					c-5.626,5.335-10.528,11.506-14.036,18.438c-1.833,3.622-3.398,7.503-4.109,11.515c-0.748,4.218-0.584,8.527-1.126,12.768
					c-0.034,0.266-0.325,0.542-0.6,0.345c-3.323-2.381-6.423-5.078-9.267-8.015c-2.568-2.652-4.948-5.514-6.953-8.617
					c-2.037-3.153-3.525-6.6-3.955-10.354c-0.71-6.193,1.616-12.079,4.381-17.541c-0.505,0.64-0.992,1.294-1.451,1.97
					c-3.742,5.504-5.897,11.852-7.985,18.117c-0.151,0.454-0.727,0.325-0.784-0.106c-0.654-5.007-0.39-10.096,0.602-15.042
					c1.814-9.05,5.987-17.577,11.467-24.963c4.276-5.762,9.411-10.951,15.253-15.141c-1.061,0.536-2.112,1.089-3.145,1.677
					c-4.413,2.512-8.519,5.523-12.232,8.987c-3.888,3.626-7.334,7.695-10.51,11.951c-0.266,0.357-0.828,0.154-0.729-0.307
					c0.553-2.583,1.304-5.121,2.214-7.601c1.714-4.674,3.966-9.191,6.859-13.25c0.465-0.653,0.95-1.295,1.453-1.925
					c-2.89,2.631-5.534,5.502-7.817,8.699c-2.711,3.795-4.663,7.925-6.299,12.274c-0.796,2.115-1.498,4.294-1.833,6.534
					c-0.29,1.942-0.313,4.157,0.865,5.828c0.304,0.431,1.042,0.198,1.316-0.138c3.293-4.035,6.208-8.63,10.126-12.114
					c-4.794,6.507-8.962,13.404-11.727,21.063c-1.116,3.089-2.245,6.172-3.046,9.362c-0.684,2.723-1.389,5.879-0.849,8.73
					c1.106,0.224,2.192,0.572,3.229,0.989c2.478,0.997,4.79,2.369,6.984,3.882c1.803,1.244,3.533,2.593,5.217,3.994
					c2.023,1.683,4.011,3.388,5.857,5.267c3.848,3.917,7.344,8.367,10.135,13.102c3.192,5.416,7.028,19.635,9.05,25.536
					c0.175-0.605-0.402-12.048-0.114-12.943c-0.002-0.737-0.004-1.474-0.005-2.211c-0.014-6.858-0.108-13.74,0.655-20.566
					c0.768-6.872,2.642-13.458,5.659-19.684c2.967-6.124,6.804-11.845,11.166-17.061c1.873-2.24,3.817-4.527,5.97-6.543
					c-1.65,2.002-3.233,4.06-4.807,6.132c-3.012,3.967-5.925,8.048-8.254,12.461c-2.427,4.598-4.513,9.915-3.779,15.211
					c0.037,0.269,0.328,0.363,0.552,0.387c5.201,0.542,10.444-1.007,15.266-2.802c4.927-1.834,9.694-4.11,14.472-6.295
					c9.007-4.118,17.69-9.074,25.721-14.896c-1.962,2.161-3.971,4.277-6.107,6.272c-3.128,2.921-6.458,5.609-9.843,8.225
					c-1.714,1.325-3.427,2.641-5.216,3.862c-1.664,1.135-3.346,2.32-4.494,4.007c-0.134,0.197-0.185,0.6,0.075,0.736
					c2.132,1.114,4.759,0.297,6.834-0.553c2.874-1.177,5.547-2.869,8.1-4.621c5.797-3.976,11.323-8.442,16.495-13.193
					c0.89-0.817,1.753-1.667,2.622-2.511c-1.111,1.763-2.249,3.508-3.496,5.181c-3.085,4.137-6.941,7.882-10.971,11.098
					c-1.799,1.436-4.092,2.493-5.195,4.623c-0.118,0.227-0.172,0.521,0.071,0.692c2.136,1.503,5.222,1.169,7.667,0.916
					c3.055-0.315,6.127-0.639,9.135-1.273c7.034-1.482,13.838-4.205,20.149-7.619c5.26-2.846,9.901-6.705,13.594-11.414
					c2.206-2.814,4.066-5.873,5.608-9.089c0.36,0.894,0.722,1.789,1.069,2.685c2.147,5.54,3.854,11.251,5.376,16.991
					c3.076,11.6,5.7,23.379,6.572,35.372c0.244,3.353,0.361,6.714,0.352,10.077c-0.008,2.902,0.038,5.756,0.599,8.599
					c1.109-2.376,2.248-4.741,3.472-7.059c0.226-0.787,0.46-1.572,0.71-2.351c1.046-3.255,2.331-6.438,4.087-9.38
					c3.215-5.384,7.901-9.482,12.712-13.398c0.916-0.746,1.83-1.492,2.739-2.243c-0.14,0.84-0.289,1.68-0.454,2.52
					c-0.066,0.334,0.258,0.585,0.541,0.633c0.394,0.066,0.754-0.145,1.035-0.399c4.585-4.146,8.529-8.827,10.471-14.791
					c1.423-4.371,1.954-9.011,1.768-13.614c0.75,2.072,1.382,4.183,1.707,6.369c0.017,0.111,0.03,0.222,0.046,0.333
					c0.627-3.304,1.041-6.645,1.2-10.014C239.559,92.427,239.309,87.541,238.758,82.693z"/>
			</g>
			<g>
				<path style="fill:#F04E3D;" d="M133.143,197.364l-11.984-0.125c0,0,1.151,11.573,10.176,14.582
					c9.025,3.008,19.564-0.669,22.526-4.346c2.962-3.677,4.649-12.988,4.649-12.988L133.143,197.364z"/>
				<path style="fill:#F37B86;" d="M151.277,205.657c-4.367-2.361-9.405-3.124-14.302-2.496c-4.002,0.513-8.359,2.098-10.682,5.48
					c1.322,1.348,2.974,2.49,5.043,3.18c9.025,3.008,19.564-0.669,22.526-4.346c0.015-0.019,0.03-0.04,0.045-0.059
					C153.094,206.736,152.192,206.152,151.277,205.657z"/>
				<path style="fill:#FFFFFF;" d="M125.416,200.89c0.897,0.943,2.031,1.634,3.239,2.105c2.603,1.015,5.478,1.174,8.243,1.121
					c2.903-0.055,5.836-0.318,8.678-0.923c2.748-0.585,5.544-1.546,7.713-3.392c1.609-1.37,2.67-3.135,3.251-5.09l-23.396,2.653
					l-9.654-0.1C123.825,198.613,124.453,199.878,125.416,200.89z"/>
				<path style="fill:#E54222;" d="M157.033,196.434c-0.939,1.931-1.33,4.074-2.329,5.979c-1.637,3.122-4.553,5.319-7.931,6.42
					c-1.967,0.641-4.089,0.96-6.148,1.145c-2.193,0.196-4.427,0.17-6.591-0.26c-1.995-0.396-3.899-1.094-5.5-2.345
					c-1.441-1.126-2.578-2.585-3.469-4.154c-1.057-1.862-1.616-4-2.989-5.688c-0.01-0.012-0.021-0.023-0.031-0.035
					c-1.498-0.4-2.96-0.944-4.298-1.696c0.793,2.042,1.534,4.1,2.307,6.151c0.852,2.26,1.758,4.576,3.137,6.589
					c2.404,3.508,6.199,6.051,10.349,7.174c4.24,1.148,8.967,0.898,13.13-0.434c2.134-0.683,4.2-1.695,5.925-3.111
					c1.73-1.42,3.114-3.2,4.17-5.146c1.177-2.17,2.086-4.597,2.45-7.033c0.206-1.376,0.289-2.767,0.489-4.145
					c0.105-0.723,0.171-1.672,0.522-2.393c-0.816,0.519-1.646,1.011-2.497,1.469C157.485,195.431,157.267,195.954,157.033,196.434z"
					/>
				<path style="opacity:0.48;fill:#E05A3B;" d="M119.202,198.427c1.344,0.863,2.891,1.373,4.433,1.765
					c-0.429-0.937-0.899-1.851-1.558-2.66c-0.01-0.012-0.021-0.023-0.031-0.035c-1.497-0.4-2.96-0.944-4.298-1.696
					c0.279,0.718,0.546,1.438,0.816,2.159C118.768,198.126,118.98,198.284,119.202,198.427z"/>
				<path style="opacity:0.48;fill:#E05A3B;" d="M159.719,195.753c0.098-0.71,0.173-1.61,0.509-2.301
					c-0.816,0.519-1.646,1.011-2.497,1.469c-0.245,0.509-0.464,1.032-0.697,1.513c-0.094,0.193-0.179,0.39-0.263,0.586
					C157.786,196.694,158.778,196.259,159.719,195.753z"/>
				<path style="fill:#E54222;" d="M123.977,198.569c1.067,0.208,2.14,0.393,3.217,0.556c1.228,0.071,2.459,0.105,3.688,0.124
					c4.235,0.066,8.467-0.049,12.691-0.344c0.693-0.085,1.386-0.177,2.077-0.28c3.765-0.566,7.515-1.399,11.099-2.743
					c1.699-0.637,3.36-1.385,4.98-2.218c-0.501-0.07-1.002-0.139-1.502-0.212c-3.081-0.093-12.414-1.598-13.344-1.771
					c-1.543-0.287-4.497,0.324-5.818,1.224c-0.617,0.42-1.189,0.908-1.803,1.331c-0.088,0.061-0.178,0.122-0.269,0.184
					c-2.603-1.458-5.393-2.063-8.376-1.735c-0.563,0.062-1.12,0.152-1.675,0.258c-2.821,0.808-11.589,2.731-12.874,2.858
					c0.735,0.395,2.121,1.125,2.904,1.421C120.595,197.835,122.282,198.238,123.977,198.569z"/>
			</g>
		</g>
	</g>
	<path style="fill:#231F20;" d="M208.118,135.169c-3.406-0.426-7.237-0.426-13.198-2.98c-5.96-2.554-20.01-3.406-30.653-1.277
		c-10.643,2.129-14.726,8.336-15.965,9.579c-2.071,2.078-7.663,2.554-8.728,2.342c-1.064,0.213-6.656-0.264-8.728-2.342
		c-1.239-1.243-5.322-7.45-15.965-9.579c-10.643-2.129-24.693-1.277-30.653,1.277c-5.96,2.554-9.792,2.554-13.198,2.98
		c-3.406,0.426-3.406,2.98-3.406,2.98c0.426,6.386,2.674,5.773,3.832,8.089c0.426,0.851,0.852,5.535,1.277,11.495
		c0.426,5.96,5.535,15.752,13.624,19.158c8.089,3.406,23.841,5.109,33.633,0c9.792-5.109,11.921-17.029,13.624-22.99
		c1.703-5.96,5.96-4.683,5.96-4.683s4.257-1.277,5.96,4.683c1.703,5.96,3.832,17.881,13.624,22.99
		c9.792,5.109,25.544,3.406,33.633,0c8.089-3.406,13.198-13.198,13.624-19.158c0.426-5.96,0.852-10.643,1.277-11.495
		c1.158-2.316,3.406-1.703,3.832-8.089C211.524,138.149,211.524,135.594,208.118,135.169z M117.649,173.697
		c-9.792,5.109-25.544,4.257-33.633-2.129c-8.089-6.386-8.089-20.861-7.238-26.396c0,0,0-7.238,12.772-9.366
		c12.772-2.129,24.267-2.555,33.207,3.406c0,0,5.535,2.98,5.96,10.218C129.144,156.668,127.441,168.589,117.649,173.697z
		 M195.133,171.569c-8.089,6.386-23.841,7.238-33.633,2.129c-9.792-5.109-11.495-17.029-11.069-24.267s5.96-10.218,5.96-10.218
		c8.94-5.96,20.435-5.535,33.207-3.406c12.772,2.129,12.772,9.366,12.772,9.366C203.222,150.708,203.222,165.183,195.133,171.569z"
		/>
</g>
</svg>
