<?xml version="1.0" encoding="utf-8"?>
<!-- Generator: Adobe Illustrator 27.5.0, SVG Export Plug-In . SVG Version: 6.00 Build 0)  -->
<svg version="1.1" id="Layer_1" xmlns="http://www.w3.org/2000/svg" xmlns:xlink="http://www.w3.org/1999/xlink" x="0px" y="0px"
	 viewBox="0 0 234.236 309.674" style="enable-background:new 0 0 234.236 309.674;" xml:space="preserve">
<g>
	<g>
		<path style="fill:#5DE3EC;" d="M156.092,219.147c-5.49,5.516-16.851,13.443-36.824,13.443c-23.463,0-33.007-9.371-36.192-13.759
			c-0.51,1.749-0.863,3.801-0.909,6.244c-0.167,8.857-0.075,56.279-0.025,76.981c21.837,3.214,47.321,4.342,74.788,0.551
			c0.049-20.398,0.145-68.595-0.024-77.532C156.864,222.779,156.551,220.827,156.092,219.147z"/>
	</g>
	<path style="fill:#6D210D;" d="M12.064,118.413c-0.638,1.121-14.623,61.072,33.977,76.125c-7.312-5.591-9.892-19.784-9.892-19.784
		s5.437,14.897,14.462,19.204c-6.256-4.308-6.667-10.769-6.667-10.769s12.615,14.564,28.718,16.615
		c-12.513-8.41-13.025-9.641-13.025-9.641s5.231,1.744,8.205,2.051c-9.231-6.359-10.667-14.974-10.667-14.974
		s8.308,14.359,22.666,16.308c-4.718-4.513-5.231-5.743-5.231-5.743s47.34,18.991,86.263-19.072
		c-6.236,12.688-17.419,17.419-17.419,17.419s10.537,6.021,24.73-6.881c-4.301,12.042-16.343,17.419-16.343,17.419
		s13.333-2.365,16.128-4.301c-3.011,3.226-4.086,4.086-4.086,4.086s29.999,0.323,42.579-16.128
		c-3.548,9.677-10.967,11.935-10.967,11.935s27.095-6.451,30.644-29.998c3.548-23.547-5.484-32.902-19.676-46.449
		c-14.193-13.548-0.968-27.741,3.548-39.03s2.903-23.225-6.774-32.579C193.56,34.869,72.276,12.612,12.064,118.413z"/>
	<g>
		<path style="fill:#656CFD;" d="M68.082,223.569c-2.258,1.935-62.255,5.806-59.674,56.771c0,0,21.58,11.164,55.758,18.467
			C61.186,252.575,68.082,223.569,68.082,223.569z"/>
		<path style="fill:#8E67FE;" d="M68.082,223.569c0,0-6.896,29.005-3.916,75.238c5.664,1.21,11.661,2.318,17.977,3.247
			c-0.05-20.701-0.142-68.123,0.025-76.981c0.215-11.397,6.881-14.73,6.881-14.73C73.243,213.247,68.082,223.569,68.082,223.569z"/>
	</g>
	<g>
		<path style="fill:#656CFD;" d="M170.983,223.579c0.047,0.197,6.952,29.423,3.874,75.882c18.081-3.861,36.822-9.985,55.785-19.12
			C233.218,229.458,173.423,225.518,170.983,223.579z"/>
		<path style="fill:#8E67FE;" d="M170.983,223.579c-0.004-0.003-0.011-0.006-0.015-0.01c0,0-5.153-10.304-20.927-13.217
			c0.164,0.084,6.654,3.469,6.866,14.722c0.169,8.936,0.073,57.133,0.024,77.532c5.89-0.813,11.871-1.853,17.926-3.146
			C177.935,253.002,171.029,223.776,170.983,223.579z"/>
	</g>
	<g>
		<path style="fill:#FCCAA3;" d="M119.269,232.59c19.973,0,31.334-7.927,36.824-13.443c-1.79-6.554-5.921-8.728-6.052-8.795
			c-0.014-0.003-0.026-0.006-0.04-0.008c-7.419-5.806-7.163-37.017-7.163-37.017s-44.623,0-46.625,0c0,0,0.256,31.211-7.163,37.017
			c0,0-4.104,2.078-5.973,8.487C86.262,223.218,95.806,232.59,119.269,232.59z"/>
		<path style="opacity:0.64;fill:#EB936D;" d="M93.306,202.079c6.773,0.129,13.559-0.951,20.042-2.928
			c9.226-2.814,17.9-7.366,25.8-12.866c1.354-0.943,2.679-1.925,3.992-2.925c-0.337-5.717-0.302-10.033-0.302-10.033
			s-44.623,0-46.625,0C96.212,173.327,96.356,190.85,93.306,202.079z"/>
	</g>
	<g>
		<path style="fill:#656CFD;" d="M80.743,273.419c-2.75-0.897-5.692-1.134-8.57-0.928c-2.792,0.2-5.84,0.758-8.325,2.1
			c-0.186,0.101-0.488,0.675-0.068,0.561c1.329-0.36,2.616-0.828,3.965-1.12c1.357-0.294,2.739-0.475,4.126-0.546
			c2.802-0.143,5.581,0.213,8.313,0.823C80.554,274.391,81.192,273.565,80.743,273.419z"/>
		<path style="fill:#656CFD;" d="M81.22,249.992c-2.802-0.907-5.872-1.006-8.777-0.616c-2.905,0.39-5.834,1.28-8.309,2.877
			c-0.13,0.084-0.392,0.611-0.064,0.462c2.605-1.193,5.258-2.151,8.116-2.505c2.892-0.358,5.758-0.102,8.607,0.448
			C81.052,250.706,81.541,250.096,81.22,249.992z"/>
		<path style="fill:#656CFD;" d="M80.676,227.454c-1.789-1.257-4.258-1.418-6.377-1.251c-2.439,0.193-5.023,0.87-7.248,1.888
			c-0.075,0.034-0.333,0.375-0.131,0.343c1.321-0.209,2.607-0.661,3.913-0.954c1.063-0.239,2.145-0.422,3.233-0.497
			c2.181-0.151,4.142,0.299,6.171,1.055C80.439,228.114,80.882,227.598,80.676,227.454z"/>
	</g>
	<g>
		<path style="fill:#656CFD;" d="M158.164,273.419c2.75-0.897,5.693-1.134,8.57-0.928c2.792,0.2,5.84,0.758,8.325,2.1
			c0.186,0.101,0.488,0.675,0.068,0.561c-1.329-0.36-2.616-0.828-3.965-1.12c-1.357-0.294-2.739-0.475-4.126-0.546
			c-2.802-0.143-5.581,0.213-8.313,0.823C158.354,274.391,157.716,273.565,158.164,273.419z"/>
		<path style="fill:#656CFD;" d="M157.688,249.992c2.802-0.907,5.872-1.006,8.777-0.616c2.905,0.39,5.834,1.28,8.309,2.877
			c0.13,0.084,0.392,0.611,0.064,0.462c-2.605-1.193-5.258-2.151-8.116-2.505c-2.892-0.358-5.758-0.102-8.607,0.448
			C157.855,250.706,157.366,250.096,157.688,249.992z"/>
		<path style="fill:#656CFD;" d="M158.231,227.454c1.789-1.257,4.258-1.418,6.377-1.251c2.439,0.193,5.023,0.87,7.248,1.888
			c0.075,0.034,0.333,0.375,0.131,0.343c-1.321-0.209-2.607-0.661-3.913-0.954c-1.063-0.239-2.145-0.422-3.233-0.497
			c-2.181-0.151-4.142,0.299-6.171,1.055C158.468,228.114,158.026,227.598,158.231,227.454z"/>
	</g>
	<g>
		<path style="fill:#58DCD5;" d="M156.333,231.356c-8.609,5.603-18.511,9.077-28.699,10.304c-10.168,1.225-20.607,0.23-30.308-3.084
			c-5.286-1.806-11.184-4.09-14.605-8.752c-0.118-0.161-0.554,0.289-0.453,0.454c2.341,3.824,6.432,6.087,10.523,7.779
			c-0.213,4.072-0.238,8.155-0.294,12.231c-0.057,4.193-0.108,8.387-0.155,12.581c-0.094,8.38-0.182,16.76-0.263,25.14
			c-0.046,4.751-0.119,9.502-0.128,14.253c-0.001,0.329,0.389,0.291,0.588,0.187c0.291-0.153,0.495-0.477,0.5-0.802
			c0.144-8.376,0.168-16.756,0.247-25.133c0.079-8.369,0.146-16.739,0.191-25.108c0.024-4.359,0.097-8.726-0.036-13.085
			c0.453,0.181,0.906,0.358,1.354,0.528c3.91,1.48,7.964,2.57,12.082,3.286c-0.37,3.885-0.207,7.855-0.231,11.751
			c-0.026,3.998-0.047,7.995-0.057,11.993c-0.019,7.905-0.046,15.811-0.055,23.717c-0.002,2.177-0.005,4.354-0.007,6.531
			c-0.002,2.231-0.159,4.526,0.048,6.747c0.056,0.602,0.912-0.098,0.943-0.435c0.181-1.965,0.071-3.977,0.075-5.951
			c0.004-2.016,0.008-4.033,0.012-6.049c0.008-3.951,0.01-7.901,0.013-11.852c0.006-7.897,0.021-15.793-0.004-23.69
			c-0.007-2.253-0.015-4.506-0.022-6.758c-0.006-1.959,0.021-3.948-0.144-5.906c0.815,0.134,1.631,0.26,2.45,0.365
			c3.635,0.466,7.304,0.63,10.966,0.525c0,0.005-0.004,0.01-0.004,0.015c-0.034,4.05,0.191,8.109,0.306,12.157
			c0.114,4.031,0.197,8.063,0.246,12.096c0.099,7.978,0.09,15.954-0.032,23.932c-0.034,2.254-0.079,4.508-0.133,6.762
			c-0.027,1.127-0.057,2.254-0.09,3.38c-0.032,1.107-0.144,2.238-0.018,3.34c0.067,0.585,0.835-0.131,0.884-0.414
			c0.334-1.932,0.227-3.994,0.283-5.952c0.057-2.015,0.106-4.03,0.147-6.045c0.082-4.027,0.122-8.056,0.132-12.084
			c0.021-8.052-0.099-16.102-0.355-24.15c-0.138-4.341-0.219-8.721-0.653-13.046c6.475-0.251,12.914-1.389,19.076-3.4
			c3.356-1.096,6.624-2.456,9.767-4.062c0,0.002-0.002,0.005-0.002,0.007c-0.208,2.24-0.171,4.505-0.189,6.753
			c-0.018,2.186-0.045,4.371-0.052,6.557c-0.014,4.402-0.034,8.803-0.045,13.205c-0.022,8.834-0.046,17.669-0.029,26.503
			c0.005,2.458,0.01,4.915,0.014,7.372c0.005,2.485-0.053,4.978,0.087,7.46c0.016,0.275,0.307,0.234,0.482,0.143
			c0.246-0.127,0.415-0.407,0.43-0.677c0.235-4.395,0.089-8.829,0.098-13.229c0.008-4.394,0-8.788-0.006-13.182
			c-0.012-8.821-0.029-17.642-0.059-26.464c-0.008-2.452-0.031-4.903-0.051-7.355c-0.02-2.439,0.054-4.913-0.193-7.342
			c1.878-0.979,3.711-2.046,5.486-3.203c0.206-0.134,0.489-0.42,0.44-0.696C156.785,231.248,156.532,231.227,156.333,231.356z"/>
		<path style="fill:#58DCD5;" d="M135.091,254.848c-0.014-2.168-0.015-4.336-0.044-6.504c-0.031-2.294,0.028-4.612-0.32-6.884
			c-0.031-0.205-0.386,0.208-0.399,0.305c-0.239,1.818-0.261,3.636-0.289,5.467c-0.03,2.022-0.043,4.043-0.056,6.065
			c-0.025,3.951-0.029,7.903-0.036,11.854c-0.014,7.974-0.011,15.947-0.006,23.921c0.002,4.466,0.1,8.912,0.323,13.371
			c0.017,0.331,0.521-0.132,0.531-0.336c0.377-7.944,0.325-15.886,0.329-23.838C135.129,270.462,135.141,262.655,135.091,254.848z"
			/>
	</g>
	<path style="fill:#993A20;" d="M50.611,193.959c-6.256-4.308-6.667-10.769-6.667-10.769s7.937,9.154,19.251,13.968
		c-8.094-8.016-13.961-18.253-16.016-29.518c-1.604-8.79-0.677-17.891,2.266-26.303c2.894-8.272,7.551-15.765,12.757-22.765
		c10.816-14.543,24.56-27.227,32.74-43.601c4.42-8.847,6.957-18.652,8.469-28.389c0.159-1.024,0.297-2.05,0.432-3.077
		c-32.962,10.199-67.383,32.04-91.779,74.908c-0.638,1.121-14.623,61.072,33.977,76.125c-7.312-5.591-9.892-19.784-9.892-19.784
		S41.585,189.651,50.611,193.959z"/>
	<g>
		<path style="fill:#FCCAA3;" d="M48.173,130.129c2.349,3.116,5.144,5.851,8.404,7.669c2.568,1.432,7.337,3.777,10.047,1.775
			c2.78-2.053,2.63-8.014,2.521-11.266c-0.153-4.592-1.187-9.33-2.876-13.571c-0.474-2.414-1.182-4.82-2.238-6.993
			c-1.813-3.728-4.772-7.402-8.493-8.604c-6.504-2.101-12.854,2.222-14.07,9.67C40.182,116.682,43.751,124.262,48.173,130.129z"/>
		<path style="opacity:0.64;fill:#EB936D;" d="M63.643,140.337c-0.538-1.589-1.058-3.186-1.556-4.793
			c-1.984-6.407-3.656-12.977-4.696-19.679c-0.837-5.391-1.282-10.92-0.952-16.375c3.297,1.461,5.928,4.832,7.592,8.253
			c1.057,2.173,1.765,4.578,2.238,6.993c1.689,4.242,2.723,8.979,2.876,13.571c0.108,3.252,0.258,9.213-2.521,11.266
			C65.785,140.192,64.75,140.394,63.643,140.337z"/>
		<path style="fill:#EB936D;" d="M44.469,108.735c0.569-1.444,1.755-2.382,3.043-2.715c2.966-0.766,6.274,1.441,8.396,3.792
			c4.724,5.233,6.221,13.35,7.091,20.583c0.051,0.423-0.498,0.181-0.561-0.111c-0.251-1.155-0.506-2.328-0.775-3.506
			c-0.045,0.867-0.147,1.724-0.256,2.494c-0.214,1.512-0.872,2.901-2.238,3.127c-3.296,0.546-6-3.926-7.836-6.456
			c-0.173-0.238,0.156-0.344,0.297-0.185c1.672,1.895,3.452,4.421,5.764,5.175c1.861,0.607,2.523-1.019,2.858-2.828
			c0.276-1.491,0.767-3.235,0.361-4.748c-0.056-0.21,0.004-0.328,0.108-0.377c-0.941-3.475-2.136-6.859-3.919-9.784
			c-1.549-2.541-3.758-4.776-6.386-5.474c-1.789-0.475-3.649,0.061-4.553,2.061c-0.844,1.867-0.335,4.166-0.401,6.211
			c-0.008,0.243-0.351,0.045-0.373-0.122C44.78,113.506,43.538,111.098,44.469,108.735z"/>
	</g>
	<path style="fill:#993A20;" d="M206.463,115.833c-14.193-13.548-0.968-27.741,3.548-39.03c4.516-11.29,2.903-23.225-6.774-32.579
		c-4.451-4.302-32.514-11.328-67.384-7.372c8.086,15.058,15.044,30.69,21.735,46.408c3.206,7.531,6.461,15.034,9.754,22.528
		c3.424,7.792,6.72,15.67,9.171,23.83c2.31,7.691,3.898,15.725,3.651,23.788c-0.228,7.439-2.153,14.954-5.766,21.479
		c-3.039,5.487-7.207,10.173-12.091,13.96c-4.911,5.363-10.464,7.846-10.464,7.846s13.333-2.365,16.128-4.301
		c-3.011,3.226-4.086,4.086-4.086,4.086s29.999,0.323,42.579-16.128c-3.548,9.677-10.967,11.935-10.967,11.935
		s27.096-6.451,30.644-29.998C229.687,138.735,220.656,129.38,206.463,115.833z"/>
	<g>
		<path style="fill:#FCCAA3;" d="M196.911,108.809c-1.216-7.448-7.566-11.771-14.07-9.67c-3.72,1.202-6.679,4.876-8.493,8.604
			c-1.057,2.173-1.765,4.578-2.238,6.993c-1.689,4.242-2.723,8.979-2.876,13.571c-0.108,3.252-0.259,9.213,2.521,11.266
			c2.711,2.002,7.48-0.343,10.048-1.775c3.26-1.818,6.055-4.553,8.404-7.669C194.628,124.262,198.197,116.682,196.911,108.809z"/>
		<path style="opacity:0.64;fill:#EB936D;" d="M174.736,140.337c0.538-1.589,1.058-3.186,1.556-4.793
			c1.984-6.407,3.656-12.977,4.696-19.679c0.837-5.391,1.283-10.92,0.952-16.375c-3.297,1.461-5.928,4.832-7.592,8.253
			c-1.057,2.173-1.765,4.578-2.238,6.993c-1.689,4.242-2.723,8.979-2.876,13.571c-0.108,3.252-0.259,9.213,2.521,11.266
			C172.594,140.192,173.629,140.394,174.736,140.337z"/>
		<path style="fill:#EB936D;" d="M193.91,108.735c-0.569-1.444-1.755-2.382-3.044-2.715c-2.966-0.766-6.274,1.441-8.396,3.792
			c-4.724,5.233-6.221,13.35-7.091,20.583c-0.051,0.423,0.498,0.181,0.561-0.111c0.251-1.155,0.506-2.328,0.775-3.506
			c0.045,0.867,0.147,1.724,0.256,2.494c0.214,1.512,0.872,2.901,2.238,3.127c3.297,0.546,6-3.926,7.836-6.456
			c0.173-0.238-0.157-0.344-0.297-0.185c-1.672,1.895-3.452,4.421-5.765,5.175c-1.861,0.607-2.523-1.019-2.858-2.828
			c-0.276-1.491-0.767-3.235-0.361-4.748c0.056-0.21-0.004-0.328-0.108-0.377c0.941-3.475,2.136-6.859,3.919-9.784
			c1.549-2.541,3.758-4.776,6.386-5.474c1.79-0.475,3.649,0.061,4.553,2.061c0.844,1.867,0.335,4.166,0.401,6.211
			c0.008,0.243,0.351,0.045,0.373-0.122C193.599,113.506,194.841,111.098,193.91,108.735z"/>
	</g>
	<path style="fill:#FCCAA3;" d="M56.122,87.681c0,0,4.074,55.934,26.379,77.791c24.541,24.048,48.628,29.524,76.604-2.584
		c11.942-14.047,14.419-27.524,17.062-42.209c2.643-14.686,19.167-86.38-29.016-98.425C82.293,6.039,53.479,53.023,56.122,87.681z"
		/>
	<ellipse style="opacity:0.21;fill:#EB936D;" cx="154.782" cy="127.349" rx="17.232" ry="11.847"/>
	<ellipse style="opacity:0.21;fill:#EB936D;" cx="83.865" cy="127.349" rx="17.232" ry="11.847"/>
	<g style="opacity:0.47;">
		<path style="fill:#E14A31;" d="M144.721,122.19c-0.014-0.045-0.042-0.08-0.084-0.105c-0.041-0.029-0.085-0.044-0.134-0.046
			c-0.052-0.012-0.104-0.01-0.156,0.003c-0.037,0.012-0.074,0.024-0.11,0.036c-0.077,0.034-0.144,0.081-0.202,0.141
			c-0.024,0.031-0.047,0.061-0.071,0.091c-0.038,0.06-0.06,0.124-0.067,0.195v0.129c-0.006,0.049,0.003,0.094,0.027,0.134
			c0.014,0.045,0.042,0.08,0.084,0.105c0.041,0.029,0.085,0.044,0.134,0.046c0.052,0.012,0.104,0.011,0.156-0.003
			c0.037-0.012,0.073-0.024,0.11-0.036c0.076-0.034,0.144-0.081,0.202-0.141c0.024-0.031,0.047-0.061,0.071-0.091
			c0.038-0.06,0.06-0.124,0.067-0.195v-0.129C144.754,122.275,144.745,122.23,144.721,122.19z"/>
		<path style="fill:#E14A31;" d="M148.95,121.149c-0.41,0-0.794,0.729-0.25,0.729C149.11,121.878,149.494,121.149,148.95,121.149z"
			/>
		<path style="fill:#E14A31;" d="M153.882,120.846c-0.007-0.06-0.019-0.119-0.036-0.177c-0.007-0.022-0.017-0.043-0.028-0.063
			c-0.01-0.061-0.031-0.119-0.087-0.153c-0.08-0.049-0.162-0.048-0.253-0.037c-0.102-0.005-0.206,0.004-0.292,0.051
			c-0.042,0.023-0.08,0.047-0.119,0.071c-0.169,0.078-0.325,0.185-0.448,0.319c-0.228,0.248-0.356,0.564-0.381,0.898
			c-0.007,0.086,0.025,0.167,0.085,0.227c0.066,0.065,0.142,0.085,0.235,0.093c0.134,0.012,0.267,0.005,0.401-0.015
			c0.166-0.025,0.314-0.094,0.456-0.179c0.069-0.041,0.132-0.098,0.189-0.153c0.057-0.055,0.107-0.12,0.148-0.187
			c0.081-0.132,0.128-0.28,0.143-0.434C153.902,121.021,153.891,120.932,153.882,120.846z"/>
		<path style="fill:#E14A31;" d="M160.737,122.597c-0.011-0.053-0.037-0.095-0.078-0.127c-0.033-0.041-0.076-0.067-0.13-0.079
			c-0.013-0.005-0.027-0.011-0.04-0.016c-0.031-0.004-0.061-0.009-0.092-0.013c-0.053-0.002-0.103,0.007-0.151,0.027
			c-0.037,0.008-0.071,0.023-0.102,0.045c-0.053,0.025-0.098,0.06-0.138,0.103l-0.051,0.046c-0.026,0.034-0.053,0.068-0.079,0.101
			c-0.034,0.049-0.055,0.103-0.063,0.161c-0.012,0.035-0.015,0.07-0.007,0.105c-0.003,0.035,0.006,0.068,0.025,0.097
			c0.016,0.049,0.047,0.088,0.093,0.117l0.094,0.043l0.109,0.016c0.063,0.002,0.122-0.008,0.18-0.032
			c0.044-0.01,0.084-0.027,0.121-0.053c0.042-0.019,0.08-0.045,0.112-0.078c0.053-0.039,0.097-0.088,0.131-0.146
			c0.017-0.036,0.034-0.072,0.051-0.108c0.007-0.036,0.015-0.072,0.022-0.108C160.743,122.666,160.74,122.632,160.737,122.597z"/>
		<path style="fill:#E14A31;" d="M162.871,125.058c-0.499,0-0.966,0.887-0.304,0.887
			C163.066,125.946,163.534,125.058,162.871,125.058z"/>
		<path style="fill:#E14A31;" d="M154.523,127.278c-0.007-0.061-0.021-0.121-0.043-0.179c-0.067-0.176-0.166-0.333-0.33-0.435
			c-0.199-0.124-0.434-0.161-0.664-0.12c-0.066,0.012-0.132,0.034-0.196,0.06c-0.216,0.064-0.398,0.207-0.535,0.394
			c-0.134,0.183-0.207,0.411-0.236,0.634c-0.028,0.223,0.015,0.443,0.129,0.637c0.132,0.226,0.372,0.332,0.622,0.359
			c0.133,0.015,0.277-0.003,0.405-0.039c0.28-0.08,0.505-0.245,0.67-0.485c0.108-0.157,0.167-0.352,0.187-0.54
			C154.544,127.47,154.534,127.373,154.523,127.278z"/>
		<path style="fill:#E14A31;" d="M131.008,121.243c-0.002-0.004-0.005-0.007-0.007-0.012c-0.027-0.069-0.036-0.142-0.053-0.213
			c0.025-0.063,0.035-0.13,0.017-0.199c-0.024-0.09-0.086-0.141-0.162-0.169c-0.006-0.015-0.013-0.03-0.019-0.045
			c-0.032-0.077-0.066-0.153-0.101-0.229c-0.038-0.052-0.089-0.087-0.151-0.104c-0.069-0.018-0.138-0.019-0.208-0.004
			c-0.156,0.032-0.305,0.136-0.388,0.272c-0.117,0.192-0.223,0.39-0.304,0.6c-0.047,0.122-0.019,0.274,0.094,0.349
			c0.032,0.021,0.064,0.041,0.099,0.057c0.051,0.024,0.102,0.052,0.158,0.064c0.132,0.028,0.257,0.012,0.382-0.034
			c0.001,0.001,0.002,0.002,0.002,0.003c0.056,0.058,0.092,0.092,0.176,0.104c0.163,0.024,0.336-0.074,0.421-0.212
			C131.001,121.41,131.034,121.316,131.008,121.243z"/>
		<path style="fill:#E14A31;" d="M131.984,116.983c-0.465,0-0.901,0.827-0.283,0.827
			C132.166,117.81,132.602,116.983,131.984,116.983z"/>
		<path style="fill:#E14A31;" d="M135.803,127.09c-0.005-0.04-0.011-0.081-0.016-0.121c-0.011-0.054-0.038-0.097-0.079-0.13
			c-0.034-0.041-0.078-0.068-0.132-0.08c-0.037-0.005-0.074-0.011-0.111-0.016c-0.064-0.002-0.125,0.008-0.183,0.032
			c-0.045,0.01-0.085,0.028-0.123,0.054c-0.063,0.031-0.119,0.072-0.167,0.125c-0.027,0.034-0.053,0.069-0.08,0.103
			c-0.043,0.067-0.068,0.14-0.075,0.219l-0.017,0.132c-0.006,0.075,0.012,0.143,0.054,0.205c0.025,0.025,0.051,0.05,0.076,0.075
			c0.065,0.041,0.136,0.062,0.214,0.062c0.066,0.002,0.129-0.009,0.189-0.033c0.069-0.018,0.132-0.048,0.19-0.092
			c0.061-0.039,0.111-0.089,0.151-0.147c0.044-0.048,0.076-0.104,0.096-0.167C135.816,127.239,135.82,127.165,135.803,127.09z"/>
		<path style="fill:#E14A31;" d="M167.137,123.84c0-0.008-0.007-0.093-0.009-0.101c0-0.001,0-0.002-0.001-0.003
			c0-0.001-0.001-0.002-0.001-0.003c0-0.001-0.001-0.001-0.001-0.002c-0.001-0.001-0.039-0.085-0.039-0.086c0,0,0-0.001-0.001-0.001
			c-0.001-0.003-0.003-0.005-0.005-0.008c-0.021-0.026-0.047-0.049-0.072-0.071c-0.039-0.027-0.082-0.042-0.129-0.045
			c-0.019-0.004-0.038,0.002-0.057,0.001c-0.007-0.001-0.013-0.003-0.02-0.003c-0.014,0.001-0.029,0.003-0.043,0.004
			c-0.01,0.002-0.02-0.002-0.029,0.001c-0.003,0.001-0.007,0.002-0.01,0.003c-0.013,0.001-0.025,0.003-0.038,0.004
			c-0.005,0.002-0.009,0.003-0.014,0.005c-0.008,0.002-0.017,0.004-0.025,0.005c0.005,0,0.009-0.001,0.014-0.001
			c-0.005,0.002-0.01,0.003-0.014,0.005c-0.033,0.005-0.066,0.004-0.098,0.017c-0.066,0.017-0.127,0.046-0.182,0.088
			c-0.035,0.03-0.07,0.06-0.105,0.09c-0.047,0.045-0.082,0.097-0.105,0.156c-0.021,0.033-0.034,0.07-0.037,0.109
			c-0.016,0.052-0.017,0.105-0.002,0.158c0.014,0.031,0.028,0.062,0.042,0.093c0.042,0.058,0.098,0.096,0.167,0.115
			c0.04,0.006,0.08,0.013,0.12,0.017c0.004,0,0.008,0.001,0.012,0.001c0.007,0,0.013,0.001,0.02,0c0.003,0,0.006,0,0.009-0.001
			c0.041-0.004,0.083-0.007,0.124-0.012c0.002,0,0.003-0.001,0.005-0.001c0.003-0.001,0.006-0.001,0.008-0.002
			c0.001,0,0.003-0.001,0.004-0.001c0.001,0,0.001,0,0.002,0c0.021-0.007,0.042-0.014,0.063-0.021
			c0.021-0.007,0.042-0.014,0.063-0.02c0.002-0.001,0.12-0.068,0.122-0.069c0.001-0.001,0.106-0.09,0.106-0.091
			c0.001-0.001,0.08-0.102,0.081-0.103c0.001-0.001,0.052-0.109,0.053-0.11c0.001-0.001,0.001-0.002,0.001-0.003
			c0-0.001,0-0.001,0.001-0.002c0.001-0.005,0.022-0.103,0.022-0.108c0-0.001,0-0.002,0-0.003
			C167.137,123.841,167.137,123.841,167.137,123.84z"/>
		<g>
			<path style="fill:#E14A31;" d="M170.241,117.587c-0.017-0.066-0.054-0.118-0.11-0.157c-0.038-0.036-0.075-0.073-0.116-0.107
				c-0.009-0.007-0.018-0.015-0.028-0.021c-0.004-0.003-0.007-0.005-0.011-0.007c-0.022-0.012-0.098-0.041-0.112-0.048
				c-0.067-0.018-0.094-0.014-0.16-0.008c-0.093,0.009-0.067,0.003-0.187,0.047c-0.002,0.001-0.003,0.001-0.004,0.002
				c-0.087,0.039-0.165,0.092-0.231,0.161c-0.03,0.032-0.057,0.066-0.08,0.103c-0.035,0.058-0.074,0.147-0.074,0.217
				c0,0.002,0.009,0.102,0.009,0.103c0.007,0.033,0.023,0.065,0.042,0.092c0.001,0.001,0.002,0.002,0.003,0.003
				c0,0,0,0.001,0.001,0.001l0-0.001c0.002,0.002,0.005,0.004,0.006,0.006c0.018,0.027,0.039,0.052,0.069,0.071
				c0.031,0.017,0.063,0.032,0.097,0.045c0.003,0.001,0.005,0.001,0.008,0.002c0.006,0.002,0.013,0.004,0.019,0.006
				c0.001,0,0.001,0.001,0.002,0.001c0.018,0.009,0.035,0.017,0.053,0.026c0.007,0.004,0.014,0.007,0.022,0.011
				c0.043,0.031,0.091,0.047,0.143,0.05c0.055,0.012,0.111,0.011,0.167-0.004c0.063-0.012,0.122-0.035,0.175-0.071
				c0.06-0.029,0.113-0.069,0.158-0.119c0.025-0.033,0.051-0.065,0.076-0.098c0.041-0.064,0.064-0.133,0.071-0.208
				C170.247,117.653,170.244,117.62,170.241,117.587z"/>
			<path style="fill:#E14A31;" d="M169.865,117.247c0.006,0.001,0.008,0.001,0.014,0.003
				C169.862,117.244,169.86,117.244,169.865,117.247z"/>
		</g>
		<path style="fill:#E14A31;" d="M165.447,117.07c-0.043-0.053-0.114-0.094-0.185-0.088c-0.049,0.005-0.098,0.01-0.147,0.015
			c-0.028,0.003-0.055,0.005-0.083,0.007c-0.009-0.066-0.036-0.134-0.093-0.169c-0.079-0.049-0.177-0.062-0.267-0.04
			c-0.106,0.026-0.215,0.079-0.287,0.163c-0.067,0.078-0.124,0.154-0.159,0.251c-0.01,0.03-0.017,0.069-0.02,0.101
			c-0.001,0.014,0.002,0.066,0.009,0.095c0.003,0.012,0.021,0.047,0.018,0.041c-0.007-0.015,0.012,0.031,0.019,0.04
			c0.017,0.023,0.048,0.053,0.064,0.064c0.003,0.003,0.007,0.005,0.01,0.007c0.018,0.011,0.056,0.028,0.076,0.035
			c0.002,0.001,0.005,0.002,0.007,0.003c0.036,0.011,0.075,0.015,0.113,0.017c0.035,0.002,0.07-0.006,0.104-0.011
			c0.173,0.001,0.348-0.032,0.519-0.057c0.044-0.008,0.085-0.025,0.122-0.049c0.042-0.02,0.079-0.048,0.11-0.083
			c0.046-0.052,0.081-0.108,0.095-0.177C165.484,117.183,165.484,117.116,165.447,117.07z"/>
		<path style="fill:#E14A31;" d="M163.367,131.547c-0.436,0-0.843,0.775-0.265,0.775
			C163.537,132.322,163.945,131.547,163.367,131.547z"/>
		<path style="fill:#E14A31;" d="M158.21,133.378c-0.402,0-0.778,0.714-0.245,0.714C158.367,134.093,158.743,133.378,158.21,133.378
			z"/>
		<path style="fill:#E14A31;" d="M149.338,131.176c-0.419,0-0.811,0.745-0.255,0.745
			C149.502,131.921,149.894,131.176,149.338,131.176z"/>
		<path style="fill:#E14A31;" d="M152.05,127.284c-0.023-0.022-0.045-0.044-0.068-0.066c-0.058-0.037-0.121-0.056-0.19-0.056
			c-0.037,0.004-0.074,0.007-0.111,0.011c-0.082,0.018-0.158,0.052-0.227,0.1c-0.051,0.042-0.109,0.086-0.151,0.139
			c-0.028,0.035-0.056,0.069-0.082,0.106c-0.004,0.005-0.007,0.011-0.011,0.017c-0.025,0.041-0.044,0.086-0.063,0.129
			c-0.023,0.051-0.031,0.112-0.041,0.165c-0.005,0.027-0.006,0.053-0.004,0.08c-0.006,0.049,0.003,0.093,0.027,0.134
			c0.014,0.045,0.042,0.08,0.084,0.105c0.041,0.029,0.085,0.044,0.134,0.046c0.052,0.012,0.104,0.01,0.156-0.003
			c0.037-0.012,0.074-0.024,0.11-0.036c0.076-0.034,0.144-0.081,0.202-0.141c0.024-0.03,0.047-0.061,0.071-0.091
			c0.032-0.049,0.05-0.104,0.059-0.161c0.014-0.016,0.034-0.027,0.046-0.045c0.039-0.043,0.067-0.092,0.085-0.148
			c0.02-0.049,0.026-0.099,0.017-0.15C152.094,127.369,152.08,127.325,152.05,127.284z"/>
		<path style="fill:#E14A31;" d="M143.055,128.283c-0.016-0.06-0.049-0.107-0.1-0.143c-0.027-0.013-0.055-0.025-0.082-0.038
			c-0.03-0.008-0.06-0.011-0.09-0.013c-0.001-0.033-0.002-0.066-0.019-0.095c-0.014-0.042-0.04-0.074-0.078-0.098
			c-0.026-0.012-0.052-0.024-0.079-0.036c-0.047-0.014-0.094-0.017-0.142-0.008c-0.035,0-0.069,0.007-0.101,0.021
			c-0.055,0.014-0.106,0.038-0.152,0.073l-0.088,0.075c-0.049,0.051-0.086,0.109-0.109,0.176c-0.015,0.067-0.034,0.139-0.034,0.208
			c0,0.045,0.004,0.091,0.011,0.136c0.002,0.014,0.006,0.028,0.011,0.041c0.013,0.033,0.027,0.065,0.044,0.096
			c0.003,0.006,0.007,0.011,0.01,0.016c0.016,0.021,0.06,0.067,0.093,0.085c0.003,0.001,0.005,0.003,0.008,0.004
			c0.029,0.014,0.059,0.029,0.089,0.041c0.006,0.003,0.013,0.005,0.019,0.006c0.022,0.006,0.046,0.008,0.067,0.011
			c0.023,0.003,0.047,0.008,0.07,0.009c0.008,0,0.017,0,0.026,0c0.044-0.003,0.088-0.007,0.131-0.013
			c0.022-0.003,0.043-0.008,0.064-0.014c0.058-0.011,0.111-0.032,0.159-0.064c0.055-0.026,0.102-0.062,0.144-0.108
			c0.041-0.039,0.071-0.084,0.092-0.136c0.025-0.043,0.039-0.091,0.042-0.142C143.06,128.343,143.057,128.313,143.055,128.283z"/>
		<path style="fill:#E14A31;" d="M140.03,129.598c-0.016-0.079-0.033-0.157-0.049-0.236c-0.007-0.033-0.023-0.06-0.049-0.08
			c-0.021-0.025-0.048-0.042-0.082-0.049c-0.023-0.003-0.046-0.007-0.069-0.01c-0.039-0.001-0.077,0.005-0.113,0.02
			c-0.028,0.006-0.053,0.017-0.076,0.034c-0.039,0.019-0.074,0.045-0.103,0.077c-0.017,0.021-0.033,0.042-0.05,0.064
			c-0.026,0.041-0.042,0.087-0.046,0.135c-0.017,0.089-0.033,0.179-0.05,0.268c-0.004,0.052,0.008,0.1,0.037,0.143
			c0.018,0.017,0.035,0.035,0.053,0.052c0.045,0.029,0.095,0.044,0.149,0.044c0.046,0.002,0.09-0.006,0.132-0.023
			c0.048-0.012,0.092-0.034,0.133-0.064c0.042-0.028,0.077-0.062,0.105-0.103c0.031-0.034,0.053-0.072,0.067-0.116
			C140.039,129.703,140.042,129.651,140.03,129.598z"/>
		<path style="fill:#E14A31;" d="M137.586,127.54c-0.008-0.039-0.027-0.07-0.057-0.093c-0.024-0.03-0.056-0.049-0.095-0.058
			l-0.111-0.029c-0.061-0.016-0.122-0.017-0.183-0.003c-0.071,0.016-0.135,0.044-0.195,0.086c-0.028,0.024-0.056,0.048-0.084,0.072
			c-0.047,0.049-0.082,0.105-0.105,0.168c-0.017,0.042-0.022,0.085-0.014,0.128c-0.001,0.042,0.012,0.08,0.037,0.116
			c0.07,0.1,0.206,0.12,0.317,0.095l0.13-0.029c0.03-0.01,0.06-0.019,0.09-0.029c0.048-0.019,0.09-0.047,0.126-0.082
			c0.027-0.019,0.049-0.042,0.067-0.07c0.03-0.034,0.053-0.072,0.067-0.116c0.005-0.026,0.011-0.053,0.016-0.079
			C137.59,127.59,137.588,127.565,137.586,127.54z"/>
		<path style="fill:#E14A31;" d="M159.487,135.464c-0.035-0.054-0.083-0.09-0.141-0.11c-0.057-0.033-0.118-0.048-0.186-0.045
			c-0.1,0-0.195,0.02-0.286,0.061c-0.095,0.042-0.188,0.104-0.261,0.18c-0.009,0.006-0.019,0.007-0.027,0.013
			c-0.036,0.031-0.071,0.061-0.107,0.092c-0.027,0.035-0.054,0.069-0.081,0.104c-0.035,0.051-0.057,0.106-0.064,0.166
			c-0.016,0.053-0.017,0.107-0.002,0.161c0.007,0.028,0.014,0.056,0.018,0.085c0.002,0.017,0.003,0.033,0.006,0.05
			c0.001,0.005,0.002,0.011,0.004,0.016c0.001,0.001,0.001,0.003,0.002,0.004c0.008,0.02,0.035,0.081,0.046,0.1
			c0.001,0.002,0.003,0.005,0.004,0.007c0.002,0.002,0.003,0.004,0.005,0.006c0.001,0.001,0.002,0.003,0.004,0.004
			c0.023,0.024,0.055,0.056,0.079,0.078c0.006,0.006,0.012,0.011,0.019,0.016c0.027,0.02,0.055,0.038,0.082,0.057
			c0.143,0.096,0.333,0.074,0.483,0.009c0.092-0.041,0.173-0.098,0.243-0.171c0.064-0.066,0.111-0.142,0.142-0.227
			c0.011-0.035,0.021-0.069,0.033-0.103c0.021-0.058,0.032-0.121,0.042-0.181c0.008-0.045,0.005-0.093,0.006-0.139
			C159.554,135.612,159.534,135.534,159.487,135.464z"/>
		<path style="fill:#E14A31;" d="M170.459,122.005c-0.016-0.04-0.034-0.083-0.055-0.12c-0.003-0.006-0.007-0.011-0.011-0.016
			c-0.028-0.034-0.063-0.065-0.096-0.095c-0.005-0.005-0.01-0.009-0.015-0.013c-0.011-0.009-0.023-0.015-0.036-0.022
			c-0.046-0.023-0.097-0.052-0.149-0.065c-0.056-0.014-0.114-0.021-0.172-0.025c-0.019-0.001-0.038-0.001-0.057,0.001
			c-0.066,0.006-0.134,0.009-0.199,0.024c-0.011,0.003-0.022,0.006-0.033,0.009c-0.006,0.002-0.011,0.003-0.017,0.005
			c-0.034,0.011-0.114,0.034-0.146,0.048c-0.002,0.001-0.004,0.002-0.006,0.003c-0.047,0.026-0.094,0.053-0.14,0.079
			c-0.011,0.008-0.022,0.016-0.032,0.024c-0.005,0.004-0.01,0.008-0.015,0.012c-0.006,0.005-0.018,0.015-0.027,0.022
			c-0.011,0.007-0.022,0.011-0.033,0.018c-0.078,0.049-0.142,0.13-0.194,0.204c-0.031,0.044-0.055,0.095-0.071,0.146
			c-0.012,0.039-0.02,0.08-0.026,0.12c-0.002,0.011-0.003,0.023-0.003,0.034c0.001,0.118,0.027,0.206,0.087,0.309
			c0.017,0.028,0.036,0.054,0.058,0.078c0.041,0.046,0.085,0.092,0.134,0.13c0.057,0.045,0.128,0.077,0.195,0.102
			c0.015,0.005,0.03,0.009,0.045,0.012c0.049,0.009,0.104,0.021,0.156,0.02c0.048-0.002,0.097-0.007,0.144-0.014
			c0.007-0.001,0.014-0.002,0.02-0.004c0.049-0.012,0.098-0.029,0.146-0.047c0.007-0.003,0.014-0.005,0.02-0.008
			c0.006-0.003,0.011-0.006,0.016-0.008c0.048-0.026,0.098-0.051,0.143-0.082c0.006-0.004,0.011-0.008,0.016-0.012
			c0.043-0.034,0.087-0.07,0.126-0.109c0.043-0.041,0.077-0.093,0.112-0.14c0.008-0.011,0.015-0.022,0.022-0.034
			c0.027-0.05,0.053-0.102,0.074-0.155c0.005-0.013,0.009-0.026,0.012-0.04c0.015-0.062,0.035-0.133,0.032-0.199
			C170.484,122.135,170.483,122.064,170.459,122.005z"/>
		<path style="fill:#E14A31;" d="M157.999,118.644l-0.073-0.071c-0.062-0.04-0.13-0.06-0.204-0.06
			c-0.063-0.002-0.123,0.008-0.181,0.032c-0.066,0.017-0.127,0.046-0.182,0.088c-0.058,0.038-0.106,0.085-0.144,0.141
			c-0.042,0.046-0.072,0.099-0.091,0.159c-0.007,0.036-0.015,0.072-0.022,0.109c-0.006,0.071,0.011,0.136,0.051,0.196l0.073,0.071
			c0.062,0.04,0.13,0.06,0.204,0.06c0.063,0.002,0.123-0.008,0.181-0.032c0.066-0.017,0.127-0.046,0.182-0.088
			c0.058-0.038,0.106-0.084,0.144-0.141c0.042-0.046,0.072-0.099,0.092-0.159c0.008-0.036,0.015-0.073,0.022-0.109
			C158.056,118.769,158.039,118.704,157.999,118.644z"/>
		<path style="fill:#E14A31;" d="M137.639,121.494c-0.002-0.016-0.005-0.032-0.01-0.048c-0.014-0.048-0.038-0.094-0.06-0.138
			c-0.007-0.013-0.014-0.026-0.023-0.038c-0.03-0.039-0.067-0.074-0.106-0.105c-0.039-0.031-0.092-0.05-0.136-0.069
			c-0.015-0.006-0.03-0.012-0.046-0.015c-0.054-0.012-0.112-0.022-0.169-0.022c-0.063,0-0.126,0.008-0.188,0.018
			c-0.081,0.013-0.155,0.048-0.225,0.087c-0.031,0.018-0.064,0.035-0.094,0.054c-0.023,0.015-0.046,0.033-0.067,0.05
			c-0.035,0.03-0.07,0.06-0.105,0.09c-0.047,0.045-0.082,0.097-0.105,0.156c-0.026,0.053-0.047,0.118-0.049,0.182
			c-0.024,0.042-0.048,0.084-0.067,0.131c-0.021,0.052-0.031,0.11-0.04,0.165c-0.009,0.054-0.001,0.111,0.006,0.164
			c0.004,0.027,0.012,0.052,0.022,0.076c0.022,0.052,0.044,0.106,0.08,0.151c0.048,0.059,0.109,0.122,0.179,0.158
			c0.096,0.05,0.172,0.076,0.283,0.08c0.052,0.002,0.106-0.005,0.157-0.014c0.055-0.01,0.109-0.03,0.16-0.051
			c0.055-0.022,0.107-0.055,0.157-0.086c0.051-0.032,0.096-0.076,0.14-0.116c0.058-0.051,0.104-0.114,0.147-0.178
			c0.043-0.063,0.074-0.135,0.103-0.204c0.015-0.035,0.025-0.071,0.034-0.108c0.016-0.07,0.034-0.143,0.034-0.216
			C137.651,121.598,137.646,121.545,137.639,121.494z"/>
		<path style="fill:#E14A31;" d="M129.853,114.045c-0.008-0.03-0.023-0.056-0.037-0.083c0,0,0,0,0-0.001
			c0.006,0.014,0.012,0.027,0.019,0.041c-0.01-0.021-0.013-0.045-0.018-0.067c0.001-0.007,0-0.015,0.001-0.022
			c0.005-0.041-0.002-0.078-0.023-0.112c-0.012-0.037-0.035-0.066-0.07-0.088c-0.023-0.011-0.047-0.022-0.07-0.033
			c-0.042-0.013-0.084-0.015-0.127-0.007c-0.032,0-0.062,0.006-0.09,0.019c-0.049,0.013-0.095,0.034-0.136,0.066
			c-0.026,0.022-0.052,0.045-0.078,0.067c-0.044,0.045-0.077,0.098-0.098,0.157c-0.009,0.037-0.017,0.076-0.023,0.114
			c-0.002,0.013-0.003,0.025-0.004,0.038c-0.001,0.012,0,0.023,0.001,0.035c0.003,0.037,0.004,0.075,0.011,0.112
			c0.002,0.011,0.005,0.023,0.008,0.034c0.002,0.006,0.004,0.012,0.006,0.017c0.001,0.003,0.002,0.005,0.003,0.008
			c0.001,0.001,0.001,0.003,0.002,0.004c0.011,0.024,0.022,0.048,0.033,0.072c0.004,0.005,0.008,0.01,0.012,0.014
			c0.022,0.022,0.043,0.044,0.066,0.064c0.009,0.008,0.019,0.016,0.029,0.024c0.023,0.011,0.046,0.022,0.07,0.032
			c0.041,0.013,0.083,0.015,0.125,0.007c0.031,0,0.061-0.006,0.089-0.019c0.049-0.012,0.094-0.034,0.134-0.065l0.077-0.066
			l0.059-0.075c0.025-0.037,0.041-0.077,0.047-0.12c0.012-0.038,0.012-0.077,0.002-0.117
			C129.864,114.078,129.858,114.062,129.853,114.045z"/>
	</g>
	<g style="opacity:0.47;">
		<path style="fill:#E14A31;" d="M79.613,122.19c-0.014-0.045-0.042-0.08-0.084-0.105c-0.041-0.029-0.085-0.044-0.134-0.046
			c-0.052-0.012-0.104-0.01-0.156,0.003c-0.037,0.012-0.073,0.024-0.11,0.036c-0.076,0.034-0.144,0.081-0.202,0.141
			c-0.024,0.031-0.047,0.061-0.071,0.091c-0.038,0.06-0.06,0.124-0.067,0.195v0.129c-0.006,0.049,0.003,0.094,0.027,0.134
			c0.014,0.045,0.043,0.08,0.084,0.105c0.041,0.029,0.085,0.044,0.134,0.046c0.052,0.012,0.104,0.011,0.156-0.003
			c0.037-0.012,0.073-0.024,0.11-0.036c0.076-0.034,0.144-0.081,0.202-0.141c0.024-0.031,0.047-0.061,0.071-0.091
			c0.038-0.06,0.06-0.124,0.067-0.195v-0.129C79.646,122.275,79.637,122.23,79.613,122.19z"/>
		<path style="fill:#E14A31;" d="M83.842,121.149c-0.41,0-0.794,0.729-0.25,0.729C84.002,121.878,84.386,121.149,83.842,121.149z"/>
		<path style="fill:#E14A31;" d="M88.774,120.846c-0.007-0.06-0.019-0.119-0.037-0.177c-0.007-0.022-0.017-0.043-0.028-0.063
			c-0.01-0.061-0.031-0.119-0.087-0.153c-0.08-0.049-0.162-0.048-0.253-0.037c-0.102-0.005-0.206,0.004-0.292,0.051
			c-0.042,0.023-0.08,0.047-0.119,0.071c-0.169,0.078-0.325,0.185-0.448,0.319c-0.228,0.248-0.356,0.564-0.381,0.898
			c-0.007,0.086,0.025,0.167,0.085,0.227c0.066,0.065,0.142,0.085,0.235,0.093c0.134,0.012,0.267,0.005,0.401-0.015
			c0.166-0.025,0.314-0.094,0.456-0.179c0.069-0.041,0.132-0.098,0.189-0.153c0.057-0.055,0.107-0.12,0.148-0.187
			c0.081-0.132,0.128-0.28,0.143-0.434C88.794,121.021,88.784,120.932,88.774,120.846z"/>
		<path style="fill:#E14A31;" d="M95.63,122.597c-0.011-0.053-0.037-0.095-0.078-0.127c-0.033-0.041-0.076-0.067-0.13-0.079
			c-0.013-0.005-0.027-0.011-0.04-0.016c-0.031-0.004-0.061-0.009-0.092-0.013c-0.053-0.002-0.103,0.007-0.151,0.027
			c-0.037,0.008-0.071,0.023-0.102,0.045c-0.052,0.025-0.098,0.06-0.138,0.103l-0.051,0.046c-0.026,0.034-0.053,0.068-0.079,0.101
			c-0.034,0.049-0.055,0.103-0.063,0.161c-0.012,0.035-0.015,0.07-0.007,0.105c-0.003,0.035,0.006,0.068,0.025,0.097
			c0.016,0.049,0.047,0.088,0.093,0.117l0.094,0.043l0.109,0.016c0.063,0.002,0.122-0.008,0.18-0.032
			c0.044-0.01,0.084-0.027,0.121-0.053c0.042-0.019,0.08-0.045,0.112-0.078c0.053-0.039,0.097-0.088,0.131-0.146
			c0.017-0.036,0.034-0.072,0.051-0.108c0.007-0.036,0.015-0.072,0.022-0.108C95.635,122.666,95.632,122.632,95.63,122.597z"/>
		<path style="fill:#E14A31;" d="M97.763,125.058c-0.499,0-0.966,0.887-0.304,0.887C97.959,125.946,98.426,125.058,97.763,125.058z"
			/>
		<path style="fill:#E14A31;" d="M89.415,127.278c-0.007-0.061-0.021-0.121-0.043-0.179c-0.067-0.176-0.166-0.333-0.33-0.435
			c-0.199-0.124-0.434-0.161-0.664-0.12c-0.066,0.012-0.132,0.034-0.196,0.06c-0.216,0.064-0.398,0.207-0.535,0.394
			c-0.134,0.183-0.207,0.411-0.236,0.634c-0.028,0.223,0.015,0.443,0.129,0.637c0.132,0.226,0.372,0.332,0.622,0.359
			c0.133,0.015,0.277-0.003,0.405-0.039c0.28-0.08,0.505-0.245,0.67-0.485c0.108-0.157,0.167-0.352,0.187-0.54
			C89.436,127.47,89.426,127.373,89.415,127.278z"/>
		<path style="fill:#E14A31;" d="M65.9,121.243c-0.001-0.004-0.005-0.007-0.007-0.012c-0.028-0.069-0.036-0.142-0.052-0.213
			c0.025-0.063,0.035-0.13,0.017-0.199c-0.024-0.09-0.086-0.141-0.162-0.169c-0.006-0.015-0.013-0.03-0.019-0.045
			c-0.032-0.077-0.066-0.153-0.101-0.229c-0.038-0.052-0.089-0.087-0.151-0.104c-0.069-0.018-0.138-0.019-0.208-0.004
			c-0.156,0.032-0.305,0.136-0.388,0.272c-0.117,0.192-0.223,0.39-0.304,0.6c-0.047,0.122-0.019,0.274,0.094,0.349
			c0.032,0.021,0.064,0.041,0.099,0.057c0.051,0.024,0.102,0.052,0.157,0.064c0.132,0.028,0.257,0.012,0.382-0.034
			c0.001,0.001,0.001,0.002,0.002,0.003c0.056,0.058,0.092,0.092,0.176,0.104c0.163,0.024,0.336-0.074,0.421-0.212
			C65.894,121.41,65.927,121.316,65.9,121.243z"/>
		<path style="fill:#E14A31;" d="M66.877,116.983c-0.465,0-0.901,0.827-0.283,0.827C67.059,117.81,67.494,116.983,66.877,116.983z"
			/>
		<path style="fill:#E14A31;" d="M70.696,127.09c-0.005-0.04-0.011-0.081-0.016-0.121c-0.011-0.054-0.038-0.097-0.079-0.13
			c-0.034-0.041-0.078-0.068-0.132-0.08c-0.037-0.005-0.074-0.011-0.111-0.016c-0.064-0.002-0.125,0.008-0.183,0.032
			c-0.044,0.01-0.085,0.028-0.123,0.054c-0.063,0.031-0.119,0.072-0.167,0.125c-0.027,0.034-0.053,0.069-0.08,0.103
			c-0.043,0.067-0.068,0.14-0.075,0.219l-0.017,0.132c-0.006,0.075,0.012,0.143,0.054,0.205c0.025,0.025,0.051,0.05,0.076,0.075
			c0.065,0.041,0.136,0.062,0.214,0.062c0.066,0.002,0.129-0.009,0.189-0.033c0.069-0.018,0.132-0.048,0.19-0.092
			c0.061-0.039,0.111-0.089,0.151-0.147c0.044-0.048,0.076-0.104,0.096-0.167C70.708,127.239,70.713,127.165,70.696,127.09z"/>
		<path style="fill:#E14A31;" d="M102.029,123.84c0-0.008-0.007-0.093-0.009-0.101c0-0.001,0-0.002-0.001-0.003
			c0-0.001-0.001-0.002-0.001-0.003c0-0.001,0-0.001-0.001-0.002c0-0.001-0.039-0.085-0.039-0.086c0,0,0-0.001,0-0.001
			c-0.002-0.003-0.003-0.005-0.005-0.008c-0.021-0.026-0.047-0.049-0.072-0.071c-0.039-0.027-0.082-0.042-0.129-0.045
			c-0.019-0.004-0.038,0.002-0.057,0.001c-0.007-0.001-0.013-0.003-0.02-0.003c-0.014,0.001-0.029,0.003-0.043,0.004
			c-0.01,0.002-0.02-0.002-0.029,0.001c-0.003,0.001-0.007,0.002-0.01,0.003c-0.013,0.001-0.025,0.003-0.038,0.004
			c-0.005,0.002-0.009,0.003-0.014,0.005c-0.008,0.002-0.017,0.004-0.025,0.005c0.005,0,0.009-0.001,0.014-0.001
			c-0.005,0.002-0.01,0.003-0.014,0.005c-0.033,0.005-0.067,0.004-0.098,0.017c-0.066,0.017-0.127,0.046-0.182,0.088
			c-0.035,0.03-0.07,0.06-0.105,0.09c-0.047,0.045-0.082,0.097-0.105,0.156c-0.021,0.033-0.034,0.07-0.037,0.109
			c-0.016,0.052-0.017,0.105-0.002,0.158c0.014,0.031,0.028,0.062,0.042,0.093c0.042,0.058,0.098,0.096,0.167,0.115
			c0.04,0.006,0.08,0.013,0.12,0.017c0.004,0,0.008,0.001,0.012,0.001c0.007,0,0.013,0.001,0.02,0c0.003,0,0.006,0,0.009-0.001
			c0.041-0.004,0.083-0.007,0.124-0.012c0.002,0,0.003-0.001,0.005-0.001c0.003-0.001,0.006-0.001,0.008-0.002
			c0.001,0,0.002-0.001,0.004-0.001c0.001,0,0.001,0,0.002,0c0.021-0.007,0.042-0.014,0.063-0.021
			c0.021-0.007,0.042-0.014,0.063-0.02c0.002-0.001,0.12-0.068,0.122-0.069c0.001-0.001,0.106-0.09,0.106-0.091
			c0.001-0.001,0.08-0.102,0.081-0.103c0.001-0.001,0.052-0.109,0.053-0.11c0.001-0.001,0.001-0.002,0.001-0.003
			c0-0.001,0-0.001,0-0.002c0.001-0.005,0.022-0.103,0.022-0.108c0-0.001,0-0.002,0-0.003
			C102.029,123.841,102.029,123.841,102.029,123.84z"/>
		<g>
			<path style="fill:#E14A31;" d="M105.133,117.587c-0.017-0.066-0.054-0.118-0.11-0.157c-0.038-0.036-0.075-0.073-0.116-0.107
				c-0.009-0.007-0.018-0.015-0.028-0.021c-0.004-0.003-0.007-0.005-0.011-0.007c-0.022-0.012-0.098-0.041-0.112-0.048
				c-0.067-0.018-0.094-0.014-0.16-0.008c-0.093,0.009-0.067,0.003-0.187,0.047c-0.001,0.001-0.003,0.001-0.004,0.002
				c-0.087,0.039-0.166,0.092-0.231,0.161c-0.03,0.032-0.057,0.066-0.08,0.103c-0.035,0.058-0.074,0.147-0.074,0.217
				c0,0.002,0.009,0.102,0.009,0.103c0.007,0.033,0.023,0.065,0.042,0.092c0.001,0.001,0.002,0.002,0.003,0.003
				c0,0,0,0.001,0.001,0.001l0-0.001c0.002,0.002,0.005,0.004,0.006,0.006c0.018,0.027,0.039,0.052,0.069,0.071
				c0.031,0.017,0.063,0.032,0.097,0.045c0.003,0.001,0.005,0.001,0.008,0.002c0.006,0.002,0.013,0.004,0.019,0.006
				c0.001,0,0.002,0.001,0.002,0.001c0.018,0.009,0.035,0.017,0.053,0.026c0.007,0.004,0.015,0.007,0.022,0.011
				c0.043,0.031,0.091,0.047,0.143,0.05c0.055,0.012,0.111,0.011,0.167-0.004c0.063-0.012,0.122-0.035,0.175-0.071
				c0.06-0.029,0.113-0.069,0.158-0.119c0.025-0.033,0.051-0.065,0.076-0.098c0.041-0.064,0.064-0.133,0.071-0.208
				C105.139,117.653,105.136,117.62,105.133,117.587z"/>
			<path style="fill:#E14A31;" d="M104.757,117.247c0.006,0.001,0.008,0.001,0.014,0.003
				C104.754,117.244,104.752,117.244,104.757,117.247z"/>
		</g>
		<path style="fill:#E14A31;" d="M100.339,117.07c-0.043-0.053-0.114-0.094-0.185-0.088c-0.049,0.005-0.098,0.01-0.147,0.015
			c-0.027,0.003-0.055,0.005-0.083,0.007c-0.009-0.066-0.036-0.134-0.093-0.169c-0.079-0.049-0.177-0.062-0.268-0.04
			c-0.106,0.026-0.215,0.079-0.287,0.163c-0.067,0.078-0.124,0.154-0.159,0.251c-0.011,0.03-0.017,0.069-0.02,0.101
			c-0.001,0.014,0.002,0.066,0.009,0.095c0.003,0.012,0.021,0.047,0.018,0.041c-0.007-0.015,0.012,0.031,0.019,0.04
			c0.017,0.023,0.048,0.053,0.064,0.064c0.003,0.003,0.007,0.005,0.01,0.007c0.018,0.011,0.056,0.028,0.076,0.035
			c0.003,0.001,0.005,0.002,0.007,0.003c0.036,0.011,0.075,0.015,0.113,0.017c0.035,0.002,0.069-0.006,0.104-0.011
			c0.174,0.001,0.348-0.032,0.519-0.057c0.044-0.008,0.085-0.025,0.122-0.049c0.042-0.02,0.079-0.048,0.11-0.083
			c0.046-0.052,0.081-0.108,0.095-0.177C100.377,117.183,100.376,117.116,100.339,117.07z"/>
		<path style="fill:#E14A31;" d="M98.259,131.547c-0.436,0-0.844,0.775-0.265,0.775C98.429,132.322,98.837,131.547,98.259,131.547z"
			/>
		<path style="fill:#E14A31;" d="M93.102,133.378c-0.402,0-0.778,0.714-0.245,0.714C93.259,134.093,93.636,133.378,93.102,133.378z"
			/>
		<path style="fill:#E14A31;" d="M84.23,131.176c-0.419,0-0.811,0.745-0.255,0.745C84.394,131.921,84.786,131.176,84.23,131.176z"/>
		<path style="fill:#E14A31;" d="M86.942,127.284c-0.023-0.022-0.045-0.044-0.068-0.066c-0.058-0.037-0.121-0.056-0.19-0.056
			c-0.037,0.004-0.074,0.007-0.111,0.011c-0.082,0.018-0.158,0.052-0.227,0.1c-0.051,0.042-0.109,0.086-0.151,0.139
			c-0.028,0.035-0.056,0.069-0.082,0.106c-0.004,0.005-0.007,0.011-0.011,0.017c-0.025,0.041-0.044,0.086-0.063,0.129
			c-0.023,0.051-0.031,0.112-0.041,0.165c-0.005,0.027-0.006,0.053-0.004,0.08c-0.006,0.049,0.003,0.093,0.027,0.134
			c0.014,0.045,0.042,0.08,0.084,0.105c0.041,0.029,0.085,0.044,0.134,0.046c0.052,0.012,0.104,0.01,0.156-0.003
			c0.037-0.012,0.074-0.024,0.11-0.036c0.076-0.034,0.144-0.081,0.202-0.141c0.024-0.03,0.047-0.061,0.071-0.091
			c0.032-0.049,0.05-0.104,0.06-0.161c0.014-0.016,0.034-0.027,0.046-0.045c0.039-0.043,0.067-0.092,0.085-0.148
			c0.02-0.049,0.026-0.099,0.017-0.15C86.987,127.369,86.972,127.325,86.942,127.284z"/>
		<path style="fill:#E14A31;" d="M77.947,128.283c-0.016-0.06-0.049-0.107-0.1-0.143c-0.027-0.013-0.055-0.025-0.082-0.038
			c-0.03-0.008-0.06-0.011-0.09-0.013c-0.001-0.033-0.002-0.066-0.019-0.095c-0.014-0.042-0.04-0.074-0.078-0.098
			c-0.026-0.012-0.052-0.024-0.079-0.036c-0.047-0.014-0.094-0.017-0.142-0.008c-0.035,0-0.069,0.007-0.101,0.021
			c-0.055,0.014-0.106,0.038-0.152,0.073l-0.087,0.075c-0.049,0.051-0.086,0.109-0.11,0.176c-0.015,0.067-0.034,0.139-0.033,0.208
			c0,0.045,0.004,0.091,0.011,0.136c0.002,0.014,0.006,0.028,0.011,0.041c0.013,0.033,0.027,0.065,0.044,0.096
			c0.003,0.006,0.006,0.011,0.01,0.016c0.016,0.021,0.06,0.067,0.093,0.085c0.003,0.001,0.005,0.003,0.008,0.004
			c0.029,0.014,0.059,0.029,0.089,0.041c0.006,0.003,0.013,0.005,0.019,0.006c0.022,0.006,0.046,0.008,0.067,0.011
			c0.023,0.003,0.046,0.008,0.07,0.009c0.009,0,0.017,0,0.026,0c0.044-0.003,0.088-0.007,0.131-0.013
			c0.022-0.003,0.043-0.008,0.064-0.014c0.058-0.011,0.111-0.032,0.159-0.064c0.055-0.026,0.102-0.062,0.144-0.108
			c0.041-0.039,0.071-0.084,0.092-0.136c0.026-0.043,0.04-0.091,0.042-0.142C77.952,128.343,77.95,128.313,77.947,128.283z"/>
		<path style="fill:#E14A31;" d="M74.923,129.598c-0.016-0.079-0.033-0.157-0.049-0.236c-0.007-0.033-0.023-0.06-0.049-0.08
			c-0.021-0.025-0.048-0.042-0.082-0.049c-0.023-0.003-0.046-0.007-0.069-0.01c-0.039-0.001-0.077,0.005-0.113,0.02
			c-0.028,0.006-0.053,0.017-0.076,0.034c-0.039,0.019-0.073,0.045-0.103,0.077c-0.017,0.021-0.033,0.042-0.049,0.064
			c-0.027,0.041-0.042,0.087-0.046,0.135c-0.017,0.089-0.033,0.179-0.05,0.268c-0.004,0.052,0.008,0.1,0.037,0.143
			c0.018,0.017,0.035,0.035,0.053,0.052c0.045,0.029,0.095,0.044,0.149,0.044c0.046,0.002,0.09-0.006,0.132-0.023
			c0.048-0.012,0.092-0.034,0.133-0.064c0.042-0.028,0.077-0.062,0.105-0.103c0.03-0.034,0.053-0.072,0.067-0.116
			C74.931,129.703,74.934,129.651,74.923,129.598z"/>
		<path style="fill:#E14A31;" d="M72.478,127.54c-0.008-0.039-0.027-0.07-0.057-0.093c-0.024-0.03-0.056-0.049-0.095-0.058
			l-0.111-0.029c-0.061-0.016-0.122-0.017-0.183-0.003c-0.071,0.016-0.135,0.044-0.195,0.086c-0.028,0.024-0.056,0.048-0.084,0.072
			c-0.047,0.049-0.082,0.105-0.105,0.168c-0.017,0.042-0.022,0.085-0.014,0.128c-0.001,0.042,0.011,0.08,0.037,0.116
			c0.07,0.1,0.206,0.12,0.317,0.095l0.131-0.029c0.03-0.01,0.06-0.019,0.09-0.029c0.048-0.019,0.09-0.047,0.126-0.082
			c0.027-0.019,0.049-0.042,0.067-0.07c0.03-0.034,0.053-0.072,0.067-0.116c0.006-0.026,0.011-0.053,0.016-0.079
			C72.482,127.59,72.48,127.565,72.478,127.54z"/>
		<path style="fill:#E14A31;" d="M94.379,135.464c-0.035-0.054-0.083-0.09-0.141-0.11c-0.057-0.033-0.118-0.048-0.186-0.045
			c-0.1,0-0.195,0.02-0.286,0.061c-0.095,0.042-0.188,0.104-0.261,0.18c-0.009,0.006-0.019,0.007-0.028,0.013
			c-0.036,0.031-0.071,0.061-0.107,0.092c-0.027,0.035-0.054,0.069-0.081,0.104c-0.035,0.051-0.057,0.106-0.064,0.166
			c-0.016,0.053-0.017,0.107-0.002,0.161c0.007,0.028,0.014,0.056,0.018,0.085c0.002,0.017,0.003,0.033,0.006,0.05
			c0.001,0.005,0.002,0.011,0.004,0.016c0,0.001,0.001,0.003,0.002,0.004c0.008,0.02,0.035,0.081,0.046,0.1
			c0.001,0.002,0.003,0.005,0.004,0.007c0.001,0.002,0.003,0.004,0.005,0.006c0.001,0.001,0.002,0.003,0.004,0.004
			c0.023,0.024,0.055,0.056,0.079,0.078c0.006,0.006,0.012,0.011,0.019,0.016c0.027,0.02,0.055,0.038,0.082,0.057
			c0.143,0.096,0.333,0.074,0.483,0.009c0.092-0.041,0.174-0.098,0.243-0.171c0.064-0.066,0.111-0.142,0.142-0.227
			c0.011-0.035,0.021-0.069,0.033-0.103c0.021-0.058,0.032-0.121,0.042-0.181c0.008-0.045,0.005-0.093,0.006-0.139
			C94.446,135.612,94.426,135.534,94.379,135.464z"/>
		<path style="fill:#E14A31;" d="M105.351,122.005c-0.016-0.04-0.034-0.083-0.055-0.12c-0.003-0.006-0.007-0.011-0.011-0.016
			c-0.028-0.034-0.063-0.065-0.096-0.095c-0.005-0.005-0.01-0.009-0.015-0.013c-0.011-0.009-0.023-0.015-0.035-0.022
			c-0.047-0.023-0.097-0.052-0.149-0.065c-0.056-0.014-0.114-0.021-0.172-0.025c-0.019-0.001-0.038-0.001-0.057,0.001
			c-0.066,0.006-0.134,0.009-0.199,0.024c-0.011,0.003-0.022,0.006-0.033,0.009c-0.006,0.002-0.011,0.003-0.017,0.005
			c-0.034,0.011-0.114,0.034-0.147,0.048c-0.002,0.001-0.004,0.002-0.006,0.003c-0.047,0.026-0.094,0.053-0.141,0.079
			c-0.011,0.008-0.022,0.016-0.032,0.024c-0.005,0.004-0.01,0.008-0.015,0.012c-0.006,0.005-0.018,0.015-0.027,0.022
			c-0.011,0.007-0.023,0.011-0.033,0.018c-0.078,0.049-0.142,0.13-0.194,0.204c-0.031,0.044-0.055,0.095-0.071,0.146
			c-0.013,0.039-0.02,0.08-0.026,0.12c-0.002,0.011-0.003,0.023-0.003,0.034c0.001,0.118,0.027,0.206,0.087,0.309
			c0.016,0.028,0.036,0.054,0.058,0.078c0.042,0.046,0.085,0.092,0.134,0.13c0.057,0.045,0.128,0.077,0.195,0.102
			c0.015,0.005,0.03,0.009,0.046,0.012c0.049,0.009,0.104,0.021,0.156,0.02c0.048-0.002,0.097-0.007,0.144-0.014
			c0.007-0.001,0.014-0.002,0.021-0.004c0.049-0.012,0.098-0.029,0.146-0.047c0.007-0.003,0.014-0.005,0.021-0.008
			c0.006-0.003,0.011-0.006,0.016-0.008c0.048-0.026,0.098-0.051,0.144-0.082c0.006-0.004,0.011-0.008,0.016-0.012
			c0.043-0.034,0.087-0.07,0.126-0.109c0.043-0.041,0.077-0.093,0.112-0.14c0.008-0.011,0.015-0.022,0.022-0.034
			c0.028-0.05,0.053-0.102,0.074-0.155c0.005-0.013,0.009-0.026,0.012-0.04c0.015-0.062,0.035-0.133,0.032-0.199
			C105.376,122.135,105.376,122.064,105.351,122.005z"/>
		<path style="fill:#E14A31;" d="M92.891,118.644l-0.072-0.071c-0.062-0.04-0.13-0.06-0.204-0.06
			c-0.063-0.002-0.123,0.008-0.181,0.032c-0.066,0.017-0.126,0.046-0.181,0.088c-0.058,0.038-0.106,0.085-0.144,0.141
			c-0.042,0.046-0.072,0.099-0.091,0.159c-0.007,0.036-0.015,0.072-0.022,0.109c-0.006,0.071,0.011,0.136,0.051,0.196l0.072,0.071
			c0.062,0.04,0.13,0.06,0.204,0.06c0.063,0.002,0.123-0.008,0.181-0.032c0.066-0.017,0.127-0.046,0.182-0.088
			c0.058-0.038,0.106-0.084,0.144-0.141c0.042-0.046,0.072-0.099,0.091-0.159c0.007-0.036,0.015-0.073,0.022-0.109
			C92.948,118.769,92.931,118.704,92.891,118.644z"/>
		<path style="fill:#E14A31;" d="M72.531,121.494c-0.002-0.016-0.005-0.032-0.01-0.048c-0.014-0.048-0.038-0.094-0.06-0.138
			c-0.007-0.013-0.014-0.026-0.023-0.038c-0.03-0.039-0.067-0.074-0.106-0.105c-0.039-0.031-0.092-0.05-0.136-0.069
			c-0.015-0.006-0.03-0.012-0.046-0.015c-0.054-0.012-0.112-0.022-0.169-0.022c-0.063,0-0.126,0.008-0.188,0.018
			c-0.081,0.013-0.155,0.048-0.226,0.087c-0.031,0.018-0.064,0.035-0.094,0.054c-0.023,0.015-0.046,0.033-0.067,0.05
			c-0.035,0.03-0.07,0.06-0.105,0.09c-0.047,0.045-0.082,0.097-0.105,0.156c-0.026,0.053-0.047,0.118-0.049,0.182
			c-0.024,0.042-0.048,0.084-0.067,0.131c-0.022,0.052-0.031,0.11-0.041,0.165c-0.009,0.054-0.001,0.111,0.006,0.164
			c0.004,0.027,0.012,0.052,0.022,0.076c0.022,0.052,0.044,0.106,0.08,0.151c0.048,0.059,0.109,0.122,0.179,0.158
			c0.096,0.05,0.172,0.076,0.283,0.08c0.052,0.002,0.106-0.005,0.157-0.014c0.055-0.01,0.109-0.03,0.16-0.051
			c0.055-0.022,0.107-0.055,0.157-0.086c0.051-0.032,0.096-0.076,0.14-0.116c0.058-0.051,0.104-0.114,0.147-0.178
			c0.043-0.063,0.074-0.135,0.103-0.204c0.015-0.035,0.025-0.071,0.034-0.108c0.015-0.07,0.034-0.143,0.034-0.216
			C72.543,121.598,72.538,121.545,72.531,121.494z"/>
		<path style="fill:#E14A31;" d="M64.745,114.045c-0.008-0.03-0.023-0.056-0.037-0.083c0,0,0,0,0-0.001
			c0.006,0.014,0.012,0.027,0.019,0.041c-0.01-0.021-0.013-0.045-0.018-0.067c0-0.007,0-0.015,0.001-0.022
			c0.005-0.041-0.002-0.078-0.023-0.112c-0.012-0.037-0.035-0.066-0.07-0.088c-0.023-0.011-0.047-0.022-0.07-0.033
			c-0.042-0.013-0.084-0.015-0.127-0.007c-0.032,0-0.062,0.006-0.091,0.019c-0.049,0.013-0.095,0.034-0.136,0.066
			c-0.026,0.022-0.052,0.045-0.078,0.067c-0.044,0.045-0.077,0.098-0.098,0.157c-0.009,0.037-0.017,0.076-0.023,0.114
			c-0.002,0.013-0.003,0.025-0.004,0.038c-0.001,0.012,0,0.023,0.001,0.035c0.002,0.037,0.004,0.075,0.011,0.112
			c0.002,0.011,0.005,0.023,0.008,0.034c0.002,0.006,0.004,0.012,0.006,0.017c0.001,0.003,0.002,0.005,0.003,0.008
			c0.001,0.001,0.001,0.003,0.002,0.004c0.011,0.024,0.022,0.048,0.033,0.072c0.004,0.005,0.008,0.01,0.012,0.014
			c0.021,0.022,0.043,0.044,0.066,0.064c0.009,0.008,0.019,0.016,0.029,0.024c0.023,0.011,0.046,0.022,0.07,0.032
			c0.042,0.013,0.083,0.015,0.125,0.007c0.031,0,0.061-0.006,0.09-0.019c0.049-0.012,0.093-0.034,0.134-0.065l0.077-0.066
			l0.059-0.075c0.025-0.037,0.041-0.077,0.047-0.12c0.012-0.038,0.013-0.077,0.002-0.117
			C64.756,114.078,64.75,114.062,64.745,114.045z"/>
	</g>
	<path style="fill:#823014;" d="M135.654,84.195c0,0,27.779-7.088,40.615-1.437c-5.173-7.567-9.1-8.334-15.614-8.813
		c-6.514-0.479-21.936,1.437-23.277,1.724C136.037,75.957,135.654,84.195,135.654,84.195z"/>
	<path style="fill:#823014;" d="M105.759,84.195c0,0-27.779-7.088-40.615-1.437c5.173-7.567,9.1-8.334,15.614-8.813
		c6.514-0.479,21.936,1.437,23.277,1.724C105.376,75.957,105.759,84.195,105.759,84.195z"/>
	<g>
		<path style="opacity:0.64;fill:#EB936D;" d="M116.997,135.257c-1.598-0.194-2.993-0.866-4.084-1.91
			c0.284,0.797,0.663,1.561,1.125,2.261c0.773,1.171,1.849,2.232,3.187,2.724c1.388,0.51,2.945,0.339,4.258-0.314
			c1.443-0.718,2.63-1.913,3.514-3.247c0.476-0.718,0.88-1.499,1.173-2.316c-0.644,0.472-1.323,0.897-2.032,1.262
			C121.974,134.831,119.448,135.555,116.997,135.257z"/>
		<path style="opacity:0.65;fill:#92422B;" d="M126.966,131.789c-0.798,0.852-1.424,1.845-2.227,2.696
			c-0.868,0.92-1.859,1.771-2.989,2.354c-1.027,0.53-2.203,0.856-3.361,0.633c-1.297-0.25-2.402-1.159-3.371-2.008
			c-1.216-1.066-2.459-2.52-2.974-4.076c-0.014-0.043-0.079-0.003-0.074,0.032c0.211,1.631,0.932,2.978,2.023,4.195
			c0.967,1.077,2.191,2.147,3.611,2.554c2.666,0.763,5.318-0.912,7.174-2.676c0.572-0.543,1.1-1.131,1.587-1.751
			c0.432-0.55,0.859-1.139,1.065-1.816C127.525,131.611,127.116,131.628,126.966,131.789z"/>
	</g>
	<path style="fill:#FFFFFF;" d="M135.417,110.636c0,0,3.861,5.927,17.062,3.772c13.201-2.155,11.495-13.919,11.495-13.919
		s-5.478-6.735-15.446-4.939C138.56,97.346,135.148,107.224,135.417,110.636z"/>
	<path style="fill:#231F20;" d="M135.417,110.636c0,0,2.017-12.115,12.446-14.372c10.43-2.258,15.913,5.591,15.913,5.591
		s5.269-1.613,6.989-3.118c-3.011-0.645-10.215-6.451-20.214-5.161C140.749,94.841,132.863,102.106,135.417,110.636z"/>
	<g>
		<g>
			
				<ellipse transform="matrix(0.7071 -0.7071 0.7071 0.7071 -30.3434 135.8256)" style="fill:#08A7AB;" cx="148.784" cy="104.54" rx="8.353" ry="8.353"/>
			<path style="fill:#054070;" d="M155.004,104.54c0,3.435-2.785,6.22-6.22,6.22c-3.435,0-6.219-2.785-6.219-6.22
				c0-3.435,2.785-6.22,6.219-6.22C152.219,98.321,155.004,101.105,155.004,104.54z"/>
			<path style="fill:#FFFFFF;" d="M147.983,101.107c0,1.36-1.103,2.463-2.463,2.463c-1.36,0-2.463-1.103-2.463-2.463
				c0-1.36,1.103-2.463,2.463-2.463C146.881,98.644,147.983,99.746,147.983,101.107z"/>
			<circle style="fill:#FFFFFF;" cx="142.848" cy="104.752" r="0.727"/>
		</g>
	</g>
	<path style="fill:#FFFFFF;" d="M103.546,110.636c0,0-3.861,5.927-17.062,3.772c-13.201-2.155-11.495-13.919-11.495-13.919
		s5.478-6.735,15.446-4.939C100.403,97.346,103.816,107.224,103.546,110.636z"/>
	<path style="fill:#231F20;" d="M103.546,110.636c0,0-2.017-12.115-12.446-14.372c-10.43-2.258-15.913,5.591-15.913,5.591
		s-5.268-1.613-6.989-3.118c3.011-0.645,10.215-6.451,20.214-5.161C98.215,94.841,106.101,102.106,103.546,110.636z"/>
	<g>
		<g>
			
				<ellipse transform="matrix(0.7071 -0.7071 0.7071 0.7071 -47.5084 94.3856)" style="fill:#08A7AB;" cx="90.179" cy="104.54" rx="8.353" ry="8.353"/>
			<path style="fill:#054070;" d="M96.399,104.54c0,3.435-2.785,6.22-6.22,6.22c-3.435,0-6.219-2.785-6.219-6.22
				c0-3.435,2.785-6.22,6.219-6.22C93.614,98.321,96.399,101.105,96.399,104.54z"/>
			<path style="fill:#FFFFFF;" d="M89.378,101.107c0,1.36-1.103,2.463-2.463,2.463c-1.36,0-2.463-1.103-2.463-2.463
				c0-1.36,1.103-2.463,2.463-2.463C88.276,98.644,89.378,99.746,89.378,101.107z"/>
			<path style="fill:#FFFFFF;" d="M84.97,104.752c0,0.402-0.326,0.727-0.727,0.727c-0.402,0-0.727-0.326-0.727-0.727
				c0-0.402,0.326-0.727,0.727-0.727C84.645,104.024,84.97,104.35,84.97,104.752z"/>
		</g>
	</g>
	<g>
		<path style="fill:#F47861;" d="M102.856,152.596c0,0,4.232-2.59,7.138-4.485c2.906-1.895,6.473-2.818,9.807-0.775
			c2.779-1.642,6.364-1.689,10.343,1.154c3.979,2.842,4.388,3.712,5.517,4.357c0,0-5,9.354-16.451,8.629
			C107.758,160.75,102.856,152.596,102.856,152.596z"/>
		<path style="fill:#AE3F42;" d="M133.472,152.848c-8.78-0.297-17.591-0.067-26.373,0.047c-0.109,0.001-0.293,0.28-0.188,0.282
			c8.774,0.116,17.576,0.336,26.348,0.046C133.385,153.218,133.616,152.853,133.472,152.848z"/>
		<path style="opacity:0.65;fill:#92422B;" d="M103.556,152.468c-0.38-0.104-0.768-0.161-1.151-0.253
			c-0.364-0.087-0.722-0.199-1.078-0.316c-0.75-0.246-1.493-0.572-2.175-0.969c-0.061-0.036-0.203,0.123-0.149,0.172
			c0.592,0.535,1.225,0.969,1.947,1.308c0.71,0.333,1.523,0.588,2.311,0.589C103.425,153.001,103.8,152.535,103.556,152.468z"/>
		<path style="opacity:0.65;fill:#92422B;" d="M135.05,152.561c0.38-0.104,0.767-0.161,1.15-0.252
			c0.364-0.087,0.723-0.199,1.078-0.316c0.75-0.246,1.493-0.572,2.175-0.969c0.061-0.036,0.203,0.123,0.149,0.172
			c-0.592,0.535-1.225,0.969-1.947,1.309c-0.71,0.333-1.523,0.587-2.311,0.589C135.181,153.094,134.806,152.629,135.05,152.561z"/>
	</g>
	<path style="fill:#BA5D35;" d="M171.626,33.686c0,0-8.602,27.526-43.009,30.966C94.21,68.093,10.343,90.027,14.214,154.971
		c0,0-3.441-9.032-3.871-15.053c-1.72,4.731-0.43,15.053-0.43,15.053S-18.472,109.381,44.32,49.169
		C105.392-8.462,191.84-6.312,171.626,33.686z"/>
	<path style="fill:#BA5D35;" d="M170.843,35.464c0,0-3.734,10.373,1.75,26.501s9.354,25.16,8.064,35.482
		c18.709-5.161,32.902-18.064,33.547-33.869c0.645-15.806-16.128-59.029-39.676-45.482C174.529,18.096,176.19,25.091,170.843,35.464
		z"/>
	<g>
		<path style="fill:#2C2B2B;" d="M157.233,85.238C139.23,81.862,124.5,97.001,124.5,97.001c-5.566-2.285-10.229-0.307-10.229-0.307
			s-11.15-10.638-25.061-11.763c-13.911-1.125-25.163,8.468-26.698,8.468c-1.534,0-6.348,0-6.348,0v5.743c0,0,3.06,0.798,4.263,6.17
			c1.203,5.373,2.085,26.543,24.699,26.864c21.931,0.311,27.571-18.987,27.16-30.247c-0.021-0.564,0.435-1.028,1-1.028h13.1
			c0.555,0,1.005,0.452,1.002,1.007l-0.013,2.627c0.441,11.393,6.553,27.93,26.969,27.64c22.614-0.321,23.496-21.491,24.699-26.864
			c1.203-5.373,4.263-6.17,4.263-6.17v-5.743C171.124,94.911,175.236,88.613,157.233,85.238z M107.853,109.668
			c-1.996,10.079-10.031,19.221-22.166,19.221c-12.135,0-19.619-9.403-20.3-19.655c-1.013-15.264,10.009-20.2,22.144-20.2
			C99.666,89.034,110.819,94.693,107.853,109.668z M174.028,109.234c-0.68,10.252-8.165,19.655-20.3,19.655
			s-20.169-9.142-22.166-19.221c-2.966-14.975,8.186-20.634,20.321-20.634C164.019,89.034,175.041,93.969,174.028,109.234z"/>
	</g>
	<g>
		<path style="fill:#BA5D35;" d="M138.214,23.787c-10.1,12.201-27.09,15.089-41.258,20.122
			c-14.863,5.279-28.255,14.245-38.759,26.022c-5.943,6.662-10.897,14.136-14.659,22.233c-0.159,0.342-0.701,2.156-0.492,1.821
			c0.135-0.215,0.5-1.072,0.647-1.374c6.953-14.299,18.769-27.347,31.891-36.334c6.583-4.509,13.702-8.042,21.198-10.755
			c7.292-2.64,14.798-4.682,21.971-7.649c7.536-3.117,14.622-7.376,19.734-13.85C138.768,23.667,138.513,23.426,138.214,23.787z"/>
		<path style="fill:#BA5D35;" d="M93.836,22.705c-18.766,7.468-36.603,17.634-51.334,31.581
			C27.92,68.093,16.727,85.587,12.028,105.238c-2.636,11.025-3.164,22.554-0.765,33.668c0.096,0.443,0.114,0.085,0.043-0.335
			c-3.293-19.644,1.865-40.333,11.495-57.648c9.651-17.353,24.417-31.245,41.017-41.902c9.441-6.061,19.498-11.211,29.819-15.595
			C93.897,23.316,94.33,22.508,93.836,22.705z"/>
		<path style="fill:#BA5D35;" d="M29.752,77.727c-11.828,12.442-18.291,29.551-18.116,46.681c0.049,4.823,0.648,9.596,1.819,14.274
			c0.093,0.37,0.899-0.36,0.82-0.72c-3.603-16.424-0.962-33.922,7.405-48.521c2.357-4.112,5.159-7.969,8.343-11.479
			C30.335,77.62,30.069,77.394,29.752,77.727z"/>
	</g>
	<g>
		<path style="fill:#BA5D35;" d="M172.173,45.316c-0.842-4.69-0.806-9.516,0.704-14.068c0.09-0.271-0.324,0.038-0.373,0.173
			c-5.948,16.379,6.067,31.906,10.739,46.902c1.405,4.51,2.205,9.239,1.94,13.972c-0.028,0.493,0.81-0.226,0.845-0.549
			C187.868,75.001,175.024,61.199,172.173,45.316z"/>
		<path style="fill:#BA5D35;" d="M191.672,38.18c-3.293-3.451-6.97-6.5-10.866-9.245c-0.14-0.099-0.477,0.302-0.348,0.4
			c12.781,9.787,23.39,23.79,24.121,40.415c0.219,4.991-0.52,10.035-2.255,14.725c-0.3,0.812,0.685,0.326,0.871-0.125
			C209.839,68.216,203.168,50.226,191.672,38.18z"/>
	</g>
</g>
</svg>
